<svg width="87" height="68" viewBox="0 0 87 68" fill="none" xmlns="http://www.w3.org/2000/svg">
<g clip-path="url(#clip0_3496_25735)">
<path d="M67.646 31.5541V17.3587C67.646 17.3587 67.7695 14.7454 67.7932 14.6721C67.8168 14.5988 69.0547 13.8106 69.0547 13.8106L82.8814 13.6875C82.8814 13.6875 85.8012 14.3029 85.8249 14.4259C85.8485 14.549 86.1954 15.5598 86.2217 15.6331C86.248 15.7064 86.1981 26.2305 86.0982 26.5028C85.9983 26.7752 85.5305 28.2285 85.5305 28.2285C85.5305 28.2285 84.9865 28.8438 84.7631 28.8203C84.5397 28.7967 80.6579 28.7469 80.6579 28.7469L71.6303 28.5506L69.9483 28.9695L67.6486 31.5567L67.646 31.5541Z" fill="#F3F4F6"/>
<path d="M27.0567 29.014V2.61873L26.4128 1.53464L25.1513 1.03711H4.05257L2.47043 1.75722L1.78711 3.17911L2.07358 28.3646L2.44415 30.2369L3.43233 30.8653C3.43233 30.8653 4.6439 31.1612 4.74377 31.1612C4.84364 31.1612 22.058 30.9648 22.6283 31.0146C23.1986 31.0643 25.719 30.9648 25.8688 30.9151C26.0186 30.8653 27.0567 29.7812 27.0567 29.7812V29.0166V29.014Z" fill="#F3F4F6"/>
<path d="M26.6837 27.1415H31.5563L26.5365 22.9937L26.6837 27.1415Z" fill="#F3F4F6"/>
<path d="M22.8232 25.5518H5.95575C5.1763 25.5518 4.54443 26.1813 4.54443 26.9579C4.54443 27.7345 5.1763 28.3641 5.95575 28.3641H22.8232C23.6026 28.3641 24.2345 27.7345 24.2345 26.9579C24.2345 26.1813 23.6026 25.5518 22.8232 25.5518Z" fill="#A9D0FF"/>
<path d="M74.65 21.2446H72.0192V22.0014H74.65V21.2446Z" fill="#5798F7"/>
<path d="M79.695 17.5583L78.6377 19.0391L79.2566 19.4778L80.3139 17.997L79.695 17.5583Z" fill="#5798F7"/>
<path d="M77.47 24.9184C75.646 24.9184 74.1638 23.4415 74.1638 21.6243C74.1638 19.807 75.646 18.3301 77.47 18.3301C79.2939 18.3301 80.7762 19.807 80.7762 21.6243C80.7762 23.4415 79.2939 24.9184 77.47 24.9184ZM77.47 19.0842C76.0639 19.0842 74.9207 20.2233 74.9207 21.6243C74.9207 23.0252 76.0639 24.1643 77.47 24.1643C78.876 24.1643 80.0193 23.0252 80.0193 21.6243C80.0193 20.2233 78.876 19.0842 77.47 19.0842Z" fill="#83B7FF"/>
<path d="M70.6 23.0409C71.3635 23.0409 71.9824 22.4242 71.9824 21.6635C71.9824 20.9028 71.3635 20.2861 70.6 20.2861C69.8365 20.2861 69.2176 20.9028 69.2176 21.6635C69.2176 22.4242 69.8365 23.0409 70.6 23.0409Z" fill="#FFD14C"/>
<path d="M80.4634 18.0839C81.0252 18.0839 81.4805 17.6302 81.4805 17.0705C81.4805 16.5108 81.0252 16.0571 80.4634 16.0571C79.9017 16.0571 79.4464 16.5108 79.4464 17.0705C79.4464 17.6302 79.9017 18.0839 80.4634 18.0839Z" fill="#FFD14C"/>
<path d="M81.5303 25.9242C82.092 25.9242 82.5474 25.4705 82.5474 24.9108C82.5474 24.3512 82.092 23.8975 81.5303 23.8975C80.9685 23.8975 80.5132 24.3512 80.5132 24.9108C80.5132 25.4705 80.9685 25.9242 81.5303 25.9242Z" fill="#91E6F0"/>
<path d="M21.6667 38.4011C21.7849 38.519 21.7849 38.7101 21.6667 38.828C21.6062 38.8882 21.53 38.917 21.4511 38.917C21.3723 38.917 21.2961 38.8882 21.2356 38.828L20.7126 38.3069L20.1896 38.828C20.1292 38.8882 20.053 38.917 19.9741 38.917C19.8953 38.917 19.8191 38.8882 19.7586 38.828C19.6404 38.7101 19.6404 38.519 19.7586 38.4011L20.2816 37.8801L19.7586 37.359C19.6404 37.2411 19.6404 37.05 19.7586 36.9321C19.8769 36.8143 20.0687 36.8143 20.187 36.9321L20.71 37.4532L21.233 36.9321C21.3513 36.8143 21.5431 36.8143 21.6614 36.9321C21.7797 37.05 21.7797 37.2411 21.6614 37.359L21.1384 37.8801L21.6614 38.4011H21.6667Z" fill="#FFB400"/>
<path d="M24.2343 21.3833H5.09613V22.0563H24.2343V21.3833Z" fill="#FFD14C"/>
<path d="M24.2343 22.8811H5.09613V23.5541H24.2343V22.8811Z" fill="#FFD14C"/>
<path d="M10.9072 27.5735C11.2483 27.5735 11.5248 27.298 11.5248 26.9581C11.5248 26.6183 11.2483 26.3428 10.9072 26.3428C10.5661 26.3428 10.2896 26.6183 10.2896 26.9581C10.2896 27.298 10.5661 27.5735 10.9072 27.5735Z" fill="#F3F4F6"/>
<path d="M14.4368 27.5735C14.7779 27.5735 15.0544 27.298 15.0544 26.9581C15.0544 26.6183 14.7779 26.3428 14.4368 26.3428C14.0957 26.3428 13.8192 26.6183 13.8192 26.9581C13.8192 27.298 14.0957 27.5735 14.4368 27.5735Z" fill="#F3F4F6"/>
<path d="M17.9664 27.5735C18.3075 27.5735 18.584 27.298 18.584 26.9581C18.584 26.6183 18.3075 26.3428 17.9664 26.3428C17.6253 26.3428 17.3488 26.6183 17.3488 26.9581C17.3488 27.298 17.6253 27.5735 17.9664 27.5735Z" fill="#F3F4F6"/>
<path d="M10.4341 20.2022H4.82039C4.66796 20.2022 4.54443 20.0791 4.54443 19.9272V15.8003C4.54443 15.6485 4.66796 15.5254 4.82039 15.5254H10.4341C10.5865 15.5254 10.7101 15.6485 10.7101 15.8003V19.9272C10.7101 20.0791 10.5865 20.2022 10.4341 20.2022ZM5.09634 19.6523H10.1582V16.0753H5.09634V19.6523Z" fill="#83B7FF"/>
<path d="M7.62701 19.2203C7.86941 19.2203 8.06591 19.0245 8.06591 18.783C8.06591 18.5415 7.86941 18.3457 7.62701 18.3457C7.38461 18.3457 7.18811 18.5415 7.18811 18.783C7.18811 19.0245 7.38461 19.2203 7.62701 19.2203Z" fill="#FFB400"/>
<path d="M7.92925 16.4473H7.32214V17.9556H7.92925V16.4473Z" fill="#FFB400"/>
<path d="M31.5773 27.4479H27.6009C27.4143 27.4479 27.2645 27.2961 27.2645 27.1128C27.2645 26.9295 27.4169 26.7776 27.6009 26.7776H30.6469L26.8966 23.6458C26.8204 23.5829 26.7757 23.4887 26.7757 23.3891V3.17634C26.7757 2.18128 25.9636 1.37214 24.9649 1.37214C24.7783 1.37214 24.6285 1.22026 24.6285 1.03696C24.6285 0.85366 24.7809 0.701782 24.9649 0.701782C26.3368 0.701782 27.4511 1.81206 27.4511 3.17896V23.2294L31.7928 26.8535C31.9006 26.9452 31.9426 27.0944 31.8927 27.2254C31.8454 27.3589 31.7166 27.4479 31.5747 27.4479H31.5773Z" fill="#83B7FF"/>
<path d="M24.9675 31.3785H4.27089C2.899 31.3785 1.78467 30.2682 1.78467 28.9013V3.17639C1.78467 1.8095 2.899 0.699219 4.27089 0.699219H20.6994C20.886 0.699219 21.0358 0.851096 21.0358 1.0344C21.0358 1.2177 20.8834 1.36957 20.6994 1.36957H4.27089C3.2722 1.36957 2.4601 2.17872 2.4601 3.17378V28.9013C2.4601 29.8964 3.2722 30.7055 4.27089 30.7055H24.9649C25.9636 30.7055 26.7757 29.8964 26.7757 28.9013C26.7757 28.7154 26.9281 28.5661 27.1121 28.5661C27.2961 28.5661 27.4485 28.718 27.4485 28.9013C27.4485 30.2682 26.3342 31.3785 24.9623 31.3785H24.9675Z" fill="#83B7FF"/>
<path d="M23.8455 1.55838C23.9637 1.67621 23.9637 1.86737 23.8455 1.9852C23.7877 2.04543 23.7088 2.07424 23.63 2.07424C23.5511 2.07424 23.4749 2.04543 23.4171 1.9852L22.8941 1.46411L22.3711 1.9852C22.3133 2.04543 22.2344 2.07424 22.1556 2.07424C22.0767 2.07424 22.0005 2.04543 21.9427 1.9852C21.8244 1.86737 21.8244 1.67621 21.9427 1.55838L22.4657 1.03728L21.9427 0.516182C21.8244 0.398346 21.8244 0.20719 21.9427 0.0893536C22.061 -0.0284825 22.2528 -0.0284825 22.3711 0.0893536L22.8941 0.610451L23.4171 0.0893536C23.5354 -0.0284825 23.7272 -0.0284825 23.8455 0.0893536C23.9637 0.20719 23.9637 0.398346 23.8455 0.516182L23.3225 1.03728L23.8455 1.55838Z" fill="#FFB400"/>
<path d="M69.0206 65.9937L49.1649 74.47L22.9886 65.9937C16.6627 65.9937 12.2921 59.3451 14.6311 53.4874C18.7836 43.0942 27.4906 34.0863 37.2384 30.2344C38.5919 32.9629 42.1452 35.2411 46.3134 35.2411C50.4816 35.2411 54.1269 33.0808 55.5145 30.4046C64.8155 34.2251 73.3544 43.267 77.3886 53.5057C79.6961 59.3661 75.357 63.671 69.0232 65.9911L69.0206 65.9937Z" fill="#83B7FF"/>
<path d="M55.4568 31.0802L49.5146 46.645H43.0178L36.9468 30.6796L37.5013 30.4072C38.9074 32.6566 42.3844 34.9347 46.3109 34.9347C50.2373 34.9347 53.4147 33.3191 54.897 30.8157L55.4542 31.0828L55.4568 31.0802Z" fill="#FFD14C"/>
<path d="M86.1978 62.3009L83.4514 50.4519C82.3739 45.8065 78.224 42.5176 73.4382 42.5176C70.2529 42.5176 67.2489 43.9892 65.3041 46.5004L44.8046 72.9586L21.3352 65.857C11.1354 62.7697 2.06829 73.1523 6.54665 82.7913L6.7569 83.2417C10.5808 91.4693 18.7412 96.6645 27.7216 96.6645H58.7679C76.8732 96.6645 90.2715 79.8795 86.1978 62.3036V62.3009Z" fill="#F3F4F6"/>
<path d="M58.7682 97.0002H27.722C23.2462 97.0002 18.8888 95.7276 15.1226 93.3211C11.3486 90.9094 8.3499 87.4712 6.44975 83.3836L6.2395 82.9332C4.1107 78.3507 4.85447 73.1398 8.17907 69.3323C11.5063 65.5249 16.5839 64.069 21.4302 65.538L44.6761 72.5741L65.0337 46.2993C67.0285 43.7253 70.1691 42.1855 73.4359 42.1855C75.8249 42.1855 78.1718 43.0025 80.0431 44.4847C81.9143 45.9668 83.2389 48.0616 83.7776 50.3817L86.5241 62.2308C88.4899 70.7097 86.4978 79.4793 81.0628 86.2876C75.6251 93.0986 67.4989 97.0029 58.7656 97.0029L58.7682 97.0002ZM17.6798 65.6454C14.2816 65.6454 11.028 67.0935 8.69156 69.7697C5.54304 73.3754 4.8387 78.3088 6.85448 82.6478L7.06474 83.0982C8.91232 87.0706 11.8243 90.4093 15.4906 92.7529C19.1463 95.0913 23.3776 96.3273 27.7246 96.3273H58.7709C67.2966 96.3273 75.2309 92.5146 80.5398 85.8661C85.8486 79.2175 87.7908 70.6574 85.8723 62.3774L83.1259 50.5283C82.6213 48.3549 81.3808 46.3936 79.6278 45.0058C77.8775 43.6179 75.6803 42.8533 73.4412 42.8533C70.3846 42.8533 67.4437 44.2935 65.5751 46.7052L44.931 73.3466L21.2409 66.177C20.0583 65.8182 18.8625 65.6454 17.6824 65.6454H17.6798Z" fill="#5798F7"/>
<path d="M79.3103 60.1165L63.2754 91.9238L63.879 92.2259L79.9139 60.4186L79.3103 60.1165Z" fill="#5798F7"/>
<path d="M36.7574 65.7002H30.7573C28.9334 65.7002 27.4537 67.1745 27.4537 68.9918C27.4537 69.9554 28.1817 70.7619 29.141 70.8667L29.8585 70.9452C30.9781 71.0657 31.9557 70.1937 31.9557 69.0703L36.9755 70.5891L36.7574 65.7002Z" fill="#F3F4F6"/>
<path d="M30.0634 71.2566C29.9845 71.2566 29.9057 71.2513 29.8268 71.2435L29.1093 71.1649C27.9924 71.0444 27.1514 70.1096 27.1514 68.9889C27.1514 67.0066 28.7703 65.3936 30.7598 65.3936H37.049L37.2986 70.9973L32.2237 69.4602C32.137 69.9316 31.8952 70.3662 31.5299 70.6909C31.1251 71.0523 30.6021 71.2513 30.0634 71.2513V71.2566ZM30.7598 66.0011C29.1041 66.0011 27.7585 67.3418 27.7585 68.9915C27.7585 69.8006 28.3682 70.4788 29.175 70.5653L29.8925 70.6438C30.3393 70.6909 30.7913 70.5469 31.1251 70.2484C31.4615 69.9473 31.6534 69.5178 31.6534 69.07V68.6615L36.6547 70.1751L36.4681 66.0011H30.7572H30.7598Z" fill="#5798F7"/>
<path d="M48.6156 68.0385L45.5117 61.6099C45.3199 61.2145 44.7811 61.1543 44.5078 61.4973L43.0229 63.3592H40.5577C39.2147 63.3592 37.9584 64.0086 37.1831 65.0979L35.7692 67.088C34.8677 68.358 35.4775 70.136 36.9729 70.589L44.8021 72.9589L48.6156 68.0385Z" fill="#F3F4F6"/>
<path d="M44.9152 73.3071L36.8862 70.877C36.0793 70.6335 35.4591 70.0365 35.1858 69.243C34.9124 68.447 35.036 67.5986 35.5222 66.9125L36.9361 64.9224C37.7666 63.7519 39.1201 63.0553 40.5577 63.0553H42.8757L44.2686 61.3061C44.4631 61.0626 44.7627 60.9369 45.0729 60.9736C45.383 61.0076 45.6484 61.1961 45.7824 61.4763L48.9678 68.0725L44.9125 73.3044L44.9152 73.3071ZM40.5603 63.6602C39.3198 63.6602 38.1503 64.2625 37.4328 65.2733L36.0189 67.2634C35.6457 67.7897 35.5511 68.4391 35.7613 69.0493C35.9716 69.6594 36.4446 70.115 37.0623 70.3009L44.6891 72.6105L48.2582 68.0018L45.2358 61.7408C45.1727 61.6099 45.0518 61.5837 45.0045 61.5785C44.9572 61.5732 44.8337 61.5732 44.7417 61.6858L43.1648 63.6628H40.5551L40.5603 63.6602Z" fill="#004C85"/>
<path d="M40.1687 63.3591L41.3303 61.6623C41.6168 61.2433 42.2449 61.2695 42.4946 61.7094L43.4355 63.3591" fill="#5798F7"/>
<path d="M40.4184 63.5293L39.9164 63.1889L41.078 61.492C41.2725 61.2092 41.5931 61.0469 41.9374 61.0626C42.2817 61.0757 42.5892 61.2642 42.7574 61.5601L43.6983 63.2098L43.17 63.5083L42.2292 61.8586C42.1634 61.7408 42.0452 61.6701 41.9111 61.6648C41.7771 61.6596 41.6536 61.7198 41.5774 61.8324L40.4157 63.5293H40.4184Z" fill="#5798F7"/>
<path d="M39.0937 67.866C38.6153 67.866 38.229 67.4077 38.229 66.8447H38.8361C38.8361 67.083 38.9728 67.2611 39.0963 67.2611C39.2198 67.2611 39.3565 67.083 39.3565 66.8447H39.9636C39.9636 67.4077 39.5746 67.866 39.0989 67.866H39.0937Z" fill="#5798F7"/>
<path d="M36.5969 70.3929C37.2704 70.3929 37.8164 69.8489 37.8164 69.1779C37.8164 68.5069 37.2704 67.9629 36.5969 67.9629C35.9234 67.9629 35.3774 68.5069 35.3774 69.1779C35.3774 69.8489 35.9234 70.3929 36.5969 70.3929Z" fill="#91E6F0"/>
<path d="M43.1595 63.6734L44.1293 62.4636C44.2949 62.2567 44.626 62.3091 44.718 62.5578L45.1333 63.6734H43.1595Z" fill="#91E6F0"/>
<path d="M36.4865 67.7529H35.3774V68.3578H36.4865V67.7529Z" fill="#5798F7"/>
<path d="M44.918 73.3179L36.8837 70.8879C36.0743 70.6417 35.454 70.0447 35.1807 69.2486C34.9074 68.4526 35.0309 67.5989 35.5171 66.9129L36.931 64.9227C37.7642 63.7522 39.1203 63.0531 40.5605 63.0531H42.8759L44.2688 61.3065C44.4633 61.063 44.7655 60.9373 45.0783 60.9713C45.391 61.0054 45.6565 61.1939 45.7931 61.4767L48.9811 68.0808L44.9206 73.3205L44.918 73.3179ZM40.5605 63.6711C39.3227 63.6711 38.1558 64.2733 37.4383 65.2815L36.0243 67.2716C35.6538 67.7953 35.5592 68.4421 35.7668 69.0496C35.9744 69.6571 36.4475 70.1102 37.0651 70.2987L44.6893 72.6057L48.2531 68.0048L45.2334 61.7464C45.1729 61.6181 45.0546 61.5919 45.01 61.5867C44.9627 61.5814 44.8444 61.5814 44.755 61.6914L43.1755 63.6711H40.5605Z" fill="#5798F7"/>
<path d="M44.8047 72.959L49.1675 67.3291H42.7206C41.3671 67.3291 40.2686 68.4237 40.2686 69.7722C40.2686 70.8485 40.9755 71.799 42.0084 72.1106L44.8074 72.9564L44.8047 72.959Z" fill="white"/>
<path d="M44.915 73.3074L41.9163 72.3987C40.7468 72.0452 39.9609 70.9899 39.9609 69.7723C39.9609 68.2587 41.1962 67.0254 42.7179 67.0254H49.7823L44.915 73.3047V73.3074ZM42.7179 67.6303C41.5326 67.6303 40.568 68.5913 40.568 69.7723C40.568 70.7228 41.1804 71.5451 42.0924 71.8226L44.6916 72.6082L48.5471 67.6303H42.7179Z" fill="#5798F7"/>
<path d="M36.1896 64.082H34.6837C34.5575 64.082 34.4445 64.006 34.3972 63.8908C34.3499 63.7756 34.3762 63.6421 34.4655 63.553L35.4432 62.5789H34.568V61.9609H36.1922C36.3184 61.9609 36.4314 62.0369 36.4787 62.1521C36.526 62.2673 36.4997 62.4009 36.4104 62.4899L35.4327 63.464H36.1896V64.082Z" fill="#FFD14C"/>
<path d="M39.3408 61.6728H37.8349C37.7088 61.6728 37.5957 61.5969 37.5484 61.4816C37.5011 61.3664 37.5274 61.2329 37.6168 61.1439L38.5944 60.1697H37.7193V59.5518H39.3435C39.4696 59.5518 39.5826 59.6277 39.6299 59.7429C39.6772 59.8581 39.651 59.9917 39.5616 60.0807L38.5839 61.0548H39.3408V61.6728Z" fill="#F3F4F6"/>
<path d="M58.8863 40.4702L59.3568 40.6561C60.6709 41.1798 61.5092 42.4734 61.4462 43.8822L61.0966 47.2026L63.5802 48.6166L56.6866 57.6245L53.0256 49.7321C52.1583 47.8651 52.5105 45.6628 53.9139 44.1519L56.9336 40.9075C57.433 40.3707 58.2109 40.1953 58.8916 40.4676L58.8863 40.4702Z" fill="#F3F4F6"/>
<path d="M56.613 58.2738L52.7155 49.876C51.7877 47.878 52.1583 45.5423 53.6616 43.9266L56.6813 40.6822C57.27 40.0485 58.2083 39.839 59.0125 40.1585L59.4829 40.3444C60.9284 40.9205 61.8535 42.3476 61.7826 43.9004V43.9214L61.4541 47.0218L64.0796 48.517L56.613 58.2738ZM58.2346 40.6822C57.8404 40.6822 57.454 40.8419 57.1781 41.1378L54.1583 44.3822C52.8416 45.7963 52.5184 47.8414 53.3305 49.5906L56.7576 56.975L63.0783 48.716L60.7392 47.3831L61.1124 43.8559C61.165 42.5937 60.4133 41.4337 59.2359 40.965L58.7655 40.7791C58.5946 40.711 58.4159 40.677 58.2372 40.677L58.2346 40.6822Z" fill="#5798F7"/>
<path d="M56.5893 46.231C56.2188 46.231 55.8456 46.1211 55.5223 45.888C55.1228 45.6026 54.86 45.181 54.7812 44.6992C54.7023 44.2173 54.8153 43.7329 55.1018 43.3349L56.9179 40.8106C57.5276 39.9648 58.4501 39.805 59.5145 40.3602L59.2017 40.9572C58.4317 40.554 57.8798 40.6325 57.4671 41.2034L55.6511 43.7277C55.4698 43.9791 55.3988 44.2854 55.4487 44.5892C55.4987 44.8929 55.6669 45.1627 55.9192 45.3407C56.4395 45.7126 57.1675 45.5921 57.5407 45.0736L58.7681 43.3663L59.3173 43.7591L58.09 45.4664C57.7326 45.9639 57.1675 46.2284 56.5946 46.2284L56.5893 46.231Z" fill="#5798F7"/>
<path d="M56.4214 45.4981C56.8656 45.4981 57.2256 45.1393 57.2256 44.6968C57.2256 44.2543 56.8656 43.8955 56.4214 43.8955C55.9772 43.8955 55.6172 44.2543 55.6172 44.6968C55.6172 45.1393 55.9772 45.4981 56.4214 45.4981Z" fill="#FFD14C"/>
<path d="M54.7044 37.2836L54.7028 37.2815C54.1818 36.6412 53.2384 36.5429 52.5957 37.062L50.1723 39.0193C49.5296 39.5385 49.431 40.4784 49.952 41.1187L49.9536 41.1208C50.4746 41.7611 51.418 41.8594 52.0607 41.3403L54.4841 39.383C55.1268 38.8639 55.2254 37.9239 54.7044 37.2836Z" fill="#F3F4F6"/>
<path d="M51.1203 42.0096C51.0546 42.0096 50.9915 42.007 50.9258 41.9992C50.437 41.9494 49.9981 41.7111 49.6906 41.3314C49.052 40.5485 49.1729 39.3937 49.9613 38.7574L52.3845 36.8013C52.7655 36.4923 53.2439 36.3509 53.7327 36.4033C54.2215 36.453 54.6604 36.6913 54.9679 37.071C55.6066 37.854 55.4857 39.0087 54.6972 39.6451L52.2741 41.6011C51.9429 41.8682 51.5408 42.0096 51.1203 42.0096ZM53.5382 37.0658C53.2728 37.0658 53.0178 37.1548 52.8102 37.325L50.3871 39.2811C49.8904 39.6817 49.8141 40.4123 50.2162 40.9098C50.4107 41.1507 50.6893 41.3 50.9968 41.3314C51.3043 41.3628 51.6092 41.2738 51.8483 41.08L54.2715 39.124C54.7682 38.7233 54.8444 37.9927 54.4423 37.4952C54.2478 37.2543 53.9692 37.105 53.6617 37.0736C53.6197 37.0684 53.5803 37.0684 53.5382 37.0684V37.0658Z" fill="#5798F7"/>
<path d="M50.8706 41.292C51.3148 41.292 51.6748 40.9333 51.6748 40.4907C51.6748 40.0482 51.3148 39.6895 50.8706 39.6895C50.4265 39.6895 50.0664 40.0482 50.0664 40.4907C50.0664 40.9333 50.4265 41.292 50.8706 41.292Z" fill="#FFD14C"/>
<path d="M56.9594 38.6664L56.9572 38.6648C56.2849 38.1844 55.349 38.3379 54.8668 39.0078L53.0486 41.5335C52.5664 42.2034 52.7205 43.1359 53.3928 43.6163L53.3949 43.6179C54.0672 44.0983 55.0031 43.9448 55.4853 43.2749L57.3036 40.7492C57.7858 40.0793 57.6317 39.1468 56.9594 38.6664Z" fill="#F3F4F6"/>
<path d="M54.2687 44.2331C53.8981 44.2331 53.525 44.1231 53.2017 43.89C52.3791 43.3009 52.1899 42.1565 52.7786 41.3369L54.5946 38.8126C54.8811 38.4146 55.3042 38.1527 55.7878 38.0742C56.2714 37.9956 56.7576 38.1082 57.157 38.3936C57.5565 38.6791 57.8193 39.1007 57.8982 39.5825C57.977 40.0643 57.864 40.5487 57.5775 40.9468L55.7615 43.4711C55.4041 43.9686 54.839 44.2331 54.2661 44.2331H54.2687ZM53.5933 43.3454C54.1137 43.7172 54.8417 43.5968 55.2149 43.0783L57.0309 40.554C57.2122 40.3026 57.2832 39.9962 57.2333 39.6925C57.1833 39.3887 57.0151 39.119 56.7628 38.9409C56.5105 38.7602 56.203 38.6895 55.8982 38.7393C55.5933 38.7891 55.3226 38.9566 55.1439 39.208L53.3278 41.7323C53.1465 41.9837 53.0755 42.2901 53.1255 42.5938C53.1754 42.8976 53.3436 43.1673 53.5959 43.3454H53.5933Z" fill="#5798F7"/>
<path d="M54.1006 43.544C54.5448 43.544 54.9048 43.1852 54.9048 42.7427C54.9048 42.3002 54.5448 41.9414 54.1006 41.9414C53.6564 41.9414 53.2964 42.3002 53.2964 42.7427C53.2964 43.1852 53.6564 43.544 54.1006 43.544Z" fill="#FFD14C"/>
<path d="M50.8574 43.1255L49.5144 46.6448H43.0176L41.6746 43.1255C41.4828 42.6227 41.5511 42.0597 41.856 41.6172C42.1635 41.1746 42.6681 40.9102 43.2068 40.9102H49.3225C49.8613 40.9102 50.3659 41.1746 50.6734 41.6172C50.9809 42.0597 51.0492 42.6227 50.8574 43.1255Z" fill="#5798F7"/>
<path d="M43.8691 44.0236C43.4329 44.0236 43.0781 43.6701 43.0781 43.2355C43.0781 42.8008 43.4329 42.4473 43.8691 42.4473C44.3054 42.4473 44.6602 42.8008 44.6602 43.2355C44.6602 43.6701 44.3054 44.0236 43.8691 44.0236ZM43.8691 42.9396C43.7062 42.9396 43.5722 43.0705 43.5722 43.2355C43.5722 43.4004 43.7036 43.5287 43.8691 43.5287C44.0347 43.5287 44.1635 43.3978 44.1635 43.2355C44.1635 43.0731 44.0321 42.9396 43.8691 42.9396Z" fill="white"/>
<path d="M46.2792 39.9648C46.1083 39.9648 45.9691 39.826 45.9691 39.6558V36.7309C45.9691 36.5607 46.1083 36.4219 46.2792 36.4219C46.45 36.4219 46.5893 36.5607 46.5893 36.7309V39.6558C46.5893 39.826 46.45 39.9648 46.2792 39.9648Z" fill="white"/>
<path d="M44.1188 39.9648C43.9874 39.9648 43.8665 39.881 43.8245 39.7501L43.0912 37.5086C43.0387 37.3462 43.128 37.1708 43.291 37.1184C43.4539 37.066 43.63 37.1551 43.6826 37.3174L44.4158 39.5589C44.4684 39.7213 44.379 39.8967 44.2161 39.9491C44.1845 39.9596 44.153 39.9648 44.1188 39.9648Z" fill="white"/>
<path d="M20.1818 49.4442C27.6116 47.5379 42.2556 43.7776 42.2556 43.7776L42.9336 45.5556C43.1124 46.0243 43.5644 46.3359 44.069 46.3359H48.3529C48.9232 46.3359 49.433 45.985 49.6354 45.4561L50.9469 42.0205H51.1124C52.3161 42.0205 53.2938 42.9946 53.2938 44.1939V44.228H53.504C54.3766 44.228 55.0862 44.935 55.0862 45.8044V46.4538C55.7774 46.4538 56.3214 47.0403 56.2689 47.7264C56.2347 48.1794 56.0665 48.6115 55.7853 48.9676L52.9679 52.5393C52.0717 53.6732 50.7077 54.3409 49.2596 54.354L42.2687 54.4116L27.2068 64.3334C25.8507 65.2263 24.2607 65.7029 22.6365 65.7029H22.0267C16.3736 65.7029 12.4419 60.0992 14.3867 54.8096L14.4472 54.6447C15.4012 52.0523 17.5379 50.1224 20.1765 49.4468L20.1818 49.4442Z" fill="#F3F4F6"/>
<path d="M22.6388 66.0377H22.0291C19.2222 66.0377 16.6913 64.7232 15.0829 62.4293C13.4745 60.138 13.1065 57.3152 14.0711 54.6888L14.1315 54.5238C15.1171 51.8424 17.3457 49.8208 20.0948 49.1138L42.4603 43.3739L43.2461 45.4321C43.3749 45.7699 43.7034 45.9951 44.0661 45.9951H48.35C48.7757 45.9951 49.1647 45.728 49.3145 45.3326L50.71 41.6797H51.1095C52.3973 41.6797 53.4617 42.6459 53.6115 43.8898C54.6207 43.9474 55.4223 44.7801 55.4223 45.7987V46.1496C55.7193 46.2177 55.9926 46.3722 56.2029 46.6C56.4893 46.909 56.6365 47.328 56.605 47.7469C56.5655 48.268 56.3737 48.7603 56.0504 49.1714L53.233 52.7432C52.2685 53.9661 50.8204 54.6731 49.2619 54.6862L42.3709 54.7438L27.3931 64.6106C25.9766 65.5428 24.3313 66.0351 22.6362 66.0351L22.6388 66.0377ZM20.2656 49.7685C17.7321 50.4179 15.6769 52.2849 14.7675 54.7569L14.7071 54.9218C13.8188 57.3388 14.1578 59.9338 15.6374 62.0444C17.1171 64.1549 19.4482 65.3647 22.0291 65.3647H22.6388C24.2026 65.3647 25.719 64.9091 27.0226 64.0502L42.1686 54.0734L49.2593 54.0158C50.6128 54.0053 51.869 53.39 52.7048 52.3294L55.5222 48.7577C55.764 48.4513 55.9059 48.0847 55.9348 47.6972C55.9532 47.4589 55.8717 47.2311 55.7114 47.0582C55.5484 46.8828 55.3277 46.7859 55.0885 46.7859H54.7521V45.8013C54.7521 45.1179 54.1949 44.5601 53.5064 44.5601H52.9571V44.1883C52.9571 43.1985 52.166 42.3867 51.1805 42.3527L49.9531 45.5709C49.7034 46.2282 49.0622 46.6681 48.3552 46.6681H44.0713C43.4301 46.6681 42.8466 46.2674 42.6206 45.6704L42.0503 44.1752L20.2682 49.7659L20.2656 49.7685Z" fill="#5798F7"/>
<path d="M52.9937 44.0826L51.2886 47.627L51.8976 47.9178L53.6028 44.3735L52.9937 44.0826Z" fill="#5798F7"/>
<path d="M54.7719 46.192L53.0668 49.7363L53.6759 50.0272L55.381 46.4829L54.7719 46.192Z" fill="#5798F7"/>
<path d="M55.3357 30.6636C53.9481 33.3398 50.4316 35.2409 46.3107 35.2409C42.1898 35.2409 38.5892 33.2953 37.2383 30.5668C38.4 30.098 39.5695 29.7 40.7443 29.3805C41.5669 29.1553 42.1556 28.4326 42.2108 27.5842L42.4473 23.8789H49.5617L49.7956 27.5397C49.8508 28.409 50.4684 29.1422 51.3173 29.3517C52.6629 29.6817 54.0059 30.1242 55.3357 30.6636Z" fill="#F3F4F6"/>
<path d="M46.3132 35.5789C42.1476 35.5789 38.3788 33.6255 36.936 30.7188C36.8939 30.6351 36.8887 30.5382 36.9228 30.4491C36.957 30.3601 37.0253 30.292 37.112 30.258C38.2868 29.784 39.48 29.3808 40.6548 29.0587C41.3381 28.8728 41.8296 28.2705 41.8742 27.5635L42.1108 23.8582C42.1213 23.6801 42.2685 23.5439 42.4472 23.5439H49.5616C49.7403 23.5439 49.8875 23.6827 49.898 23.8582L50.1319 27.5189C50.1792 28.2443 50.6864 28.8492 51.3986 29.0246C52.7416 29.3546 54.1109 29.8023 55.4644 30.3522C55.5511 30.3889 55.6194 30.4596 55.6536 30.546C55.6851 30.6351 55.6799 30.7319 55.6378 30.8157C54.9151 32.2114 53.6588 33.3977 52.0057 34.2539C50.3316 35.1207 48.3631 35.5763 46.3132 35.5763V35.5789ZM37.7139 30.7424C39.1594 33.2458 42.5549 34.906 46.3132 34.906C50.0714 34.906 53.3829 33.2824 54.8573 30.8341C53.651 30.3601 52.4368 29.9726 51.241 29.6793C50.2423 29.4331 49.5274 28.5821 49.4617 27.5635L49.2462 24.2169H42.7652L42.547 27.608C42.484 28.6004 41.7954 29.4436 40.8335 29.7081C39.8006 29.9909 38.752 30.3392 37.7139 30.745V30.7424Z" fill="#5798F7"/>
<path d="M51.7588 23.2712C51.4014 24.2218 50.5367 24.7769 49.8271 24.5124C49.7272 24.4758 49.6353 24.4234 49.5538 24.3579L49.517 24.7926C49.3593 26.6125 47.8324 28.0108 45.9979 28.0108C44.1635 28.0108 42.6365 26.6125 42.4788 24.7926L42.4473 24.4208C42.3895 24.4574 42.329 24.4862 42.2633 24.5098C41.5537 24.7743 40.6891 24.2191 40.3316 23.2686C39.9742 22.3181 40.258 21.3335 40.9676 21.069C41.3619 20.9224 41.8008 21.0271 42.1766 21.3125L42.2449 20.0216C42.2738 19.4664 42.7364 19.0317 43.2935 19.0317H48.6944C49.2542 19.0317 49.7167 19.469 49.743 20.0268L49.8087 21.3989C50.2056 21.0507 50.6918 20.9093 51.1228 21.069C51.8324 21.3335 52.1162 22.3207 51.7588 23.2686V23.2712Z" fill="#F3F4F6"/>
<path d="M45.9953 28.349C43.9953 28.349 42.3527 26.8669 42.145 24.8925C41.764 24.9632 41.3566 24.8742 40.9781 24.6307C40.5524 24.3583 40.2081 23.9158 40.011 23.3894C39.8139 22.8631 39.7797 22.3054 39.9216 21.8209C40.0714 21.2998 40.4 20.9227 40.8467 20.7552C41.17 20.6347 41.5248 20.6399 41.8665 20.763L41.9059 20.0036C41.9453 19.2704 42.5524 18.6943 43.2909 18.6943H48.6917C49.4329 18.6943 50.0426 19.273 50.0768 20.0115L50.1136 20.8049C50.4868 20.6426 50.881 20.6216 51.2358 20.7552C52.1189 21.0851 52.492 22.2661 52.0689 23.3894C51.8718 23.9158 51.5275 24.3583 51.1018 24.6307C50.6918 24.8951 50.2502 24.9789 49.8402 24.8716C49.6458 26.8564 47.9979 28.349 45.99 28.349H45.9953ZM42.7337 23.8477L42.8126 24.7642C42.9571 26.4244 44.3238 27.6734 45.9953 27.6734C47.6668 27.6734 49.036 26.4218 49.178 24.7642L49.2699 23.7089L49.7614 24.0912C49.8166 24.1357 49.8797 24.1698 49.9454 24.196C50.1845 24.285 50.4684 24.2379 50.7417 24.0624C51.0466 23.866 51.2936 23.5439 51.4434 23.1512C51.7299 22.3892 51.5301 21.58 51.0045 21.3836C50.7102 21.2736 50.3475 21.3731 50.0321 21.6507L49.5065 22.1142L49.4066 20.0429C49.3882 19.6632 49.0755 19.3673 48.6944 19.3673H43.2935C42.9151 19.3673 42.6023 19.6632 42.5813 20.0403L42.4788 21.9676L41.9716 21.5826C41.6746 21.3574 41.354 21.2867 41.0859 21.3862C40.8441 21.4753 40.6628 21.6978 40.5734 22.0068C40.4735 22.3525 40.4998 22.761 40.647 23.1538C40.7942 23.5466 41.0438 23.8713 41.3487 24.065C41.622 24.2405 41.9033 24.2876 42.145 24.1986C42.1871 24.1829 42.2291 24.1619 42.2686 24.1384L42.7364 23.8503L42.7337 23.8477Z" fill="#5798F7"/>
<path d="M60.3449 10.2385C60.3449 11.1472 59.6038 11.8856 58.6919 11.8856H58.6288L54.1057 11.794C54.0689 11.794 54.0322 11.794 53.9927 11.794C52.0085 11.794 50.1898 12.8519 49.2069 14.5409C49.0255 14.8499 48.6918 15.0384 48.3317 15.0384H48.2213C47.7614 15.0384 47.3567 14.7294 47.2384 14.2869C47.0045 13.4096 46.8915 12.5324 46.8915 11.6735C46.8915 7.89753 49.0387 4.45148 52.337 2.7337C52.2792 2.21522 51.835 1.81196 51.3015 1.81196V1.1416C52.1031 1.1416 52.7785 1.6915 52.9651 2.43518C53.6537 2.13404 54.3869 1.90884 55.1544 1.76482C55.496 1.67317 55.8535 1.62342 56.224 1.62342C58.4317 1.6208 60.2319 3.32026 60.3397 5.51725C60.3975 6.66418 59.9796 7.71423 59.2648 8.49195C58.5841 9.12565 57.6721 9.5132 56.6708 9.5132V10.1312C57.8403 10.1312 58.9047 9.67555 59.6984 8.93449C60.0927 9.23563 60.3449 9.70959 60.3449 10.2412V10.2385Z" fill="#FFD14C"/>
<path d="M48.0059 17.1047C47.2937 17.1047 46.7549 16.7407 46.7549 16.2589C46.7549 15.7771 47.291 15.4131 48.0059 15.4131C48.7207 15.4131 49.2569 15.7771 49.2569 16.2589C49.2569 16.7407 48.7207 17.1047 48.0059 17.1047ZM48.0059 16.018C47.5906 16.018 47.362 16.1987 47.362 16.2589C47.362 16.3191 47.5906 16.4998 48.0059 16.4998C48.4211 16.4998 48.6498 16.3191 48.6498 16.2589C48.6498 16.1987 48.4211 16.018 48.0059 16.018Z" fill="#5798F7"/>
<path d="M48.8468 17.7958C49.8271 18.0969 50.429 19.0763 50.2503 20.0818L50.0689 21.1135C50.0164 21.4225 49.6353 21.543 49.4145 21.3178C48.994 20.8909 48.3606 20.2232 47.651 19.4036C46.8757 20.4851 44.8994 21.3937 42.5367 21.1476C40.0031 20.8857 37.9611 19.4088 37.9611 17.9896C37.9611 16.5703 39.4959 15.2322 42.3816 16.0021L48.8495 17.7932L48.8468 17.7958Z" fill="#FFD14C"/>
<path d="M49.5065 22.4308L48.8731 22.1952C49.0702 21.6688 49.4145 21.2263 49.8403 20.9539C50.2976 20.6607 50.7943 20.59 51.2384 20.7576L51.0019 21.3886C50.7627 21.2996 50.4789 21.3467 50.2056 21.5222C49.9007 21.7186 49.651 22.0407 49.5039 22.4334L49.5065 22.4308Z" fill="#5798F7"/>
<path d="M42.5814 22.4308C42.4342 22.038 42.1845 21.7133 41.8797 21.5196C41.6063 21.3441 41.3251 21.297 41.0833 21.386L40.8468 20.7549C41.2936 20.59 41.7903 20.658 42.245 20.9513C42.6707 21.2237 43.015 21.6662 43.2121 22.1925L42.5787 22.4282L42.5814 22.4308Z" fill="#5798F7"/>
<path d="M44.2318 24.688C44.2318 25.2327 43.7877 25.6752 43.241 25.6752C43.1543 25.6752 43.0676 25.6647 42.9861 25.6412C42.881 25.3662 42.8126 25.0729 42.7864 24.7744L42.7075 23.8684C42.8573 23.7794 43.0544 23.7008 43.241 23.7008C43.7877 23.7008 44.2318 24.1433 44.2318 24.688Z" fill="#A9D0FF"/>
<path d="M49.2936 23.7663L49.2043 24.7692C49.178 25.0809 49.1044 25.3846 48.9914 25.6727C48.9704 25.6727 48.9493 25.6727 48.9283 25.6727C48.3817 25.6727 47.9375 25.2301 47.9375 24.6854C47.9375 24.1408 48.3817 23.6982 48.9283 23.6982C49.0518 23.6982 49.1832 23.7244 49.291 23.7637L49.2936 23.7663Z" fill="#A9D0FF"/>
<path d="M46.1688 24.8504H45.4408C45.3514 24.8504 45.2673 24.8112 45.2121 24.7405C45.1569 24.6698 45.1385 24.5807 45.1569 24.4943L45.7193 22.1795C45.7561 22.025 45.9138 21.9307 46.0689 21.9674C46.224 22.004 46.3186 22.1612 46.2818 22.3156L45.8061 24.2743H46.1661C46.3264 24.2743 46.4552 24.4027 46.4552 24.5624C46.4552 24.7221 46.3264 24.8504 46.1661 24.8504H46.1688Z" fill="#5798F7"/>
<path d="M46.3475 25.8192C46.2791 25.8192 46.2082 25.8113 46.1399 25.7982C45.9822 25.7668 45.8823 25.6149 45.9138 25.4578C45.9454 25.3007 46.0978 25.2012 46.2555 25.2326C46.5025 25.2824 46.7443 25.1226 46.7943 24.8765C46.8258 24.7194 46.9782 24.6199 47.1359 24.6513C47.2936 24.6827 47.3935 24.8346 47.3619 24.9917C47.3067 25.2614 47.1491 25.4945 46.9204 25.6464C46.7496 25.759 46.5498 25.8192 46.3501 25.8192H46.3475Z" fill="#5798F7"/>
<path d="M44.4839 23.6141C44.6552 23.6141 44.7941 23.4757 44.7941 23.3051C44.7941 23.1344 44.6552 22.9961 44.4839 22.9961C44.3127 22.9961 44.1738 23.1344 44.1738 23.3051C44.1738 23.4757 44.3127 23.6141 44.4839 23.6141Z" fill="#5798F7"/>
<path d="M47.2724 23.6141C47.4437 23.6141 47.5825 23.4757 47.5825 23.3051C47.5825 23.1344 47.4437 22.9961 47.2724 22.9961C47.1011 22.9961 46.9623 23.1344 46.9623 23.3051C46.9623 23.4757 47.1011 23.6141 47.2724 23.6141Z" fill="#5798F7"/>
<path d="M20.568 17.5209L20.5627 17.513C20.4392 17.2669 20.0214 17.2224 19.6298 17.4162C20.0214 17.2224 20.2395 16.8663 20.1186 16.6175L20.1133 16.6096C19.9898 16.3635 19.5719 16.319 19.1803 16.5128C19.5719 16.319 19.7901 15.9629 19.6692 15.7141L19.6639 15.7062C19.5404 15.4601 19.1225 15.4156 18.7309 15.6093C19.1225 15.4156 19.3407 15.0594 19.2198 14.8107L19.2145 14.8028C19.1173 14.609 18.8387 14.5436 18.5338 14.6169L18.1527 13.8523C17.9293 13.4045 17.9793 12.8677 18.2841 12.4723C19.4957 10.9116 19.7848 8.74081 18.8466 6.85544C18.7625 6.68523 18.6679 6.52026 18.568 6.36314C18.5338 6.31077 18.497 6.26364 18.4629 6.21388C18.3919 6.11176 18.3236 6.00963 18.2474 5.91275C18.2027 5.85514 18.1527 5.80277 18.1054 5.74778C18.0345 5.66398 17.9635 5.58281 17.8873 5.50425C17.8321 5.44926 17.7743 5.39951 17.7191 5.34452C17.6429 5.27381 17.5693 5.20311 17.4904 5.13765C17.43 5.08789 17.3669 5.04076 17.3038 4.99363C17.225 4.9334 17.1462 4.87317 17.0621 4.81818C16.9964 4.77366 16.9254 4.73177 16.8571 4.68987C16.773 4.64012 16.6915 4.59036 16.6048 4.54323C16.5338 4.50395 16.4602 4.46991 16.3866 4.43325C16.2999 4.39135 16.2158 4.35207 16.1264 4.31541C16.0502 4.28399 15.9714 4.25519 15.8952 4.22638C15.8058 4.19496 15.7191 4.16354 15.6297 4.13735C15.5509 4.11378 15.4694 4.09022 15.3879 4.06927C15.2986 4.0457 15.2066 4.02737 15.1146 4.00904C15.0305 3.99333 14.949 3.97762 14.8649 3.96452C14.7729 3.95143 14.681 3.94096 14.589 3.93048C14.5049 3.92263 14.4181 3.91477 14.334 3.90953C14.2421 3.9043 14.1501 3.9043 14.0581 3.9043C13.9714 3.9043 13.8846 3.9043 13.7979 3.90953C13.7059 3.91477 13.6139 3.92525 13.5219 3.9331C13.4352 3.94096 13.3459 3.94881 13.2591 3.96452C13.1671 3.97762 13.0752 3.99857 12.9832 4.01951C12.8964 4.03784 12.8097 4.05356 12.723 4.07712C12.631 4.10069 12.539 4.13211 12.447 4.16354C12.3629 4.18972 12.2762 4.21329 12.1921 4.24733C12.0975 4.28399 12.0055 4.32851 11.9109 4.36779C11.832 4.40183 11.7506 4.43325 11.6744 4.47253H11.6691C11.5009 4.56156 11.3327 4.65321 11.1698 4.75795C9.14609 6.05415 8.23675 8.6125 9.00417 10.8854C9.75844 13.1217 11.769 14.4572 13.8978 14.5279C14.3814 14.5436 14.8176 14.8238 15.0331 15.2558L15.6928 16.5808L17.2986 15.7874L18.8623 18.9271L20.0871 18.3222C20.4786 18.1284 20.6968 17.7723 20.5759 17.5235L20.568 17.5209Z" fill="#FFD14C"/>
<path d="M15.9136 10.3175C15.8689 10.5793 15.7769 10.9616 15.5798 11.0454C15.4826 11.0873 15.3748 11.035 15.2855 10.9616C14.4418 10.2808 14.8334 10.7103 14.5207 11.2314C14.3393 11.5325 14.1186 11.5011 13.8952 11.4173C13.6928 11.3518 13.6902 11.5011 13.7165 11.5561L16.6915 16.0574L17.727 15.5468L16.0844 10.2913C16.0687 10.2101 15.9556 10.2075 15.9136 10.3175ZM17.4931 15.3032L16.6521 15.7196L13.9188 11.543C13.9188 11.543 14.3262 11.7053 14.5706 11.3623C14.7546 11.1083 14.7178 10.7731 14.7861 10.7469C14.8518 10.7207 14.9832 10.8831 15.317 11.1135C15.8058 11.4513 15.9898 10.5453 15.9898 10.5453L17.4931 15.3059V15.3032Z" fill="white"/>
<path d="M16.6626 16.1595L13.6481 11.6005C13.6139 11.5325 13.6113 11.4382 13.6665 11.3753C13.7033 11.3334 13.7795 11.2915 13.9214 11.3387C14.1501 11.4277 14.3078 11.4277 14.4523 11.1894C14.5469 11.0323 14.5706 10.8831 14.589 10.7731C14.6074 10.6631 14.6232 10.5714 14.7073 10.5374C14.8097 10.4981 14.9201 10.5636 15.3354 10.8988C15.3958 10.9459 15.4799 10.9983 15.5456 10.9695C15.6639 10.9197 15.769 10.6788 15.8321 10.3043L15.8374 10.2886C15.8768 10.1865 15.9635 10.1446 16.0292 10.1498C16.0975 10.1551 16.1501 10.2048 16.1632 10.2729L17.8242 15.5834L16.6626 16.1569V16.1595ZM16.6311 15.8165L16.7178 15.95L17.6245 15.5022L17.5772 15.3503L16.6311 15.8191V15.8165ZM14.0923 11.6581L16.6784 15.6122L17.3906 15.2587L15.9872 10.8176C15.9215 10.9826 15.8137 11.1737 15.6481 11.2418C15.5272 11.2889 15.4011 11.268 15.267 11.1763C15.1278 11.0794 15.0226 10.993 14.9438 10.9302C14.9017 10.8961 14.8571 10.8595 14.8255 10.8385C14.8203 10.8595 14.8176 10.8857 14.8124 10.9119C14.7914 11.0428 14.7572 11.2392 14.6337 11.4068C14.4812 11.6189 14.2605 11.666 14.0896 11.6581H14.0923ZM13.7848 11.4853C13.7848 11.4853 13.7848 11.5089 13.7874 11.5167L15.5325 14.1563L13.7848 11.4827V11.4853ZM16.0029 10.3174L16.2605 11.1371L16.0029 10.3148V10.3174Z" fill="white"/>
<path d="M11.9266 7.8769C12.2394 8.50536 11.9818 9.26736 11.3511 9.57897C10.7203 9.89058 9.95553 9.63396 9.64278 9.0055C9.33003 8.37705 9.58759 7.61504 10.2183 7.30343C10.8491 6.99182 11.6139 7.24844 11.9266 7.8769Z" fill="white"/>
<path d="M18.7335 15.6095L16.2289 16.848C15.8373 17.0418 15.4194 16.9999 15.2959 16.7512L15.2907 16.7433C15.1671 16.4972 15.3853 16.1384 15.7769 15.9446L18.2815 14.706C18.6731 14.5123 19.091 14.5542 19.2145 14.8029L19.2197 14.8108C19.3433 15.0569 19.1251 15.4157 18.7335 15.6095Z" fill="#83B7FF"/>
<path d="M19.183 16.5128L16.6784 17.7514C16.2868 17.9451 15.8689 17.9032 15.7454 17.6545L15.7401 17.6466C15.6166 17.4005 15.8347 17.0417 16.2263 16.848L18.731 15.6094C19.1225 15.4156 19.5404 15.4575 19.6639 15.7063L19.6692 15.7141C19.7927 15.9603 19.5746 16.319 19.183 16.5128Z" fill="#83B7FF"/>
<path d="M19.6324 17.4161L17.1278 18.6547C16.7362 18.8485 16.3183 18.8066 16.1948 18.5578L16.1895 18.5499C16.066 18.3038 16.2841 17.9451 16.6757 17.7513L19.1804 16.5127C19.572 16.3189 19.9898 16.3608 20.1133 16.6096L20.1186 16.6174C20.2421 16.8636 20.024 17.2223 19.6324 17.4161Z" fill="#83B7FF"/>
<path d="M20.0819 18.3199L17.5773 19.5585C17.1857 19.7523 16.7678 19.7104 16.6443 19.4616L16.6391 19.4538C16.5155 19.2076 16.7337 18.8489 17.1253 18.6551L19.6299 17.4165C20.0215 17.2227 20.4393 17.2646 20.5629 17.5134L20.5681 17.5212C20.6917 17.7674 20.4735 18.1261 20.0819 18.3199Z" fill="#83B7FF"/>
<path d="M67.1151 32.7768V15.7508C67.1151 14.3682 68.2452 13.2422 69.6329 13.2422H83.9431C85.3308 13.2422 86.4609 14.3682 86.4609 15.7508V26.6519C86.4609 28.0345 85.3308 29.1605 83.9431 29.1605H70.5291L67.1177 32.7742L67.1151 32.7768ZM69.6329 14.0304C68.6789 14.0304 67.9036 14.8029 67.9036 15.7534V30.7971L70.1874 28.3776H83.9431C84.8971 28.3776 85.6724 27.6051 85.6724 26.6545V15.7508C85.6724 14.8002 84.8971 14.0278 83.9431 14.0278H69.6329V14.0304Z" fill="#83B7FF"/>
</g>
<defs>
<clipPath id="clip0_3496_25735">
<rect width="87" height="68" fill="white"/>
</clipPath>
</defs>
</svg>
