<svg width="112" height="74" viewBox="0 0 112 74" fill="none" xmlns="http://www.w3.org/2000/svg">
<g clipPath="url(#clip0_3496_25876)">
<path d="M20.8193 74.9597L38.2003 38L19.2036 38.2738L17.1399 39.6502L1 74.9597H20.8193Z" fill="#F3F4F6"/>
<path d="M69.813 45.3387L83.4168 18.1093L75.8719 18.0063L77.3163 14.9697L95.9409 4.34766H96.9544L105.478 14.2639L106.908 16.1878L106.448 17.4713L106.032 17.8707L98.8786 17.6597L83.1132 50.6811L75.8866 65.4172L73.3554 61.509L69.813 45.3387Z" fill="#F3F4F6"/>
<path d="M59.9597 66.3567C59.9132 66.3567 59.8667 66.3466 59.8226 66.324C59.6733 66.2462 59.6121 66.0603 59.688 65.9046L83.0006 18.2852H78.1804C77.3726 18.2852 76.7165 17.7678 76.5084 16.9691C76.3003 16.1703 76.6161 15.3842 77.3163 14.9723L95.3485 4.31258C96.056 3.89313 96.9642 4.04383 97.5076 4.67175L106.739 15.3314C107.197 15.8614 107.307 16.5923 107.023 17.2378C106.739 17.8833 106.135 18.2852 105.444 18.2852H99.2506L90.2933 36.5804C90.2174 36.7337 90.0362 36.7964 89.8845 36.7186C89.7351 36.6407 89.6739 36.4549 89.7498 36.2991L98.8736 17.6598H105.442C105.89 17.6598 106.281 17.3986 106.465 16.9791C106.649 16.5596 106.578 16.0849 106.279 15.7408L97.0474 5.08116C96.6949 4.67427 96.1074 4.57631 95.6471 4.84757L77.6149 15.5072C77.0641 15.8338 76.9882 16.4089 77.091 16.8033C77.1939 17.1976 77.539 17.6573 78.1755 17.6573H83.9823L60.2265 66.1809C60.1727 66.2889 60.065 66.3517 59.9548 66.3517L59.9597 66.3567Z" fill="#FFD14C"/>
<path d="M83.4168 50.2492C83.3703 50.2492 83.3238 50.2391 83.2797 50.2165C83.1304 50.1386 83.0692 49.9528 83.1451 49.7971L86.1757 43.6057C86.2516 43.4525 86.4328 43.3897 86.5845 43.4676C86.7339 43.5454 86.7951 43.7313 86.7192 43.887L83.6885 50.0784C83.6347 50.1864 83.5269 50.2492 83.4168 50.2492Z" fill="#FFD14C"/>
<path d="M84.7803 41.7671H112C112 38.5245 109.373 37.4545 107.023 37.4545C106.259 37.4545 105.532 37.6479 104.879 37.992C104.994 37.5549 105.057 37.0928 105.057 36.6131C105.057 33.9858 103.185 32.4034 100.874 32.4034C98.8247 32.4034 97.1184 33.5337 96.761 35.7465C96.3473 35.6235 95.9115 35.5556 95.4636 35.5556C93.2114 35.5556 91.2921 37.2259 90.5748 39.5618C90.024 39.2956 89.4169 39.1474 88.7829 39.1474C87.0864 39.1474 85.6029 40.1973 84.7803 41.7671Z" fill="#B6DAFF"/>
<path d="M30.4339 34.458H4.64145C4.5876 34.1717 4.56067 33.8778 4.56067 33.5764C4.56067 30.9014 6.74187 28.7338 9.43226 28.7338C10.0614 28.7338 10.6636 28.8519 11.2144 29.0679C12.1153 26.4306 14.4874 24.5493 17.2758 24.5493C20.8352 24.5493 23.7214 27.6211 23.7214 31.4138C23.7214 31.768 23.6969 32.1146 23.648 32.4537C24.309 31.3887 25.4448 30.6854 26.735 30.6854C28.7252 30.6854 30.3507 32.3607 30.4315 34.458H30.4339Z" fill="#B6DAFF"/>
<path d="M92.6948 50.6385C92.8148 50.7615 92.8148 50.9574 92.6948 51.0805C92.6361 51.1408 92.5577 51.1735 92.4794 51.1735C92.401 51.1735 92.3227 51.1433 92.264 51.0805L91.7841 50.5882L91.3019 51.0805C91.2431 51.1408 91.1648 51.1735 91.0865 51.1735C91.0081 51.1735 90.9298 51.1433 90.871 51.0805C90.7511 50.96 90.7511 50.7615 90.871 50.6385L91.3508 50.1462L90.871 49.6539C90.7511 49.5308 90.7511 49.3349 90.871 49.2118C90.9885 49.0887 91.1819 49.0887 91.2994 49.2118L91.7817 49.7041L92.2615 49.2118C92.3815 49.0887 92.5724 49.0887 92.6924 49.2118C92.8123 49.3349 92.8123 49.5308 92.6924 49.6539L92.2125 50.1462L92.6924 50.6385H92.6948Z" fill="#B6DAFF"/>
<path d="M54.011 2.85833C54.1309 2.97889 54.1309 3.17731 54.011 3.30039C53.9522 3.36067 53.8739 3.39081 53.7955 3.39081C53.7172 3.39081 53.6389 3.36067 53.5801 3.30039L53.1003 2.80809L52.6205 3.30039C52.5617 3.36067 52.4834 3.39081 52.4051 3.39081C52.3267 3.39081 52.2484 3.36067 52.1896 3.30039C52.0697 3.17731 52.0697 2.9814 52.1896 2.85833L52.6694 2.36603L52.1896 1.87123C52.0697 1.75066 52.0697 1.55224 52.1896 1.42917C52.3071 1.3086 52.5005 1.3086 52.6205 1.42917L53.1003 1.92146L53.5801 1.42917C53.7001 1.3086 53.891 1.3086 54.011 1.42917C54.1309 1.55224 54.1309 1.74815 54.011 1.87123L53.5312 2.36603L54.011 2.85833Z" fill="#B6DAFF"/>
<path d="M36.9237 71.3726C37.0412 71.4932 37.0412 71.6916 36.9237 71.8147C36.8649 71.875 36.7866 71.9051 36.7083 71.9051C36.6299 71.9051 36.5516 71.875 36.4928 71.8147L36.013 71.3224L35.5308 71.8147C35.472 71.875 35.3937 71.9051 35.3153 71.9051C35.237 71.9051 35.1587 71.875 35.0999 71.8147C34.98 71.6916 34.98 71.4957 35.0999 71.3726L35.5822 70.8803L35.0999 70.3855C34.98 70.2649 34.98 70.0665 35.0999 69.9434C35.2199 69.8229 35.4108 69.8229 35.5308 69.9434L36.013 70.4383L36.4928 69.9434C36.6104 69.8229 36.8037 69.8229 36.9237 69.9434C37.0412 70.0665 37.0412 70.2624 36.9237 70.3855L36.4439 70.8803L36.9237 71.3726Z" fill="#B6DAFF"/>
<path d="M26.3359 23.1453C26.4559 23.2659 26.4559 23.4643 26.3359 23.5874C26.2772 23.6477 26.1988 23.6778 26.1205 23.6778C26.0422 23.6778 25.9638 23.6477 25.9051 23.5874L25.4253 23.0951L24.9454 23.5874C24.8867 23.6477 24.8084 23.6778 24.73 23.6778C24.6517 23.6778 24.5733 23.6477 24.5146 23.5874C24.3946 23.4643 24.3946 23.2684 24.5146 23.1453L24.9944 22.653L24.5146 22.1582C24.3946 22.0377 24.3946 21.8392 24.5146 21.7162C24.6321 21.5956 24.8255 21.5956 24.9454 21.7162L25.4253 22.2084L25.9051 21.7162C26.025 21.5956 26.216 21.5956 26.3359 21.7162C26.4559 21.8392 26.4559 22.0351 26.3359 22.1582L25.8561 22.653L26.3359 23.1453Z" fill="#B6DAFF"/>
<path d="M80.2245 55.6644L72.9637 71.9905L73.255 74.1329H61.289L59.4456 67.0047L59.1445 65.7212H45.8003L54.7895 44.54H73.5243C79.0936 44.54 82.7166 50.5531 80.227 55.6644H80.2245Z" fill="#83B7FF"/>
<path d="M73.255 74.4343C73.1105 74.4343 72.9857 74.3263 72.9661 74.1756L69.8865 51.3066C69.6441 49.5157 68.78 47.8756 67.4531 46.6875C66.1238 45.4995 64.4225 44.8465 62.6599 44.8465H55.5753C55.4137 44.8465 55.2815 44.7108 55.2815 44.5451C55.2815 44.3793 55.4137 44.2437 55.5753 44.2437H62.6599C64.5644 44.2437 66.4029 44.9494 67.8375 46.2329C69.272 47.5164 70.2072 49.2897 70.4666 51.2237L73.5463 74.0927C73.5683 74.256 73.4557 74.4092 73.2966 74.4318C73.2819 74.4318 73.2696 74.4343 73.2574 74.4343H73.255Z" fill="#F3F4F6"/>
<path d="M58.6647 64.0158C58.5251 64.0158 58.4027 63.9128 58.3758 63.7697L56.9168 55.4635C56.8874 55.3002 56.9951 55.1445 57.1542 55.1143C57.3133 55.0842 57.4651 55.1947 57.4945 55.358L58.9535 63.6642C58.9829 63.8274 58.8752 63.9832 58.7161 64.0133C58.6989 64.0158 58.6818 64.0183 58.6647 64.0183V64.0158Z" fill="#F3F4F6"/>
<path d="M57.5581 57.7039C57.5092 57.7039 57.4602 57.6914 57.4161 57.6663L55.9204 56.8123C55.7784 56.7319 55.7295 56.5486 55.8078 56.4029C55.8861 56.2572 56.0648 56.207 56.2068 56.2873L57.7026 57.1413C57.8446 57.2217 57.8935 57.405 57.8152 57.5507C57.7613 57.6487 57.661 57.7039 57.5581 57.7039Z" fill="#F3F4F6"/>
<path d="M73.9502 77.4409H61.9524L61.2498 73.8667H73.4851L73.9502 77.4409ZM62.3784 76.9059H73.3553L73.0298 74.3992H61.8888L62.3808 76.9059H62.3784Z" fill="#5798F7"/>
<path d="M61.8178 9.24801C63.7395 9.24801 65.294 10.853 65.2842 12.8247V13.3999L64.6526 13.4576C64.7187 13.7816 64.753 14.1157 64.753 14.4548C64.753 17.3332 62.327 19.6641 59.3355 19.6641C58.8116 19.6641 58.3048 19.5937 57.8275 19.4581L56.4149 23.2709L49.372 30.0801C47.2691 32.1146 44.5444 33.1619 41.8002 33.1619C39.805 33.1619 37.8001 32.6094 36.0106 31.4766C33.0142 29.5803 31.3202 26.4055 31.117 23.1026C31.0998 23.7933 31.1488 24.4966 31.2663 25.1973C31.7951 28.3822 33.5797 31.1451 36.1648 32.7802C36.3019 32.8681 36.346 33.0539 36.2603 33.1946C36.2064 33.2875 36.1085 33.3378 36.0106 33.3378C35.9592 33.3378 35.9053 33.3227 35.8564 33.2926C33.1293 31.567 31.2443 28.6534 30.6886 25.2978C30.1794 22.236 30.8917 19.1768 32.6396 16.8685L35.4402 13.1864L37.1098 14.4648C40.7891 17.283 45.4943 17.7376 49.4723 16.0497C48.7159 16.2959 47.9325 16.4641 47.1296 16.547C46.7428 16.5872 46.356 16.6073 45.9716 16.6073C43.2812 16.6073 40.679 15.6353 38.5394 13.8118C38.4195 13.7088 38.4023 13.5254 38.5027 13.4024C38.6031 13.2793 38.7818 13.2617 38.9017 13.3647C41.2298 15.3489 44.1307 16.2758 47.0732 15.9693C50.0599 15.6604 52.8555 14.0579 54.8188 11.5713C55.7442 10.2326 57.2962 9.32588 59.0711 9.2455L61.8178 9.24048V9.24801Z" fill="#FFD14C"/>
<path d="M59.1127 15.889C59.4382 15.8212 59.7198 15.6404 59.9181 15.3917C60.1188 15.1431 60.2363 14.8241 60.2363 14.4825L60.3073 13.8621L64.4934 13.4728L64.5057 13.523C64.7113 14.3569 65.0295 14.6884 65.5118 15.0526L65.5265 15.0652C65.6881 15.1883 65.6367 15.4495 65.4433 15.4972L64.8606 15.6429L65.0932 17.8306C65.0932 17.8306 64.5938 18.9533 62.9096 18.6569V24.8232L55.5557 22.3165C55.137 22.1758 55.1199 21.573 55.5287 21.4073C56.7552 20.9074 57.7418 19.8701 58.1751 18.5263L58.6035 17.1926L58.508 17.3257C58.3513 17.5417 58.153 17.715 57.9254 17.8331C57.6634 17.9687 57.3672 18.0315 57.0637 18.0114C56.197 17.9486 55.5361 17.1851 55.5361 16.2959V16.1703C55.5361 15.236 56.2729 14.4825 57.1812 14.4825H57.4064C58.0551 14.4825 58.6451 14.8743 58.9095 15.4821L59.1151 15.8915L59.1127 15.889Z" fill="#F3F4F6"/>
<path d="M63.169 23.5447H62.6476V18.6569C62.6476 18.5791 62.6819 18.5037 62.7406 18.4535C62.7994 18.4033 62.8777 18.3807 62.9536 18.3957C64.207 18.6168 64.7015 17.9813 64.8263 17.7804L64.6036 15.6781C64.5889 15.5449 64.6746 15.4219 64.8018 15.3892L65.3355 15.2561C64.8043 14.8517 64.3073 14.3569 64.2364 13.5004L64.7553 13.4552C64.8067 14.0731 65.1568 14.4574 65.6685 14.8442L65.6856 14.8567C65.8423 14.9748 65.9157 15.1707 65.8765 15.3666C65.8374 15.5625 65.6954 15.7157 65.5069 15.7635L65.147 15.8539L65.3551 17.808C65.36 17.8557 65.3527 17.9034 65.3331 17.9486C65.311 17.9989 64.7921 19.1166 63.1715 18.9684V23.5522L63.169 23.5447Z" fill="#5798F7"/>
<path d="M55.3133 21.7714L55.1542 21.2615C56.4614 20.8345 57.4969 19.7821 57.9253 18.4459L58.0453 18.0717H58.0404C57.732 18.2349 57.3868 18.3053 57.0416 18.2801C56.0502 18.2073 55.2717 17.3357 55.2717 16.2959V16.1678C55.2717 15.0878 56.126 14.2112 57.1787 14.2112H57.4039C58.1555 14.2112 58.8385 14.6658 59.1445 15.3691C59.1445 15.3741 59.1494 15.3791 59.1494 15.3841L59.3109 15.8262L58.8238 16.0146L58.6647 15.5801C58.4394 15.0727 57.9449 14.7462 57.4015 14.7462H57.1762C56.4125 14.7462 55.7907 15.3841 55.7907 16.1678V16.2959C55.7907 17.0569 56.3562 17.6924 57.0759 17.7451C57.328 17.7627 57.5777 17.7125 57.8029 17.597C57.9963 17.4965 58.1653 17.3483 58.2926 17.17L58.388 17.0368C58.4639 16.9314 58.6035 16.8962 58.7185 16.9565C58.8336 17.0168 58.8874 17.1524 58.8458 17.278L58.4174 18.6117C57.9376 20.1112 56.7748 21.2917 55.3084 21.7714H55.3133Z" fill="#5798F7"/>
<path d="M62.8043 18.9257C62.792 18.9257 62.7773 18.9257 62.7651 18.9232C61.404 18.7072 60.7748 17.7502 60.7479 17.71C60.6696 17.587 60.7014 17.4212 60.8213 17.3408C60.9413 17.2604 61.1029 17.2931 61.1812 17.4162C61.2032 17.4513 61.7198 18.2199 62.841 18.3957C62.983 18.4183 63.0809 18.554 63.0588 18.6996C63.0393 18.8328 62.9291 18.9257 62.8018 18.9257H62.8043Z" fill="#5798F7"/>
<path d="M64.8606 15.6454C64.8606 15.6454 64.6207 15.7383 63.5583 15.8413C63.1666 15.879 62.9952 16.3386 63.3208 16.5647C63.5705 16.738 63.8814 16.8636 64.2511 16.8636C64.7529 16.8636 64.9537 16.532 64.9537 16.532L64.8606 15.6454Z" fill="white"/>
<path d="M64.2536 17.1297C63.8717 17.1297 63.5118 17.0142 63.1789 16.7856C62.9488 16.6274 62.8459 16.3637 62.9096 16.0999C62.9806 15.8161 63.2303 15.6026 63.5363 15.575C64.513 15.4796 64.7652 15.3967 64.775 15.3916C64.8509 15.3615 64.9317 15.3715 65.0002 15.4142C65.0687 15.4569 65.1128 15.5323 65.1202 15.6152L65.2132 16.5018C65.2205 16.5621 65.2058 16.6199 65.1765 16.6726C65.0736 16.8434 64.7627 17.1323 64.2536 17.1323V17.1297ZM64.6354 15.9718C64.4298 16.0095 64.0993 16.0572 63.5852 16.1075C63.4873 16.1175 63.4286 16.1778 63.4163 16.2331C63.409 16.2607 63.409 16.3009 63.4702 16.3436C63.715 16.5119 63.9794 16.5973 64.256 16.5973C64.4837 16.5973 64.6183 16.5068 64.6869 16.4466L64.6379 15.9744L64.6354 15.9718Z" fill="#5798F7"/>
<path d="M63.3478 14.9672C63.2033 14.9672 63.0883 14.8466 63.0883 14.7009C63.0883 14.6105 63.0173 14.5352 62.9267 14.5352C62.8361 14.5352 62.7651 14.608 62.7651 14.7009C62.7651 14.8491 62.6476 14.9672 62.5056 14.9672C62.3637 14.9672 62.2462 14.8466 62.2462 14.7009C62.2462 14.3141 62.5522 14.0027 62.9267 14.0027C63.3013 14.0027 63.6073 14.3166 63.6073 14.7009C63.6073 14.8491 63.4898 14.9672 63.3478 14.9672Z" fill="#5798F7"/>
<path d="M57.2081 16.7982C57.0881 16.7982 56.9804 16.7128 56.9535 16.5872C56.9241 16.4441 57.0123 16.3009 57.1542 16.2683L57.3256 16.2306L57.0245 15.9216C56.9217 15.8162 56.9217 15.6479 57.0245 15.5424C57.1273 15.4369 57.2913 15.4369 57.3942 15.5424L58.0331 16.1979C58.1016 16.2683 58.1261 16.3687 58.0992 16.4617C58.0723 16.5546 57.9964 16.6274 57.9033 16.6475L57.2644 16.7907C57.2448 16.7957 57.2277 16.7957 57.2081 16.7957V16.7982Z" fill="#5798F7"/>
<path d="M61.4604 16.8786C61.9403 16.8786 62.3294 16.4794 62.3294 15.987C62.3294 15.4945 61.9403 15.0953 61.4604 15.0953C60.9804 15.0953 60.5913 15.4945 60.5913 15.987C60.5913 16.4794 60.9804 16.8786 61.4604 16.8786Z" fill="#B6DAFF"/>
<path d="M61.36 14.264C61.2376 14.264 61.1396 14.1635 61.1396 14.0379V12.438C61.1396 12.3124 61.2376 12.2119 61.36 12.2119C61.4824 12.2119 61.5803 12.3124 61.5803 12.438V14.0379C61.5803 14.1635 61.4824 14.264 61.36 14.264Z" fill="#F3F4F6"/>
<path d="M64.3907 40.6569L62.9267 37.4318L54.6377 47.2049L54.0355 65.7237H39.6435C32.811 65.7237 28.5319 58.706 31.5209 52.4041L42.9214 28.9322C45.0071 24.5317 49.0831 22.3064 53.8543 22.3064L54.8458 22.3943L55.0024 21.8241C55.0024 21.0329 55.6218 20.3874 56.388 20.3698C57.1543 20.3523 57.8275 21.038 57.8373 21.8467C57.8373 21.9648 57.8471 22.0878 57.8568 22.2084C58.1163 21.8643 58.5203 21.6433 58.9756 21.6433C59.688 21.6433 60.278 22.1833 60.3783 22.8841L60.4493 22.8891C60.6329 22.3038 61.1666 21.8794 61.8006 21.8794C62.5228 21.8794 63.1177 22.4319 63.2058 23.1478C65.5339 23.5471 67.2573 25.8102 67.3699 28.0356L68.4201 23.6476L74.2293 24.0495V38.4215C74.2293 41.3275 71.9453 43.691 69.1129 43.7161C67.0908 43.7337 65.245 42.5381 64.3907 40.6569Z" fill="#B6DAFF"/>
<path d="M54.0844 61.7578C54.0844 61.7578 54.0746 61.7578 54.0697 61.7578C53.9008 61.7503 53.7711 61.6046 53.7809 61.4313L55.235 28.322C55.2962 26.933 54.8433 25.5867 53.9571 24.5318C53.847 24.4012 53.8616 24.2053 53.9889 24.0923C54.1162 23.9792 54.3072 23.9943 54.4173 24.1249C55.4039 25.3004 55.9082 26.8024 55.8397 28.3496L54.3855 61.4589C54.3782 61.6272 54.2435 61.7578 54.082 61.7578H54.0844Z" fill="#FFD14C"/>
<path d="M60.393 23.2658C60.2241 23.2658 60.0895 23.1252 60.0895 22.9544C60.0895 22.3189 59.71 21.8894 59.076 21.8091C58.3122 21.7111 57.9597 22.4043 57.8152 22.8263C57.7589 22.9896 57.5876 23.075 57.4284 23.0172C57.2693 22.9594 57.1861 22.7836 57.2424 22.6203C57.5827 21.6157 58.2975 21.0807 59.1519 21.1912C60.0919 21.3117 60.6966 22.0025 60.6966 22.9544C60.6966 23.1277 60.5595 23.2658 60.393 23.2658Z" fill="#FFD14C"/>
<path d="M63.2156 24.386C63.0467 24.386 62.912 24.2453 62.912 24.0745V23.1904C62.912 22.56 62.4126 22.0476 61.7982 22.0476C61.1837 22.0476 60.6843 22.56 60.6843 23.1904C60.6843 23.3637 60.5472 23.5019 60.3808 23.5019C60.2143 23.5019 60.0772 23.3612 60.0772 23.1904C60.0772 22.2159 60.8483 21.4247 61.7982 21.4247C62.748 21.4247 63.5191 22.2159 63.5191 23.1904V24.0745C63.5191 24.2478 63.3821 24.386 63.2156 24.386Z" fill="#FFD14C"/>
<path d="M57.5288 23.0347C57.4945 23.0347 57.4627 23.0297 57.4284 23.0172C57.2693 22.9594 57.1861 22.7836 57.2424 22.6203L57.5313 21.7714C57.5068 21.1635 57.0172 20.6788 56.4198 20.6788C55.9719 20.6788 55.5679 20.9525 55.3941 21.377L54.951 22.4872C54.8874 22.6454 54.7111 22.7233 54.5544 22.658C54.4002 22.5927 54.3243 22.4118 54.388 22.2511L54.8311 21.1359C55.1028 20.4778 55.7246 20.0533 56.4174 20.0533C57.3672 20.0533 58.1384 20.8445 58.1384 21.8191V21.8718L57.8152 22.8238C57.7712 22.9519 57.6537 23.0322 57.5288 23.0322V23.0347Z" fill="#FFD14C"/>
<path d="M46.1822 36.1509C46.0133 36.1509 45.8786 36.0103 45.8786 35.8395C45.8786 34.9579 45.1785 34.242 44.3217 34.242C44.1528 34.242 44.0181 34.1014 44.0181 33.9306C44.0181 33.7598 44.1552 33.6191 44.3217 33.6191C45.5163 33.6191 46.4882 34.6163 46.4882 35.842C46.4882 36.0153 46.3511 36.1534 46.1846 36.1534L46.1822 36.1509Z" fill="#F3F4F6"/>
<path d="M62.89 38.3989C62.8484 38.3989 62.8043 38.3888 62.7651 38.3712C62.6133 38.3009 62.5448 38.115 62.6133 37.9593C63.3355 36.3267 63.5118 34.468 63.1103 32.7224C63.0711 32.5541 63.1739 32.3858 63.3355 32.3482C63.4995 32.308 63.6635 32.4135 63.7003 32.5792C64.1336 34.458 63.9426 36.4598 63.1641 38.218C63.1127 38.3335 63.0026 38.4014 62.8875 38.4014L62.89 38.3989Z" fill="#F3F4F6"/>
<path d="M65.6954 34.9201C65.6685 34.9201 65.6416 34.9176 65.6171 34.9101C65.4555 34.8649 65.36 34.6941 65.4016 34.5283L67.3503 27.1037C67.3943 26.9379 67.5608 26.84 67.7224 26.8827C67.884 26.9279 67.9794 27.0987 67.9378 27.2645L65.9892 34.689C65.9525 34.8272 65.83 34.9201 65.6954 34.9201Z" fill="#FFD14C"/>
<path d="M51.3793 65.5178C51.3793 65.5178 51.3597 65.5178 51.35 65.5178C48.2312 65.2089 45.8786 62.5515 45.8786 59.3365V32.8129C45.8786 32.6396 46.0157 32.5015 46.1822 32.5015C46.3486 32.5015 46.4857 32.6421 46.4857 32.8129V59.3365C46.4857 62.2275 48.6008 64.6186 51.4063 64.8949C51.5727 64.9125 51.6951 65.0632 51.6804 65.2365C51.6658 65.3973 51.5336 65.5178 51.3793 65.5178Z" fill="#FFD14C"/>
<path d="M60.628 66.9092C61.1935 65.0481 60.1947 63.0688 58.3881 62.4685L51.5091 60.2633C50.7037 60.0045 49.8493 60.4667 49.5996 61.2931C48.9215 63.5385 50.4931 65.8342 52.7796 65.9472L54.1823 66.0151L53.1933 69.5139C53.0293 70.0941 53.3549 70.7019 53.9204 70.8677C54.4051 71.0133 54.9118 70.7873 55.1469 70.3528L55.3035 70.3729C55.3843 70.7521 55.6585 71.0761 56.0502 71.1917C56.5594 71.3424 57.0881 71.0887 57.3085 70.614C57.4309 70.9003 57.9327 71.1615 58.2485 71.257C58.6843 71.3851 59.1372 71.2168 59.3942 70.8677L60.628 66.9117V66.9092Z" fill="#F3F4F6"/>
<path d="M58.6769 71.566C58.5545 71.566 58.4321 71.5484 58.3121 71.5132C58.0698 71.4404 57.7173 71.2796 57.4651 71.0561C57.1322 71.4329 56.6132 71.5961 56.1138 71.4479C55.7613 71.3424 55.47 71.0938 55.306 70.7673C54.9706 71.1214 54.4687 71.2671 53.984 71.1239C53.2814 70.9154 52.8751 70.1594 53.0782 69.4386L54.0673 65.9398C54.1064 65.7991 54.2509 65.7162 54.3904 65.7564C54.5275 65.7966 54.6083 65.9448 54.5691 66.0879L53.5801 69.5867C53.4577 70.0238 53.7025 70.4834 54.1309 70.6115C54.4932 70.7195 54.8751 70.5588 55.0587 70.2222L55.1444 70.0665L55.6585 70.1293L55.6976 70.3151C55.7613 70.614 55.9767 70.8501 56.2607 70.9355C56.6401 71.0486 57.0416 70.8652 57.2105 70.4985L57.4553 69.9736L57.683 70.506C57.7491 70.6618 58.1261 70.9004 58.4566 70.9983C58.7626 71.0888 59.0931 70.9833 59.2963 70.7371L60.5154 66.8264C61.0344 65.1159 60.1066 63.2748 58.4443 62.7198L51.4772 60.4014C51.3401 60.3562 51.2643 60.2055 51.3108 60.0649C51.3548 59.9242 51.5017 59.8489 51.6388 59.8941L58.6059 62.2124C60.5374 62.8554 61.6194 64.9979 61.0148 66.9871L59.7663 70.9883L59.7393 71.0234C59.4847 71.3675 59.0857 71.5635 58.6769 71.5635V71.566Z" fill="#5798F7"/>
<path d="M55.3329 70.6015C55.3084 70.6015 55.2839 70.599 55.2595 70.5914C55.1224 70.5513 55.0416 70.4031 55.0808 70.2599L56.0722 66.7561C56.1971 66.3165 56.1505 65.8494 55.9376 65.445L55.7074 65.0029C55.6389 64.8723 55.6879 64.7115 55.8152 64.6412C55.9425 64.5709 56.0991 64.6211 56.1677 64.7517L56.3978 65.1938C56.672 65.7213 56.7356 66.3291 56.5716 66.9043L55.5801 70.4081C55.5459 70.5261 55.4431 70.6015 55.3305 70.6015H55.3329Z" fill="#5798F7"/>
<path d="M57.4456 70.8803C57.4211 70.8803 57.3942 70.8778 57.3697 70.8678C57.2326 70.8251 57.1542 70.6744 57.1959 70.5337L58.3293 66.7134C58.4542 66.2939 58.4199 65.8443 58.2363 65.45L58.0233 64.9929C57.9621 64.8598 58.016 64.699 58.1457 64.6362C58.2754 64.5734 58.4321 64.6287 58.4933 64.7618L58.7063 65.2189C58.9462 65.7363 58.9903 66.3216 58.8263 66.8691L57.6928 70.6894C57.6585 70.805 57.5557 70.8778 57.4431 70.8778L57.4456 70.8803Z" fill="#5798F7"/>
<path d="M58.7455 71.036C59.0821 71.036 59.355 70.756 59.355 70.4106C59.355 70.0652 59.0821 69.7852 58.7455 69.7852C58.4088 69.7852 58.1359 70.0652 58.1359 70.4106C58.1359 70.756 58.4088 71.036 58.7455 71.036Z" fill="#FFD14C"/>
<path d="M56.5275 70.9607C56.8642 70.9607 57.1371 70.6807 57.1371 70.3353C57.1371 69.9898 56.8642 69.7098 56.5275 69.7098C56.1909 69.7098 55.918 69.9898 55.918 70.3353C55.918 70.6807 56.1909 70.9607 56.5275 70.9607Z" fill="#FFD14C"/>
<path d="M54.4051 70.6115C54.7417 70.6115 55.0147 70.3315 55.0147 69.9861C55.0147 69.6407 54.7417 69.3607 54.4051 69.3607C54.0684 69.3607 53.7955 69.6407 53.7955 69.9861C53.7955 70.3315 54.0684 70.6115 54.4051 70.6115Z" fill="#FFD14C"/>
<path d="M79.5366 18.2927C79.5366 18.7674 79.1621 19.1517 78.6994 19.1517H76.4619C76.1142 19.1517 75.8082 19.3878 75.7152 19.7319L75.0689 22.4018C74.7042 23.7381 73.5169 24.6624 72.1656 24.6674L68.6551 23.6903L69.5339 19.2848C69.7934 18.2299 70.5523 17.3809 71.5536 17.0243L76.6479 15.2058C76.6797 15.1933 76.714 15.1882 76.7458 15.1882C76.8609 15.1882 76.9711 15.256 77.02 15.3691C77.2795 15.9468 77.1522 16.6124 76.736 17.0494H78.5917C79.1057 17.0494 79.5244 17.4764 79.5244 18.0039L79.539 18.2902L79.5366 18.2927Z" fill="#F3F4F6"/>
<path d="M72.1656 24.9361V24.4011C73.3945 24.3986 74.4863 23.5471 74.8168 22.3315L75.4606 19.6691C75.5879 19.2044 75.9968 18.8854 76.4619 18.8854H78.6994C79.0152 18.8854 79.2722 18.6242 79.2771 18.3002L79.2624 18.0214C79.2624 18.0214 79.2624 18.0113 79.2624 18.0088C79.2624 17.6296 78.9613 17.3206 78.5917 17.3206H76.7361C76.6308 17.3206 76.5353 17.2553 76.4962 17.1574C76.4545 17.0594 76.4766 16.9439 76.55 16.866C76.8976 16.5018 76.9907 15.9467 76.7826 15.4846C76.7728 15.4594 76.7459 15.4544 76.7336 15.4594L71.6393 17.2779C70.7188 17.607 70.0285 18.378 69.7885 19.3476L68.9122 23.7456L68.4005 23.6376L69.2794 19.232C69.2794 19.232 69.2794 19.2245 69.2818 19.2195C69.5633 18.0741 70.381 17.1599 71.4679 16.7706L76.5623 14.9521C76.621 14.932 76.6822 14.9194 76.7459 14.9194C76.9662 14.9194 77.1669 15.0526 77.2575 15.2585C77.4778 15.7483 77.4607 16.3109 77.2355 16.7831H78.5917C79.2478 16.7831 79.7814 17.3282 79.7839 17.9988L79.7986 18.2776C79.7986 18.2776 79.7986 18.2876 79.7986 18.2901C79.7986 18.9105 79.3065 19.4154 78.6994 19.4154H76.4619C76.2318 19.4154 76.0286 19.5736 75.9649 19.8022L75.3211 22.4646C74.9245 23.9164 73.6271 24.9286 72.1656 24.9336V24.9361Z" fill="#5798F7"/>
<path d="M73.179 20.8671H72.5597V20.3321H73.179C73.9893 20.3321 74.6479 19.6113 74.6479 18.7272C74.6479 18.0364 75.1962 17.4713 75.8719 17.4713H75.9282V18.0063H75.8719C75.4851 18.0063 75.1693 18.3303 75.1693 18.7272C75.1693 19.9077 74.2758 20.8671 73.179 20.8671Z" fill="#5798F7"/>
<path d="M74.3297 16.4315H76.9858V23.6753C76.9858 24.3082 76.4839 24.8231 75.867 24.8231H75.4484C74.8315 24.8231 74.3297 24.3082 74.3297 23.6753V16.4315Z" fill="#F3F4F6"/>
<path d="M75.6565 25.1346C74.7556 25.1346 74.0236 24.3836 74.0236 23.4593V16.4316C74.0236 16.2583 74.1607 16.1201 74.3272 16.1201H76.9833C77.1522 16.1201 77.2868 16.2608 77.2868 16.4316V23.4593C77.2868 24.3836 76.5549 25.1346 75.654 25.1346H75.6565ZM74.6332 16.743V23.4593C74.6332 24.0395 75.0934 24.5092 75.6565 24.5092C76.2195 24.5092 76.6797 24.037 76.6797 23.4593V16.743H74.6332Z" fill="#5798F7"/>
<path d="M76.9466 16.964L74.3297 18.5263V16.532H76.9466V16.964Z" fill="#5798F7"/>
<path d="M86.3201 16.1L70.4544 15.9493C69.8473 15.9442 69.2671 15.7106 68.8216 15.2862C68.376 14.8642 68.1019 14.289 68.0504 13.6686C67.9721 12.7242 68.4128 11.8301 69.1986 11.3353L83.8501 0.758466C84.1291 0.580135 84.6089 0.27873 84.9027 0.429432L86.3201 16.1Z" fill="#F3F4F6"/>
<path d="M86.3201 16.4115H86.3177L70.452 16.2608C69.769 16.2558 69.1178 15.992 68.6159 15.5148C68.1141 15.0401 67.8081 14.3921 67.7493 13.6938C67.6612 12.6364 68.1532 11.6317 69.0345 11.0741L83.6762 0.504866C83.6762 0.504866 83.686 0.499843 83.6909 0.49482C84.0043 0.293883 84.5869 -0.0828724 85.0398 0.150716C85.1328 0.198438 85.1965 0.293883 85.2063 0.401886L86.6237 16.0724C86.631 16.1603 86.6041 16.2482 86.5453 16.3135C86.4866 16.3788 86.4058 16.414 86.3226 16.414L86.3201 16.4115ZM84.019 1.01977L69.3773 11.5915C69.3773 11.5915 69.3675 11.5991 69.3601 11.6016C68.6722 12.0336 68.2879 12.8172 68.354 13.6411C68.3981 14.1836 68.638 14.6859 69.0272 15.0577C69.4164 15.4269 69.9232 15.6329 70.4544 15.6379L85.9823 15.7861L84.6187 0.713338C84.5061 0.740966 84.3225 0.823853 84.0165 1.02228L84.019 1.01977Z" fill="#5798F7"/>
<path d="M85.008 16.3487C82.32 16.3487 80.4179 13.518 80.0409 8.96176C79.801 6.04316 80.3714 3.4561 81.566 2.03699L82.0263 2.4464C80.9516 3.71983 80.4228 6.19637 80.6456 8.90901C80.9907 13.1136 82.6627 15.7233 85.0055 15.7233V16.3462L85.008 16.3487Z" fill="#5798F7"/>
<path d="M90.0142 7.80888C90.3717 12.1491 88.7486 15.9744 86.3887 16.1779C84.0288 16.3813 81.828 12.8875 81.4706 8.54732C81.1132 4.20709 82.7362 0.522424 85.0961 0.318976C87.456 0.115528 89.6568 3.46614 90.0142 7.80637V7.80888Z" fill="#F3F4F6"/>
<path d="M86.1904 16.4994C85.0153 16.4994 83.8647 15.7057 82.9271 14.2388C81.9724 12.7469 81.3482 10.735 81.1695 8.57494C80.9932 6.42492 81.2845 4.35779 81.9896 2.75532C82.7215 1.09257 83.8158 0.118033 85.0716 0.0100298C86.3275 -0.100485 87.5662 0.67312 88.5576 2.18768C89.5148 3.64447 90.1391 5.63373 90.3178 7.78375C90.4965 9.94131 90.2052 12.031 89.5001 13.6712C88.7657 15.3817 87.669 16.3813 86.418 16.4893C86.3422 16.4969 86.2687 16.4994 86.1928 16.4994H86.1904ZM85.3017 0.622886C85.2405 0.622886 85.1818 0.625397 85.123 0.630421C84.0973 0.71833 83.1817 1.56477 82.5428 3.01152C81.8794 4.51854 81.6077 6.47516 81.7741 8.52219C81.943 10.5793 82.533 12.4882 83.4339 13.8972C84.3029 15.2561 85.3434 15.9568 86.3642 15.8689C87.385 15.781 88.3006 14.9095 88.942 13.42C89.6078 11.8753 89.8796 9.89107 89.7106 7.8365C89.5417 5.78946 88.9542 3.90819 88.0533 2.5368C87.2381 1.29853 86.2687 0.625397 85.3017 0.625397V0.622886Z" fill="#5798F7"/>
<path d="M86.3078 15.0138C88.1697 14.8524 89.4267 11.658 89.1154 7.87892C88.8042 4.09985 87.0426 1.16716 85.1807 1.32858C83.3189 1.49 82.0619 4.68439 82.3731 8.46346C82.6843 12.2425 84.446 15.1752 86.3078 15.0138Z" fill="#B6DAFF"/>
<path d="M84.7338 10.9259L84.6824 10.3055C85.7571 10.2126 86.5576 9.23804 86.467 8.1354C86.4229 7.60041 86.1781 7.11565 85.7791 6.76903C85.3801 6.42242 84.8733 6.25664 84.3519 6.30185L84.3005 5.68146C84.9835 5.62118 85.6469 5.8397 86.1708 6.29181C86.6947 6.74643 87.0153 7.38189 87.0717 8.08265C87.1916 9.52939 86.1414 10.8053 84.7313 10.9259H84.7338Z" fill="#5798F7"/>
<path d="M85.5832 8.32622C85.5318 7.71587 85.0104 7.26377 84.4155 7.314L84.3715 6.78152C85.2528 6.70366 86.0288 7.37679 86.1022 8.28101L85.5832 8.32622Z" fill="white"/>
<path d="M77.4631 17.0519H78.7386C79.1743 17.0519 79.5293 17.4161 79.5293 17.8632V18.4409C79.5293 18.8879 79.1743 19.2521 78.7386 19.2521H77.4631C76.9637 19.2521 76.5598 18.8377 76.5598 18.3253V17.9787C76.5598 17.4663 76.9637 17.0519 77.4631 17.0519Z" fill="#F3F4F6"/>
<path d="M78.5892 19.5159H77.6296C76.8952 19.5159 76.2979 18.9031 76.2979 18.1496C76.2979 17.3961 76.8952 16.7832 77.6296 16.7832H78.5892C79.2502 16.7832 79.7887 17.3358 79.7887 18.0139V18.2877C79.7887 18.9659 79.2502 19.5184 78.5892 19.5184V19.5159ZM77.6296 17.3182C77.1816 17.3182 76.8193 17.6924 76.8193 18.1496C76.8193 18.6067 77.184 18.9809 77.6296 18.9809H78.5892C78.9638 18.9809 79.2673 18.6695 79.2673 18.2852V18.0114C79.2673 17.6271 78.9638 17.3157 78.5892 17.3157H77.6296V17.3182Z" fill="#5798F7"/>
<path d="M77.4093 18.7297C77.7216 18.7297 77.9748 18.47 77.9748 18.1495C77.9748 17.8291 77.7216 17.5693 77.4093 17.5693C77.097 17.5693 76.8438 17.8291 76.8438 18.1495C76.8438 18.47 77.097 18.7297 77.4093 18.7297Z" fill="#FFD14C"/>
<path d="M76.2465 19.2496H77.8279C78.2636 19.2496 78.6186 19.6138 78.6186 20.0609V20.6386C78.6186 21.0857 78.2636 21.4499 77.8279 21.4499H76.2465C75.7471 21.4499 75.3431 21.0355 75.3431 20.5231V20.1765C75.3431 19.6641 75.7471 19.2496 76.2465 19.2496Z" fill="#F3F4F6"/>
<path d="M77.681 21.7161H76.4153C75.6809 21.7161 75.0836 21.1033 75.0836 20.3498C75.0836 19.5963 75.6809 18.9834 76.4153 18.9834H77.681C78.342 18.9834 78.8805 19.536 78.8805 20.2141V20.4879C78.8805 21.1661 78.342 21.7186 77.681 21.7186V21.7161ZM76.4153 19.5184C75.9674 19.5184 75.6051 19.8926 75.6051 20.3498C75.6051 20.8069 75.9698 21.1811 76.4153 21.1811H77.681C78.0555 21.1811 78.3591 20.8697 78.3591 20.4854V20.2116C78.3591 19.8273 78.0555 19.5159 77.681 19.5159H76.4153V19.5184Z" fill="#5798F7"/>
<path d="M76.2097 20.9299C76.522 20.9299 76.7752 20.6702 76.7752 20.3497C76.7752 20.0293 76.522 19.7695 76.2097 19.7695C75.8974 19.7695 75.6442 20.0293 75.6442 20.3497C75.6442 20.6702 75.8974 20.9299 76.2097 20.9299Z" fill="#FFD14C"/>
<path d="M76.2465 21.4474H77.7936C78.2294 21.4474 78.5843 21.8116 78.5843 22.2587V22.8364C78.5843 23.2834 78.2294 23.6476 77.7936 23.6476H76.2465C75.7471 23.6476 75.3431 23.2332 75.3431 22.7208V22.3742C75.3431 21.8618 75.7471 21.4474 76.2465 21.4474Z" fill="#F3F4F6"/>
<path d="M77.6468 23.9139H76.4179C75.6834 23.9139 75.0861 23.301 75.0861 22.5475C75.0861 21.794 75.6834 21.1812 76.4179 21.1812H77.6468C78.3077 21.1812 78.8439 21.7337 78.8439 22.4119V22.6857C78.8439 23.3638 78.3053 23.9139 77.6468 23.9139ZM76.4179 21.7161C75.9699 21.7161 75.6076 22.0904 75.6076 22.5475C75.6076 23.0046 75.9723 23.3789 76.4179 23.3789H77.6468C78.0213 23.3789 78.3249 23.0674 78.3249 22.6832V22.4094C78.3249 22.0251 78.0213 21.7136 77.6468 21.7136H76.4179V21.7161Z" fill="#5798F7"/>
<path d="M76.2097 23.1277C76.522 23.1277 76.7752 22.8679 76.7752 22.5475C76.7752 22.2271 76.522 21.9673 76.2097 21.9673C75.8974 21.9673 75.6442 22.2271 75.6442 22.5475C75.6442 22.8679 75.8974 23.1277 76.2097 23.1277Z" fill="#FFD14C"/>
<path d="M37.4427 39.1901C37.7095 38.63 38.2725 38.2683 38.8797 38.2683H38.9041C39.5137 38.2683 40.0767 38.6325 40.3436 39.1951L52.2263 64.4352C52.5984 65.2239 53.3402 65.7464 54.1946 65.7464L53.9473 66.3693L39.8662 66.3567C37.7266 66.3567 35.6385 65.7388 33.8245 64.5734C32.0105 63.4054 30.5612 61.7452 29.631 59.7685L28.6591 57.7014L37.4427 39.1901Z" fill="#FFD14C"/>
<path d="M20.8792 75.3586C20.8352 75.3586 20.7887 75.3486 20.747 75.3285C20.5953 75.2532 20.5316 75.0673 20.605 74.9116L37.4402 39.1901C37.4916 39.0821 37.5528 38.9816 37.6238 38.8912H19.9661C19.0261 38.8912 18.157 39.4513 17.7482 40.3204L7.73818 61.5819C7.66474 61.7377 7.48359 61.803 7.33181 61.7276C7.18003 61.6523 7.11638 61.4664 7.18983 61.3107L17.1998 40.0491C17.709 38.9666 18.796 38.2683 19.9661 38.2683H39.3007V38.8912H38.8796C38.5026 38.8912 38.155 39.1148 37.9885 39.4639L21.1534 75.1828C21.102 75.2933 20.9918 75.3586 20.8792 75.3586Z" fill="#FFD14C"/>
<path d="M4.97438 67.0449C4.93032 67.0449 4.8838 67.0349 4.84219 67.0148C4.69041 66.9394 4.62676 66.7536 4.7002 66.5978L6.12006 63.5813C6.1935 63.4256 6.37466 63.3603 6.52643 63.4356C6.67821 63.511 6.74186 63.6968 6.66842 63.8526L5.24856 66.8691C5.19715 66.9796 5.08699 67.0449 4.97438 67.0449Z" fill="#FFD14C"/>
<path d="M19.4227 51.6657H0.303556C0.134642 51.6657 0 51.5251 0 51.3543C0 51.1835 0.13709 51.0428 0.303556 51.0428H19.4227C19.5916 51.0428 19.7263 51.1835 19.7263 51.3543C19.7263 51.5251 19.5892 51.6657 19.4227 51.6657Z" fill="#83B7FF"/>
<path d="M4.91077 53.9364H4.03927C3.87036 53.9364 3.73572 53.7957 3.73572 53.6249C3.73572 53.4541 3.87281 53.3135 4.03927 53.3135H4.91077C5.07969 53.3135 5.21433 53.4541 5.21433 53.6249C5.21433 53.7957 5.07724 53.9364 4.91077 53.9364Z" fill="#83B7FF"/>
<path d="M15.9465 53.9364H6.91079C6.74188 53.9364 6.60724 53.7957 6.60724 53.6249C6.60724 53.4541 6.74433 53.3135 6.91079 53.3135H15.9465C16.1154 53.3135 16.25 53.4541 16.25 53.6249C16.25 53.7957 16.113 53.9364 15.9465 53.9364Z" fill="#83B7FF"/>
</g>
<defs>
<clipPath id="clip0_3496_25876">
<rect width="112" height="74" fill="white"/>
</clipPath>
</defs>
</svg>
