<svg width="118" height="70" viewBox="0 0 118 70" fill="none" xmlns="http://www.w3.org/2000/svg">
<g clipPath="url(#clip0_3496_24640)">
<path d="M26.4794 21.5975H25.1616C22.9545 21.5975 20.7824 22.1747 18.8581 23.2728L10.8227 27.4964C4.09058 31.3352 1.6444 36.1212 0.559794 46.5396L0 52.8735C0.0204092 57.5174 3.73488 61.2675 8.30945 61.2675C11.0035 61.2675 13.5313 59.9415 15.0882 57.7098L17.3303 54.4985L26.4794 59.7077V21.5975Z" fill="#B6DAFF"/>
<path d="M5.31221 44.1659C5.2539 44.1659 5.19559 44.1481 5.14602 44.1067C5.02648 44.012 5.00607 43.8403 5.09937 43.7189L16.1436 29.3788C16.2369 29.2575 16.4061 29.2367 16.5256 29.3314C16.6451 29.4262 16.6655 29.5978 16.5722 29.7192L5.52796 44.0593C5.47548 44.1274 5.39385 44.1659 5.31513 44.1659H5.31221Z" fill="#F3F4F6"/>
<path d="M6.61257 42.4018H4.57749C4.42879 42.4018 4.30634 42.2775 4.30634 42.1266C4.30634 41.9756 4.42879 41.8513 4.57749 41.8513H6.61257C6.76127 41.8513 6.88372 41.9756 6.88372 42.1266C6.88372 42.2775 6.76127 42.4018 6.61257 42.4018Z" fill="#F3F4F6"/>
<path d="M17.4469 55.0134C17.4469 55.0134 17.4207 55.0134 17.4061 55.0104C17.2574 54.9868 17.1554 54.8476 17.1787 54.6967L20.1089 34.8928C20.1322 34.7419 20.2692 34.6383 20.4179 34.6619C20.5666 34.6856 20.6687 34.8247 20.6453 34.9757L17.7152 54.7796C17.6948 54.9157 17.5781 55.0134 17.4469 55.0134Z" fill="#5798F7"/>
<path d="M10.9422 27.4934L12.2601 20.7806L10.7877 21.3637C9.98883 21.6774 9.10249 21.2127 8.89548 20.3692L8.70597 19.5937C8.53104 18.8775 8.91589 18.1435 9.59814 17.8889C10.3066 17.6285 11.0909 17.9718 11.3883 18.6733L11.5458 19.0432C11.5458 19.0432 10.8373 16.5807 11.9948 14.4556L17.584 14.79L18.0126 23.6338L10.9451 27.4904L10.9422 27.4934Z" fill="#F3F4F6"/>
<path d="M17.6831 14.6924L17.1087 15.9118L11.9889 14.4585L11.4175 18.4454L11.3854 18.6762C11.1551 18.1316 10.6332 17.8031 10.0792 17.8031C9.91885 17.8031 9.75266 17.8297 9.59231 17.8919C9.58939 17.8919 9.58647 17.8919 9.58356 17.8948L9.0675 17.0306C8.18407 15.5536 8.95671 13.6328 10.604 13.2006L11.7557 12.8987L10.0384 12.1203C9.90136 12.0581 9.84013 11.8954 9.90136 11.7563C9.96259 11.6171 10.1229 11.555 10.26 11.6171L12.0997 12.4518C10.8023 11.2708 8.09077 8.68104 7.70592 7.33434C7.19569 5.55255 8.2074 3.69085 9.96259 3.17584C11.7149 2.65788 13.5517 3.68493 14.059 5.46672C14.4788 6.93773 13.3359 11.1732 12.9277 12.5968L15.4439 11.9368C17.0417 11.5195 18.3945 13.1858 17.6831 14.6983V14.6924Z" fill="#5798F7"/>
<path d="M10.8256 28.7246C10.8081 28.7246 10.7906 28.7246 10.776 28.7187C10.6273 28.6891 10.5311 28.547 10.5603 28.3961L11.9044 21.2157L11.2863 21.4613C10.7323 21.6803 10.1142 21.6448 9.58648 21.3696C9.05875 21.0913 8.67389 20.5971 8.53103 20.014L8.44356 19.6588C8.23364 18.8034 8.69139 17.9303 9.50484 17.6284C10.3474 17.3176 11.2834 17.729 11.6391 18.5637C11.6974 18.7028 11.6332 18.8656 11.4962 18.9248C11.3592 18.984 11.1988 18.9189 11.1405 18.7798C10.9014 18.2115 10.2629 17.9333 9.69144 18.1434C9.13747 18.3476 8.82842 18.9396 8.96837 19.5227L9.05584 19.8778C9.1608 20.31 9.44653 20.674 9.8343 20.8782C10.2221 21.0825 10.6798 21.1061 11.088 20.9463L12.1639 20.5231C12.2572 20.4875 12.3592 20.5053 12.435 20.5675C12.5108 20.6326 12.5458 20.7332 12.5283 20.8309L11.0938 28.4997C11.0705 28.6329 10.9539 28.7246 10.8285 28.7246H10.8256Z" fill="#5798F7"/>
<path d="M18.0096 24.3886C17.8668 24.3886 17.7443 24.2732 17.7385 24.1252L17.4119 17.0365C17.3565 15.8437 16.5198 14.8256 15.3739 14.5562C15.2282 14.5207 15.1378 14.3727 15.1699 14.2247C15.2048 14.0767 15.3477 13.985 15.4964 14.0175C16.8784 14.3402 17.8872 15.5714 17.9542 17.0099L18.2808 24.0986C18.2866 24.2495 18.1729 24.3797 18.0213 24.3857H18.0096V24.3886Z" fill="#5798F7"/>
<path d="M15.1203 22.595C14.2748 22.595 13.473 22.2812 12.8432 21.6952L12.0764 20.9819C11.9656 20.8783 11.9569 20.7037 12.0589 20.5912C12.161 20.4787 12.333 20.4698 12.4438 20.5734L13.2106 21.2867C13.7849 21.8195 14.5255 22.0829 15.301 22.0356C16.0766 21.9882 16.7793 21.6301 17.2866 21.0322L17.651 20.6001C17.7472 20.4846 17.9193 20.4698 18.033 20.5705C18.1467 20.6681 18.1612 20.8428 18.0621 20.9582L17.6977 21.3903C17.0971 22.1036 16.2574 22.5298 15.3331 22.5861C15.2631 22.592 15.1903 22.592 15.1203 22.592V22.595Z" fill="#5798F7"/>
<path d="M10.1521 20.2922C10.0501 20.2922 9.95092 20.233 9.90428 20.1294C9.84305 19.9903 9.90427 19.8275 10.0384 19.7654L10.3504 19.6203L10.0296 19.4576C9.89553 19.3895 9.84013 19.2237 9.90719 19.0876C9.97425 18.9514 10.1375 18.8952 10.2716 18.9633L11.1026 19.3836C11.1959 19.4309 11.2542 19.5286 11.2542 19.6351C11.2542 19.7417 11.1901 19.8364 11.0938 19.8808L10.2629 20.2656C10.225 20.2833 10.1871 20.2893 10.1492 20.2893L10.1521 20.2922Z" fill="#5798F7"/>
<path d="M13.7671 18.199C13.633 18.199 13.5047 18.1665 13.3852 18.1013C13.1956 17.9977 13.0615 17.829 13.009 17.6248C12.9711 17.4768 13.0557 17.3259 13.2015 17.2874C13.3472 17.2489 13.4959 17.3348 13.5338 17.4827C13.5484 17.539 13.5863 17.5863 13.6417 17.6159C13.703 17.6485 13.7758 17.6574 13.8458 17.6367C13.9158 17.6159 13.977 17.5745 14.012 17.5153C14.0441 17.462 14.0557 17.4028 14.0412 17.3466C14.0033 17.1986 14.0878 17.0477 14.2336 17.0092C14.3794 16.9707 14.5281 17.0565 14.566 17.2045C14.6214 17.4087 14.5864 17.6248 14.4756 17.8083C14.3648 17.9859 14.1928 18.1161 13.9887 18.1694C13.9158 18.1901 13.8429 18.199 13.77 18.199H13.7671Z" fill="#5798F7"/>
<path d="M13.473 20.5113C14.0462 20.5113 14.5109 20.0395 14.5109 19.4576C14.5109 18.8757 14.0462 18.4039 13.473 18.4039C12.8997 18.4039 12.435 18.8757 12.435 19.4576C12.435 20.0395 12.8997 20.5113 13.473 20.5113Z" fill="#F9D346"/>
<path d="M14.2194 19.8423C14.0911 19.8423 13.989 19.7387 13.9861 19.6085C13.9861 19.4783 14.0882 19.3717 14.2164 19.3688L15.2019 19.3569H15.2048C15.3331 19.3569 15.4352 19.4605 15.4381 19.5908C15.4381 19.721 15.336 19.8275 15.2077 19.8305L14.2223 19.8423H14.2194Z" fill="#5798F7"/>
<path d="M14.1815 20.0881C14.1815 20.0881 14.1552 20.0881 14.1436 20.0851C14.0153 20.0644 13.9307 19.943 13.9511 19.8128L14.0182 19.3866C14.0386 19.2593 14.1581 19.1705 14.2864 19.1912C14.4147 19.212 14.4993 19.3333 14.4788 19.4635L14.4118 19.8897C14.3943 20.0052 14.2952 20.0881 14.1815 20.0881Z" fill="#5798F7"/>
<path d="M11.0355 22.6038C11.0355 22.6038 11.0093 22.6038 10.9947 22.6038C10.846 22.5831 10.744 22.441 10.7644 22.2901L11.0268 20.4728C11.0472 20.3218 11.1871 20.2182 11.3358 20.239C11.4845 20.2597 11.5866 20.4018 11.5662 20.5527L11.3038 22.37C11.2834 22.5062 11.1667 22.6068 11.0355 22.6068V22.6038Z" fill="#F9D346"/>
<path d="M21.0014 20.9447L22.8656 20.7435L24.4012 35.4035C24.4558 35.9244 24.0827 36.3933 23.5696 36.4487C23.0564 36.5041 22.5945 36.1253 22.5399 35.6044L21.0043 20.9444L21.0014 20.9447Z" fill="#F3F4F6"/>
<path d="M23.4676 36.7279C23.1936 36.7279 22.9282 36.6332 22.7096 36.4556C22.4588 36.2484 22.3014 35.9554 22.2664 35.6298L20.7007 20.6977L23.1032 20.4373L24.6689 35.3694C24.7038 35.6949 24.6105 36.0146 24.4065 36.2691C24.2024 36.5237 23.9137 36.6835 23.593 36.719C23.5493 36.7249 23.5055 36.7249 23.4618 36.7249L23.4676 36.7279ZM21.3013 21.1861L22.8087 35.5706C22.8262 35.7512 22.9137 35.911 23.0536 36.0235C23.1906 36.1359 23.3656 36.1892 23.5434 36.1685C23.9079 36.13 24.1732 35.7956 24.1353 35.4256L22.6279 21.041L21.3043 21.1831L21.3013 21.1861Z" fill="#F9D346"/>
<path d="M21.2838 20.976C24.7636 20.976 27.5845 18.1124 27.5845 14.5799C27.5845 11.0475 24.7636 8.18384 21.2838 8.18384C17.8041 8.18384 14.9832 11.0475 14.9832 14.5799C14.9832 18.1124 17.8041 20.976 21.2838 20.976Z" fill="#F3F4F6"/>
<path d="M21.2839 21.2542C17.6598 21.2542 14.7121 18.2619 14.7121 14.5828C14.7121 10.9038 17.6598 7.9115 21.2839 7.9115C24.9079 7.9115 27.8556 10.9038 27.8556 14.5828C27.8556 18.2619 24.9079 21.2542 21.2839 21.2542ZM21.2839 8.46202C17.9601 8.46202 15.2544 11.2087 15.2544 14.5828C15.2544 17.957 17.9601 20.7037 21.2839 20.7037C24.6076 20.7037 27.3133 17.957 27.3133 14.5828C27.3133 11.2087 24.6076 8.46202 21.2839 8.46202Z" fill="#F9D346"/>
<path d="M21.3393 17.1016C22.183 17.1016 22.867 16.4072 22.867 15.5507C22.867 14.6941 22.183 13.9998 21.3393 13.9998C20.4955 13.9998 19.8115 14.6941 19.8115 15.5507C19.8115 16.4072 20.4955 17.1016 21.3393 17.1016Z" fill="#91E6F0"/>
<path d="M21.3392 17.3177C19.829 17.3177 18.4411 16.4801 17.7181 15.1334C17.6743 15.0505 17.6743 14.9529 17.7181 14.87C18.4411 13.5233 19.829 12.6857 21.3392 12.6857C22.8495 12.6857 24.2373 13.5233 24.9604 14.87C25.0041 14.9529 25.0041 15.0505 24.9604 15.1334C24.2373 16.4801 22.8495 17.3177 21.3392 17.3177ZM18.2691 15.0002C18.9135 16.0924 20.0768 16.7672 21.3392 16.7672C22.6017 16.7672 23.765 16.0953 24.4094 15.0002C23.765 13.9081 22.6017 13.2362 21.3392 13.2362C20.0768 13.2362 18.9164 13.9081 18.2691 15.0002Z" fill="#5798F7"/>
<path d="M22.558 12.5199C22.5317 12.5199 22.5055 12.5169 22.4822 12.511C22.316 12.4666 22.2168 12.2949 22.2577 12.1292L22.3422 11.7918C22.3859 11.6231 22.555 11.5224 22.7183 11.5639C22.8845 11.6083 22.9836 11.7799 22.9428 11.9457L22.8583 12.2831C22.8233 12.4252 22.695 12.5199 22.558 12.5199Z" fill="#5798F7"/>
<path d="M20.0331 12.5199C19.896 12.5199 19.7677 12.4252 19.7327 12.2831L19.6482 11.9457C19.6045 11.777 19.7065 11.6053 19.8727 11.5639C20.0389 11.5195 20.208 11.6231 20.2488 11.7918L20.3334 12.1292C20.3771 12.2979 20.275 12.4696 20.1089 12.511C20.0826 12.5169 20.0564 12.5199 20.0331 12.5199Z" fill="#5798F7"/>
<path d="M24.6222 13.5528C24.5143 13.5528 24.4065 13.4936 24.3511 13.3901C24.2665 13.2391 24.3219 13.0467 24.4706 12.9609L24.6689 12.8484C24.8176 12.7626 25.0071 12.8188 25.0916 12.9698C25.1762 13.1207 25.1208 13.3131 24.9721 13.3989L24.7738 13.5114C24.7272 13.538 24.6747 13.5499 24.6222 13.5499V13.5528Z" fill="#5798F7"/>
<path d="M18.0884 13.5528C18.0388 13.5528 17.9863 13.541 17.9367 13.5143L17.7385 13.4019C17.5898 13.316 17.5344 13.1266 17.6189 12.9727C17.7035 12.8217 17.8901 12.7655 18.0417 12.8513L18.24 12.9638C18.3887 13.0496 18.4441 13.2391 18.3595 13.393C18.3041 13.4966 18.1962 13.5558 18.0884 13.5558V13.5528Z" fill="#5798F7"/>
<path d="M17.9572 15.0001C18.6102 13.7837 19.8785 12.9579 21.3392 12.9579C22.8 12.9579 24.0712 13.7837 24.7213 15.0001L23.5201 14.5354C22.2139 14.0323 20.7736 14.0086 19.4529 14.4733L17.9572 15.0001Z" fill="white"/>
<path d="M24.7213 15.2754C24.6893 15.2754 24.6572 15.2695 24.6251 15.2576L23.4239 14.7929C22.1789 14.3135 20.7999 14.2927 19.5432 14.7337L18.0475 15.2606C17.9426 15.2991 17.823 15.2665 17.7531 15.1777C17.6802 15.0919 17.6685 14.9676 17.721 14.8669C18.4441 13.5202 19.8319 12.6826 21.3422 12.6826C22.8524 12.6826 24.2403 13.5202 24.9633 14.8669C25.0187 14.9676 25.0041 15.0919 24.9283 15.1807C24.8759 15.2428 24.8001 15.2754 24.7243 15.2754H24.7213ZM21.3392 13.2331C20.3013 13.2331 19.3275 13.6889 18.6569 14.4614L19.3654 14.2128C20.7445 13.7274 22.2547 13.7511 23.6163 14.2779L23.9837 14.42C23.3131 13.6741 22.3597 13.2331 21.3363 13.2331H21.3392Z" fill="#5798F7"/>
<path d="M21.3393 16.2552C21.7225 16.2552 22.0332 15.9398 22.0332 15.5507C22.0332 15.1617 21.7225 14.8463 21.3393 14.8463C20.956 14.8463 20.6453 15.1617 20.6453 15.5507C20.6453 15.9398 20.956 16.2552 21.3393 16.2552Z" fill="#5798F7"/>
<path d="M21.9369 16.0923C22.0641 16.0923 22.1673 15.9876 22.1673 15.8585C22.1673 15.7293 22.0641 15.6246 21.9369 15.6246C21.8097 15.6246 21.7066 15.7293 21.7066 15.8585C21.7066 15.9876 21.8097 16.0923 21.9369 16.0923Z" fill="white"/>
<path d="M22.867 20.7422L21.004 20.9435L21.2197 23.0064L22.9399 21.4377L22.867 20.7422Z" fill="#F9D346"/>
<path d="M28.1209 11.1761C28.0218 11.1761 27.9285 11.1229 27.8789 11.0282C27.3483 9.99815 26.5727 9.09542 25.6397 8.42059C25.5173 8.3318 25.4881 8.16013 25.5756 8.03582C25.6631 7.91151 25.8322 7.88191 25.9546 7.9707C26.9576 8.69881 27.7885 9.66666 28.36 10.7736C28.43 10.9098 28.3775 11.0755 28.2463 11.1465C28.2055 11.1673 28.1617 11.1791 28.1209 11.1791V11.1761Z" fill="#F9D346"/>
<path d="M25.4648 30.5953C25.4648 30.6219 25.4648 30.6456 25.4648 30.6722C25.4415 31.2405 24.9866 31.7022 24.4181 31.72L24.2198 31.7259L21.6716 31.8028L21.7999 33.0341C21.9078 34.0612 21.0914 34.9461 20.0739 34.9047C17.686 34.8041 15.8288 32.7589 15.9279 30.3318L15.9804 29.0562C16.0649 26.9902 17.3857 25.1877 19.31 24.5099L23.2227 23.1336C24.0653 22.8377 24.9313 23.5095 24.8729 24.4123L24.8234 25.1463C25.3278 25.2233 25.7243 25.6613 25.7389 26.197C25.7389 26.2237 25.7389 26.2473 25.7389 26.274C25.7155 26.8422 25.2607 27.3069 24.6922 27.3217C25.287 27.304 25.7826 27.7805 25.8001 28.3843C25.8001 28.4109 25.8001 28.4346 25.8001 28.4613C25.7768 29.0295 25.3219 29.4942 24.7534 29.509L24.5406 29.5149V29.5445C25.0508 29.6156 25.4531 30.0566 25.4677 30.5982L25.4648 30.5953Z" fill="#F3F4F6"/>
<path d="M20.0243 35.18C19.9981 35.18 19.9718 35.18 19.9456 35.18C19.7969 35.174 19.6803 35.0468 19.6861 34.8929C19.6919 34.7419 19.8173 34.6235 19.9689 34.6294C20.4063 34.6472 20.8523 34.4578 21.1614 34.1233C21.4413 33.8214 21.5725 33.4426 21.5346 33.0637L21.4063 31.8324C21.3976 31.7555 21.4209 31.6785 21.4704 31.6223C21.52 31.5631 21.59 31.5305 21.6658 31.5276L24.4123 31.4447C24.835 31.4329 25.1762 31.0895 25.1937 30.6604C25.1937 30.6426 25.1937 30.6219 25.1937 30.6041C25.182 30.2016 24.8904 29.8701 24.4997 29.8168C24.3569 29.7961 24.2548 29.6688 24.2665 29.5238V29.4942C24.2782 29.3521 24.3919 29.2426 24.5318 29.2397L24.7447 29.2338C25.1674 29.2219 25.5115 28.8786 25.529 28.4494C25.529 28.4317 25.529 28.4109 25.529 28.3932C25.5173 27.9433 25.147 27.5852 24.7009 27.597C24.7009 27.597 24.6951 27.597 24.6922 27.597C24.5464 27.597 24.4239 27.4786 24.421 27.3277C24.4181 27.1767 24.5347 27.0494 24.6863 27.0435C25.1062 27.0317 25.4502 26.6883 25.4677 26.2592C25.4677 26.2414 25.4677 26.2207 25.4677 26.2029C25.4561 25.8063 25.1703 25.4748 24.7855 25.4156C24.6455 25.3949 24.5464 25.2677 24.5551 25.1256L24.6047 24.3916C24.628 24.0541 24.4881 23.7463 24.2228 23.5391C23.9604 23.3349 23.628 23.2816 23.3131 23.3912L19.4004 24.7674C17.5694 25.4097 16.3332 27.0968 16.2515 29.065V29.0798L16.1961 29.6925C16.1816 29.8435 16.0504 29.9559 15.9017 29.9411C15.753 29.9263 15.6422 29.7932 15.6567 29.6422L15.7121 29.0384C15.8054 26.8482 17.1816 24.9687 19.2254 24.2495L23.1382 22.8732C23.6192 22.7045 24.1499 22.7903 24.5551 23.1041C24.9604 23.4178 25.182 23.915 25.147 24.43L25.1149 24.9332C25.6339 25.1167 25.9984 25.611 26.0159 26.1881C26.0159 26.2207 26.0159 26.2503 26.0159 26.2829C25.9984 26.6913 25.803 27.0554 25.5085 27.2951C25.8409 27.5348 26.0654 27.9285 26.0771 28.3725C26.0771 28.405 26.0771 28.4376 26.0771 28.4672C26.0567 28.9792 25.7564 29.4173 25.3307 29.6333C25.5785 29.876 25.733 30.2105 25.7418 30.5834C25.7418 30.616 25.7418 30.6456 25.7418 30.6781C25.7126 31.3944 25.1383 31.9686 24.4327 31.9893L24.2344 31.9952L21.9807 32.0633L22.0798 32.9986C22.1352 33.5402 21.9544 34.073 21.5637 34.4933C21.1672 34.9225 20.5987 35.174 20.0331 35.174L20.0243 35.18Z" fill="#5798F7"/>
<path d="M22.7329 29.8702C22.5871 29.8702 22.4676 29.7548 22.4617 29.6068C22.4559 29.4558 22.5725 29.3256 22.7212 29.3197L24.7388 29.2339C24.8904 29.2279 25.0158 29.3463 25.0216 29.4973C25.0275 29.6482 24.9108 29.7785 24.7621 29.7844L22.7446 29.8702H22.7329Z" fill="#5798F7"/>
<path d="M22.6746 27.7362C22.5317 27.7362 22.4122 27.6208 22.4034 27.4758C22.3947 27.3248 22.5113 27.1946 22.66 27.1857L25.0537 27.0614C25.2024 27.0525 25.3307 27.1709 25.3394 27.3218C25.3482 27.4728 25.2316 27.603 25.0829 27.6119L22.6892 27.7362H22.6746Z" fill="#5798F7"/>
<path d="M22.7679 25.4601C22.6192 25.4601 22.4997 25.3387 22.4967 25.1908C22.4967 25.0398 22.6134 24.9125 22.7621 24.9096L24.8175 24.8711C24.9662 24.8711 25.0916 24.9895 25.0945 25.1404C25.0945 25.2914 24.9779 25.4187 24.8292 25.4216L22.7737 25.4601H22.7679Z" fill="#5798F7"/>
<path d="M116.029 41.875C118.656 38.2167 118.656 33.2561 116.029 29.5978L109.481 20.4758C100.445 8.58635 98.0544 7.20413 86.7477 8.79353L66.289 16.6281L101.53 44.0475C106.11 47.5696 112.644 46.5899 116.029 41.875Z" fill="#B6DAFF"/>
<path d="M109.425 30.4592C109.41 30.4592 109.393 30.4592 109.378 30.4532L95.4914 27.5349C95.3689 27.5083 95.2873 27.3869 95.3135 27.2596C95.3397 27.1353 95.4593 27.0524 95.5847 27.0791L109.472 29.9974C109.594 30.0241 109.676 30.1454 109.649 30.2727C109.626 30.3822 109.533 30.4562 109.425 30.4562V30.4592Z" fill="#F3F4F6"/>
<path d="M107.39 29.9767C107.341 29.9767 107.294 29.9619 107.253 29.9294C107.154 29.8524 107.134 29.7074 107.209 29.6038L108.113 28.3962C108.189 28.2956 108.332 28.2748 108.434 28.3518C108.533 28.4288 108.553 28.5738 108.478 28.6774L107.574 29.885C107.53 29.9442 107.46 29.9767 107.393 29.9767H107.39Z" fill="#F3F4F6"/>
<path d="M95.4683 4.86292C95.2263 4.71197 94.9289 4.63502 94.6082 4.6439H94.3545C93.6052 4.63502 92.9929 5.25065 92.9929 6.01131V6.11491C92.2699 5.7183 91.7276 4.89548 91.6226 3.90099C91.6051 3.7234 91.5993 3.54878 91.6109 3.37711C91.1503 3.55766 90.6342 3.68789 90.0832 3.74708C87.9665 3.97499 86.1384 3.09001 86.0013 1.76995L93.5994 0.95009H93.6227L93.6635 0.94417C93.8268 0.932331 93.9726 0.94121 94.1096 0.970808V0.27526C94.1096 0.124311 94.2292 0 94.3808 0C94.5324 0 94.6519 0.124311 94.6519 0.27526V0.784342H95.2088C95.3575 0.784342 95.4799 0.908653 95.4799 1.0596C95.4799 1.21055 95.3575 1.33486 95.2088 1.33486H94.751C95.1651 1.77883 95.3575 2.55133 95.4508 3.4511C95.5033 3.95723 95.5178 4.43967 95.4654 4.85996L95.4683 4.86292Z" fill="#F9D346"/>
<path d="M98.5442 10.6966C95.5062 10.7025 92.7364 12.4577 91.3981 15.228L91.3777 15.2724L90.9403 11.0903L89.1385 11.2856C88.6108 11.3418 88.1385 10.9541 88.0801 10.4214L87.8469 8.24296L86.7769 8.35839C86.5553 8.38206 86.3716 8.1808 86.4124 7.95882L87.0714 4.37748C87.1355 4.02527 87.2725 3.69969 87.4679 3.41555C88.1851 3.72041 89.1035 3.8536 90.0861 3.74705C90.6371 3.68785 91.1561 3.55762 91.6138 3.37708C91.6022 3.54874 91.608 3.72337 91.6255 3.90096C91.7305 4.8984 92.2728 5.72122 92.9958 6.11487V6.01128C92.9958 5.24766 93.6081 4.63498 94.3574 4.6409H94.6111C94.7044 4.6409 94.7977 4.64682 94.8851 4.65866C94.9376 4.94872 94.9522 5.25062 94.923 5.56139L95.4216 7.54149L98.5471 10.6966H98.5442Z" fill="#F3F4F6"/>
<path d="M91.3602 15.4264C91.2232 15.4264 91.1065 15.3228 91.092 15.1807L90.6954 11.3922L89.4359 11.5284C88.6108 11.6172 87.8673 11.0104 87.7798 10.1728L87.6049 8.54491L86.8031 8.63075C86.6107 8.65147 86.4241 8.58043 86.2958 8.4354C86.1675 8.29037 86.1092 8.09799 86.1442 7.9056L86.8002 4.712C86.911 4.1674 87.0451 3.86846 87.3425 3.48073C87.4358 3.35938 87.6049 3.33866 87.7244 3.43337C87.844 3.52809 87.8644 3.69975 87.7711 3.8211C87.5262 4.1378 87.4271 4.3657 87.3338 4.82743L86.6777 8.01511C86.6748 8.03583 86.6836 8.05359 86.6952 8.06543C86.704 8.07727 86.7215 8.08911 86.7477 8.08615L87.8177 7.97072C87.9664 7.95592 88.1006 8.06543 88.1151 8.21638L88.3192 10.1166C88.3775 10.6523 88.8528 11.04 89.3805 10.9838L90.9112 10.818C90.9812 10.8091 91.054 10.8328 91.1094 10.8772C91.1648 10.9246 91.1998 10.9897 91.2086 11.0637L91.6343 15.1275C91.6488 15.2784 91.541 15.4146 91.3923 15.4294C91.3835 15.4294 91.3718 15.4294 91.3631 15.4294L91.3602 15.4264Z" fill="#5798F7"/>
<path d="M98.4247 10.9838C98.3547 10.9838 98.2818 10.9542 98.2293 10.9009L95.2204 7.731C95.1155 7.62149 95.1184 7.44686 95.2263 7.34031C95.3341 7.23375 95.5062 7.23671 95.6111 7.34623L98.62 10.5161C98.725 10.6257 98.7221 10.8003 98.6142 10.9068C98.5617 10.9572 98.4947 10.9838 98.4247 10.9838Z" fill="#5798F7"/>
<path d="M90.9345 11.3626C90.7975 11.3626 90.6809 11.259 90.6663 11.117C90.6517 10.966 90.7596 10.8299 90.9083 10.8151L92.2553 10.67C92.404 10.6552 92.5381 10.7648 92.5527 10.9157C92.5673 11.0667 92.4594 11.2028 92.3107 11.2176L90.9637 11.3626C90.9637 11.3626 90.9433 11.3626 90.9345 11.3626Z" fill="#5798F7"/>
<path d="M92.9929 6.33388V6.01126C92.9929 5.2506 93.6052 4.63496 94.3545 4.64088H94.6082C95.3342 4.62608 95.9464 5.04341 96.031 5.7656L96.0718 6.12077C96.0835 7.42604 95.3516 8.02687 94.2729 8.02687L92.9929 6.33388Z" fill="#F3F4F6"/>
<path d="M94.8385 6.991C94.8385 6.991 94.8268 6.991 94.821 6.991L93.9084 6.93476C93.8035 6.92884 93.7131 6.86077 93.6723 6.76309C93.6344 6.66542 93.6548 6.55295 93.7247 6.47304L94.3516 5.78045C94.4536 5.66797 94.6257 5.66205 94.7365 5.76269C94.8472 5.86628 94.8531 6.04091 94.7539 6.15338L94.512 6.41976L94.8531 6.44048C95.0018 6.44936 95.1155 6.57959 95.1067 6.7335C95.098 6.87853 94.9784 6.991 94.8356 6.991H94.8385Z" fill="#5798F7"/>
<path d="M94.2729 8.30215C94.1242 8.30215 94.0017 8.17784 94.0017 8.02689C94.0017 7.87594 94.1242 7.75163 94.2729 7.75163C94.7685 7.75163 95.1476 7.61844 95.4071 7.35206C95.6724 7.07976 95.8036 6.67427 95.8007 6.13855L95.7598 5.79818C95.6869 5.17662 95.1272 4.90728 94.6111 4.91912C94.6111 4.91912 94.6053 4.91912 94.6023 4.91912H94.3487C94.06 4.91024 93.786 5.02567 93.579 5.23286C93.372 5.44004 93.2612 5.7153 93.2612 6.01128V6.3339C93.2612 6.48485 93.1387 6.60916 92.99 6.60916C92.8413 6.60916 92.7189 6.48485 92.7189 6.3339V6.01128C92.7189 5.57027 92.888 5.15294 93.1999 4.84217C93.509 4.53139 93.9172 4.35972 94.3545 4.36564H94.6053C95.512 4.35084 96.203 4.91024 96.2992 5.73306L96.34 6.08824C96.34 6.08824 96.34 6.10895 96.34 6.11783C96.3459 6.81042 96.1622 7.35798 95.789 7.73979C95.4304 8.10681 94.9056 8.30215 94.27 8.30215H94.2729Z" fill="#5798F7"/>
<path d="M87.9256 9.29071C87.8265 9.29071 87.7332 9.23743 87.6836 9.14272C87.6136 9.00657 87.6661 8.84082 87.7973 8.76979L89.4126 7.91145C89.5438 7.84042 89.71 7.89369 89.7799 8.02688C89.8499 8.16007 89.7974 8.32878 89.6662 8.39981L88.051 9.25815C88.0102 9.27887 87.9664 9.29071 87.9256 9.29071Z" fill="#5798F7"/>
<path d="M90.4797 8.70475C91.1109 8.70475 91.6226 8.18529 91.6226 7.54451C91.6226 6.90373 91.1109 6.38428 90.4797 6.38428C89.8485 6.38428 89.3368 6.90373 89.3368 7.54451C89.3368 8.18529 89.8485 8.70475 90.4797 8.70475Z" fill="#91E6F0"/>
<path d="M89.8441 8.74019C89.7625 8.74019 89.6808 8.70172 89.6283 8.63068L89.1881 8.04464C89.0977 7.92329 89.121 7.75163 89.2406 7.65987C89.3601 7.56812 89.5292 7.5918 89.6196 7.71315L90.0599 8.29919C90.1502 8.42054 90.1269 8.5922 90.0074 8.68396C89.9578 8.72243 89.8995 8.74019 89.8441 8.74019Z" fill="#5798F7"/>
<path d="M88.3484 6.38424C88.2114 6.38424 88.0947 6.28065 88.0802 6.13858C88.0627 5.96987 88.1093 5.80116 88.2172 5.67093C88.3221 5.53774 88.4738 5.45487 88.6399 5.43711C88.8061 5.41935 88.9723 5.46671 89.1006 5.57622C89.2318 5.68277 89.3135 5.83668 89.3309 6.00539C89.3455 6.15634 89.2376 6.29249 89.0889 6.30729C88.9403 6.32209 88.8061 6.21257 88.7916 6.06163C88.7886 6.02907 88.7711 6.01131 88.7595 6.00243C88.7478 5.99355 88.7274 5.97875 88.6953 5.98467C88.6633 5.98763 88.6458 6.00539 88.637 6.01723C88.6283 6.02907 88.6137 6.04979 88.6195 6.08234C88.6341 6.23329 88.5262 6.36944 88.3775 6.38424C88.3688 6.38424 88.3571 6.38424 88.3484 6.38424Z" fill="#5798F7"/>
<path d="M65.4464 65.8463L50.5331 68.59L52.3991 65.4171H65.2481L65.4464 65.8463Z" fill="#B6DAFF"/>
<path d="M72.161 77.2059C72.0706 77.2059 71.9802 77.1586 71.9278 77.0727L65.0994 65.6924H52.5478L45.7195 77.0727C45.6407 77.203 45.4746 77.2444 45.3463 77.1645C45.218 77.0846 45.1772 76.9159 45.2559 76.7857L52.1629 65.2721C52.2125 65.1892 52.3 65.1389 52.3962 65.1389H65.251C65.3443 65.1389 65.4347 65.1892 65.4843 65.2721L72.3913 76.7857C72.4701 76.9159 72.4292 77.0846 72.3009 77.1645C72.2572 77.1911 72.2076 77.2059 72.161 77.2059Z" fill="#5798F7"/>
<path d="M38.1856 14.4259H86.0626C88.914 14.4259 91.229 16.776 91.229 19.6707V60.1723C91.229 63.067 88.914 65.417 86.0626 65.417H31.6459C28.7944 65.417 26.4794 63.067 26.4794 60.1723V19.5C26.4794 12.9411 31.7246 14.4259 38.1856 14.4259Z" fill="#F3F4F6"/>
<path d="M26.4794 52.7138C26.3308 52.7138 26.2083 52.5895 26.2083 52.4385V20.9672C26.2083 20.8162 26.3308 20.6919 26.4794 20.6919C26.6281 20.6919 26.7506 20.8162 26.7506 20.9672V52.4355C26.7506 52.5865 26.6281 52.7108 26.4794 52.7108V52.7138Z" fill="#5798F7"/>
<path d="M26.4794 56.3217C26.3308 56.3217 26.2083 56.1974 26.2083 56.0465V54.6791C26.2083 54.5281 26.3308 54.4038 26.4794 54.4038C26.6281 54.4038 26.7506 54.5281 26.7506 54.6791V56.0465C26.7506 56.1974 26.6281 56.3217 26.4794 56.3217Z" fill="#5798F7"/>
<path d="M86.6136 65.6924H31.0948C28.4008 65.6924 26.2083 63.4667 26.2083 60.7318V58.145C26.2083 57.994 26.3308 57.8697 26.4794 57.8697C26.6281 57.8697 26.7506 57.994 26.7506 58.145V60.7318C26.7506 63.1618 28.6982 65.1419 31.0948 65.1419H86.6136C89.0073 65.1419 90.9579 63.1648 90.9579 60.7318V51.8821C90.9579 51.7311 91.0803 51.6068 91.229 51.6068C91.3777 51.6068 91.5002 51.7311 91.5002 51.8821V60.7318C91.5002 63.4667 89.3076 65.6924 86.6136 65.6924Z" fill="#5798F7"/>
<path d="M91.229 45.5984C91.0803 45.5984 90.9579 45.4741 90.9579 45.3232V44.0445C90.9579 43.8936 91.0803 43.7693 91.229 43.7693C91.3777 43.7693 91.5002 43.8936 91.5002 44.0445V45.3232C91.5002 45.4741 91.3777 45.5984 91.229 45.5984Z" fill="#5798F7"/>
<path d="M91.229 42.1621C91.0803 42.1621 90.9579 42.0378 90.9579 41.8868V18.9219C90.9579 16.4919 89.0102 14.5118 86.6136 14.5118H30.5525C30.4038 14.5118 30.2814 14.3875 30.2814 14.2366C30.2814 14.0856 30.4038 13.9613 30.5525 13.9613H86.6136C89.3076 13.9613 91.5001 16.1871 91.5001 18.9219V41.8898C91.5001 42.0407 91.3777 42.1651 91.229 42.1651V42.1621Z" fill="#5798F7"/>
<path d="M76.1933 52.8854H41.6376C39.3511 52.8854 37.4975 54.7671 37.4975 57.0883C37.4975 59.4095 39.3511 61.2912 41.6376 61.2912H76.1933C78.4798 61.2912 80.3334 59.4095 80.3334 57.0883C80.3334 54.7671 78.4798 52.8854 76.1933 52.8854Z" fill="#B6DAFF"/>
<path d="M42.5356 57.7956C42.1508 57.7956 41.8388 57.4789 41.8388 57.0882C41.8388 56.6976 42.1508 56.3809 42.5356 56.3809C42.9205 56.3809 43.2325 56.6976 43.2325 57.0882C43.2325 57.4789 42.9205 57.7956 42.5356 57.7956ZM42.5356 56.8426C42.4044 56.8426 42.2966 56.9521 42.2966 57.0853C42.2966 57.2185 42.4044 57.328 42.5356 57.328C42.6668 57.328 42.7747 57.2185 42.7747 57.0853C42.7747 56.9521 42.6668 56.8426 42.5356 56.8426Z" fill="white"/>
<path d="M45.3404 57.7956C44.9556 57.7956 44.6436 57.4789 44.6436 57.0882C44.6436 56.6976 44.9556 56.3809 45.3404 56.3809C45.7253 56.3809 46.0373 56.6976 46.0373 57.0882C46.0373 57.4789 45.7253 57.7956 45.3404 57.7956ZM45.3404 56.8426C45.2092 56.8426 45.1014 56.9521 45.1014 57.0853C45.1014 57.2185 45.2092 57.328 45.3404 57.328C45.4716 57.328 45.5795 57.2185 45.5795 57.0853C45.5795 56.9521 45.4716 56.8426 45.3404 56.8426Z" fill="white"/>
<path d="M48.1421 57.7956C47.7572 57.7956 47.4453 57.4789 47.4453 57.0882C47.4453 56.6976 47.7572 56.3809 48.1421 56.3809C48.5269 56.3809 48.8389 56.6976 48.8389 57.0882C48.8389 57.4789 48.5269 57.7956 48.1421 57.7956ZM48.1421 56.8426C48.0109 56.8426 47.903 56.9521 47.903 57.0853C47.903 57.2185 48.0109 57.328 48.1421 57.328C48.2733 57.328 48.3812 57.2185 48.3812 57.0853C48.3812 56.9521 48.2733 56.8426 48.1421 56.8426Z" fill="white"/>
<path d="M76.1437 61.0307C78.2885 61.0307 80.0273 59.2656 80.0273 57.0883C80.0273 54.911 78.2885 53.1459 76.1437 53.1459C73.9989 53.1459 72.2601 54.911 72.2601 57.0883C72.2601 59.2656 73.9989 61.0307 76.1437 61.0307Z" fill="#F3F4F6"/>
<path d="M76.1437 61.2675C73.8754 61.2675 72.0269 59.3939 72.0269 57.0883C72.0269 54.7826 73.8725 52.9091 76.1437 52.9091C78.415 52.9091 80.2605 54.7826 80.2605 57.0883C80.2605 59.3939 78.415 61.2675 76.1437 61.2675ZM76.1437 53.3826C74.1319 53.3826 72.4934 55.046 72.4934 57.0883C72.4934 59.1305 74.1319 60.7939 76.1437 60.7939C78.1555 60.7939 79.794 59.1305 79.794 57.0883C79.794 55.046 78.1555 53.3826 76.1437 53.3826Z" fill="#5798F7"/>
<path d="M76.0912 58.9145C74.9454 58.9145 74.0124 57.9674 74.0124 56.8042C74.0124 55.641 74.9454 54.6938 76.0912 54.6938C77.2371 54.6938 78.17 55.641 78.17 56.8042C78.17 57.9674 77.2371 58.9145 76.0912 58.9145ZM76.0912 55.1645C75.202 55.1645 74.476 55.8985 74.476 56.8042C74.476 57.7099 75.1991 58.4439 76.0912 58.4439C76.9834 58.4439 77.7065 57.7099 77.7065 56.8042C77.7065 55.8985 76.9834 55.1645 76.0912 55.1645Z" fill="#F9D346"/>
<path d="M77.0679 57.0025C76.9397 57.0025 76.8347 56.8959 76.8347 56.7657C76.8347 56.3691 76.5169 56.0464 76.1262 56.0464C75.9979 56.0464 75.893 55.9399 75.893 55.8097C75.893 55.6794 75.9979 55.5729 76.1262 55.5729C76.7735 55.5729 77.3012 56.1086 77.3012 56.7657C77.3012 56.8959 77.1962 57.0025 77.0679 57.0025Z" fill="#F9D346"/>
<path d="M77.9893 59.6101C77.931 59.6101 77.8697 59.5864 77.826 59.542L76.8755 58.5771C76.7851 58.4853 76.7851 58.3344 76.8755 58.2426C76.9659 58.1509 77.1146 58.1509 77.205 58.2426L78.1555 59.2075C78.2458 59.2993 78.2458 59.4502 78.1555 59.542C78.1088 59.5893 78.0505 59.6101 77.9922 59.6101H77.9893Z" fill="#F9D346"/>
<path d="M31.9812 19.7803C31.2756 19.7803 30.7041 19.1972 30.7041 18.4839C30.7041 17.7706 31.2785 17.1875 31.9812 17.1875C32.6838 17.1875 33.2582 17.7706 33.2582 18.4839C33.2582 19.1972 32.6838 19.7803 31.9812 19.7803ZM31.9812 17.738C31.5759 17.738 31.2464 18.0725 31.2464 18.4839C31.2464 18.8953 31.5759 19.2297 31.9812 19.2297C32.3864 19.2297 32.7159 18.8953 32.7159 18.4839C32.7159 18.0725 32.3864 17.738 31.9812 17.738Z" fill="#B6DAFF"/>
<path d="M35.6315 19.7803C34.9259 19.7803 34.3545 19.1972 34.3545 18.4839C34.3545 17.7706 34.9288 17.1875 35.6315 17.1875C36.3342 17.1875 36.9085 17.7706 36.9085 18.4839C36.9085 19.1972 36.3342 19.7803 35.6315 19.7803ZM35.6315 17.738C35.2262 17.738 34.8968 18.0725 34.8968 18.4839C34.8968 18.8953 35.2262 19.2297 35.6315 19.2297C36.0368 19.2297 36.3662 18.8953 36.3662 18.4839C36.3662 18.0725 36.0368 17.738 35.6315 17.738Z" fill="#B6DAFF"/>
<path d="M39.2789 19.7803C38.5733 19.7803 38.0019 19.1972 38.0019 18.4839C38.0019 17.7706 38.5762 17.1875 39.2789 17.1875C39.9816 17.1875 40.5559 17.7706 40.5559 18.4839C40.5559 19.1972 39.9816 19.7803 39.2789 19.7803ZM39.2789 17.738C38.8736 17.738 38.5442 18.0725 38.5442 18.4839C38.5442 18.8953 38.8736 19.2297 39.2789 19.2297C39.6842 19.2297 40.0136 18.8953 40.0136 18.4839C40.0136 18.0725 39.6842 17.738 39.2789 17.738Z" fill="#B6DAFF"/>
<path d="M78.7502 41.7418H54.2622C53.1426 41.7418 52.2329 40.8184 52.2329 39.6818V20.6682C52.2329 19.5908 53.0959 18.7147 54.1572 18.7147H78.7502C79.8115 18.7147 80.6745 19.5908 80.6745 20.6682V39.7913C80.6745 40.8687 79.8115 41.7448 78.7502 41.7448V41.7418ZM54.1572 19.2652C53.3962 19.2652 52.7752 19.8927 52.7752 20.6682V39.6848C52.7752 40.5165 53.4429 41.1943 54.2622 41.1943H78.7502C79.5112 41.1943 80.1322 40.5668 80.1322 39.7913V20.6682C80.1322 19.8957 79.5141 19.2652 78.7502 19.2652H54.1572Z" fill="#B6DAFF"/>
<path d="M80.4007 33.7536L75.0127 32.919V31.2852H80.4007V33.7536Z" fill="#B6DAFF"/>
<path d="M82.4268 50.7306C82.1615 50.7306 81.9107 50.627 81.7242 50.4346L79.8582 48.5404L79.243 49.1649C78.9747 49.4372 78.5899 49.5141 78.2429 49.3661C77.8931 49.2181 77.6744 48.8896 77.6744 48.5048V44.4588C77.6744 44.2102 77.7706 43.9764 77.9426 43.7988C78.1176 43.6212 78.3479 43.5265 78.5928 43.5265H82.5784C82.9575 43.5265 83.2811 43.7485 83.4269 44.1036C83.5726 44.4588 83.4968 44.8495 83.2286 45.1189L82.2431 46.1193C82.1382 46.2258 81.9662 46.2258 81.8583 46.1193C81.7533 46.0127 81.7533 45.8381 81.8583 45.7286L82.8437 44.7282C83.0099 44.5595 82.9487 44.3671 82.9254 44.3108C82.9021 44.2546 82.8117 44.0741 82.5784 44.0741H78.5928C78.4937 44.0741 78.3975 44.1125 78.3275 44.1865C78.2575 44.2605 78.2167 44.3552 78.2167 44.4559V48.5019C78.2167 48.7387 78.3945 48.8304 78.4499 48.8541C78.5053 48.8778 78.6949 48.9399 78.8581 48.7712L79.6657 47.9514C79.7707 47.8448 79.9427 47.8448 80.0506 47.9514L82.109 50.041C82.1936 50.1268 82.3073 50.1742 82.4268 50.1742C82.5463 50.1742 82.6601 50.1268 82.7446 50.041L84.0974 48.6676C84.182 48.5818 84.2287 48.4664 84.2287 48.345C84.2287 48.2237 84.182 48.1082 84.0974 48.0224L82.8233 46.729C82.7184 46.6224 82.7184 46.4478 82.8233 46.3383C82.9283 46.2317 83.1003 46.2317 83.2082 46.3383L84.4823 47.6317C84.6689 47.8211 84.7739 48.0757 84.7739 48.345C84.7739 48.6144 84.6718 48.8689 84.4823 49.0583L83.1295 50.4317C82.9429 50.6211 82.6921 50.7276 82.4268 50.7276V50.7306Z" fill="#5798F7"/>
<path d="M37.617 32.5428V24.9243C37.617 23.4652 38.7833 22.2812 40.2206 22.2812H72.1697C73.6071 22.2812 74.7734 23.4652 74.7734 24.9243V46.5455C74.7734 48.0047 73.6071 49.1886 72.1697 49.1886H40.2206C38.7833 49.1886 37.617 48.0047 37.617 46.5455V34.6117" fill="#F3F4F6"/>
<path d="M72.1697 49.4639H40.2206C38.6346 49.4639 37.3459 48.1556 37.3459 46.5455V34.6117H37.8882V46.5455C37.8882 47.8508 38.9349 48.9133 40.2206 48.9133H72.1697C73.4555 48.9133 74.5022 47.8508 74.5022 46.5455V24.9243C74.5022 23.6191 73.4555 22.5565 72.1697 22.5565H40.2206C38.9349 22.5565 37.8882 23.6191 37.8882 24.9243V32.5428H37.3459V24.9243C37.3459 23.3142 38.6346 22.006 40.2206 22.006H72.1697C73.7558 22.006 75.0445 23.3142 75.0445 24.9243V46.5455C75.0445 48.1556 73.7558 49.4639 72.1697 49.4639Z" fill="#F9D346"/>
<path d="M61.3237 26.0668H37.6141C37.4654 26.0668 37.343 25.9424 37.343 25.7915C37.343 25.6405 37.4654 25.5162 37.6141 25.5162H61.3237C61.4724 25.5162 61.5949 25.6405 61.5949 25.7915C61.5949 25.9424 61.4724 26.0668 61.3237 26.0668Z" fill="#F9D346"/>
<path d="M44.4308 43.8462C44.352 43.8462 44.2762 43.8136 44.2179 43.7515C44.1071 43.6331 44.1159 43.4466 44.2325 43.3342L53.3204 34.7064C53.4341 34.5969 53.6149 34.5998 53.7257 34.7123L60.2537 41.3393L66.2278 33.1229C66.324 32.9927 66.5047 32.9631 66.633 33.0608C66.7613 33.1584 66.7905 33.3419 66.6943 33.4722L60.519 41.9667C60.4695 42.0348 60.3907 42.0792 60.3062 42.0851C60.2216 42.091 60.14 42.0614 60.0788 41.9993L53.5099 35.3309L44.6261 43.7633C44.5707 43.8166 44.4978 43.8432 44.4278 43.8432L44.4308 43.8462Z" fill="#B6DAFF"/>
<path d="M53.3292 36.7871C54.0747 36.7871 54.6791 36.1736 54.6791 35.4168C54.6791 34.6599 54.0747 34.0464 53.3292 34.0464C52.5836 34.0464 51.9792 34.6599 51.9792 35.4168C51.9792 36.1736 52.5836 36.7871 53.3292 36.7871Z" stroke="#F9D346" stroke-miterlimit="10"/>
<path d="M53.3292 37.0624C52.4341 37.0624 51.7081 36.3254 51.7081 35.4168C51.7081 34.5081 52.4341 33.7711 53.3292 33.7711C54.2243 33.7711 54.9502 34.5081 54.9502 35.4168C54.9502 36.3254 54.2243 37.0624 53.3292 37.0624ZM53.3292 34.3216C52.7344 34.3216 52.2504 34.813 52.2504 35.4168C52.2504 36.0206 52.7344 36.5119 53.3292 36.5119C53.924 36.5119 54.4079 36.0206 54.4079 35.4168C54.4079 34.813 53.924 34.3216 53.3292 34.3216Z" stroke="#F9D346" stroke-miterlimit="10"/>
<path d="M60.3907 42.3515C60.9076 42.3515 61.3266 41.9261 61.3266 41.4014C61.3266 40.8767 60.9076 40.4513 60.3907 40.4513C59.8739 40.4513 59.4548 40.8767 59.4548 41.4014C59.4548 41.9261 59.8739 42.3515 60.3907 42.3515Z" stroke="#F9D346" stroke-miterlimit="10"/>
<path d="M60.3907 42.6267C59.726 42.6267 59.1837 42.0762 59.1837 41.4014C59.1837 40.7265 59.726 40.176 60.3907 40.176C61.0555 40.176 61.5978 40.7265 61.5978 41.4014C61.5978 42.0762 61.0555 42.6267 60.3907 42.6267ZM60.3907 40.7295C60.0263 40.7295 59.7289 41.0314 59.7289 41.4014C59.7289 41.7713 60.0263 42.0732 60.3907 42.0732C60.7552 42.0732 61.0526 41.7713 61.0526 41.4014C61.0526 41.0314 60.7552 40.7295 60.3907 40.7295Z" stroke="#F9D346" stroke-miterlimit="10"/>
<path d="M66.8371 36.0856C66.6884 36.0856 66.566 35.9613 66.566 35.8103V33.4159H64.3239C64.1752 33.4159 64.0527 33.2916 64.0527 33.1406C64.0527 32.9897 64.1752 32.8654 64.3239 32.8654H67.1083V35.8133C67.1083 35.9642 66.9858 36.0886 66.8371 36.0886V36.0856Z" fill="#F9D346"/>
<path d="M95.9231 48.0047H86.2462C86.0975 48.0047 85.9751 47.8804 85.9751 47.7295C85.9751 47.5785 86.0975 47.4542 86.2462 47.4542H95.9231C96.0718 47.4542 96.1942 47.5785 96.1942 47.7295C96.1942 47.8804 96.0718 48.0047 95.9231 48.0047Z" fill="#B6DAFF"/>
<path d="M93.9201 49.9167H93.1795C93.0308 49.9167 92.9084 49.7924 92.9084 49.6415C92.9084 49.4905 93.0308 49.3662 93.1795 49.3662H93.9201C94.0688 49.3662 94.1912 49.4905 94.1912 49.6415C94.1912 49.7924 94.0688 49.9167 93.9201 49.9167Z" fill="#B6DAFF"/>
<path d="M91.4768 49.9167H86.1413C85.9926 49.9167 85.8701 49.7924 85.8701 49.6415C85.8701 49.4905 85.9926 49.3662 86.1413 49.3662H91.4768C91.6255 49.3662 91.748 49.4905 91.748 49.6415C91.748 49.7924 91.6255 49.9167 91.4768 49.9167Z" fill="#B6DAFF"/>
<path d="M63.8515 31.2139H75.0124V32.9187L63.8515 31.2139Z" fill="#F9D346"/>
<path d="M82.0799 25.7915H64.8458C63.3515 25.7915 62.1401 27.0212 62.1401 28.5382C62.1401 30.0551 63.3515 31.2849 64.8458 31.2849H82.0799C83.5742 31.2849 84.7855 30.0551 84.7855 28.5382C84.7855 27.0212 83.5742 25.7915 82.0799 25.7915Z" fill="#F3F4F6"/>
<path d="M82.2577 31.5602H64.6737C63.1285 31.5602 61.8719 30.2845 61.8719 28.7158V28.3636C61.8719 26.795 63.1285 25.5193 64.6737 25.5193H82.2577C83.803 25.5193 85.0596 26.795 85.0596 28.3636V28.7158C85.0596 30.2845 83.803 31.5602 82.2577 31.5602ZM64.6737 26.0668C63.4288 26.0668 62.4142 27.0968 62.4142 28.3607V28.7129C62.4142 29.9767 63.4288 31.0067 64.6737 31.0067H82.2577C83.5027 31.0067 84.5173 29.9767 84.5173 28.7129V28.3607C84.5173 27.0968 83.5027 26.0668 82.2577 26.0668H64.6737Z" fill="#5798F7"/>
<path d="M73.4672 26.8304L73.9745 27.8752L75.1087 28.044L74.2865 28.8549L74.4818 30.0033L73.4672 29.4617L72.4526 30.0033L72.645 28.8549L71.8228 28.044L72.9599 27.8752L73.4672 26.8304Z" fill="#F9D346"/>
<path d="M67.9334 26.8304L68.4407 27.8752L69.5749 28.044L68.7556 28.8549L68.948 30.0033L67.9334 29.4617L66.9188 30.0033L67.1112 28.8549L66.2919 28.044L67.4261 27.8752L67.9334 26.8304Z" fill="#F9D346"/>
<path d="M78.9981 26.8304L79.5083 27.8752L80.6425 28.044L79.8203 28.8549L80.0156 30.0033L78.9981 29.4617L77.9834 30.0033L78.1788 28.8549L77.3566 28.044L78.4908 27.8752L78.9981 26.8304Z" fill="#F9D346"/>
<path d="M41.3344 42.7156L37.8765 47.2648C37.7599 47.4009 37.4217 47.0813 37.4217 46.9007V42.7156H41.3344Z" fill="#F9D346"/>
<path d="M36.6374 44.9975C39.663 44.9975 42.1158 42.5076 42.1158 39.4361C42.1158 36.3646 39.663 33.8746 36.6374 33.8746C33.6117 33.8746 31.159 36.3646 31.159 39.4361C31.159 42.5076 33.6117 44.9975 36.6374 44.9975Z" fill="#F3F4F6"/>
<path d="M36.6374 45.2729C33.4681 45.2729 30.8878 42.6564 30.8878 39.4362C30.8878 36.2159 33.4652 33.5995 36.6374 33.5995C39.8095 33.5995 42.3869 36.2159 42.3869 39.4362C42.3869 42.6564 39.8095 45.2729 36.6374 45.2729ZM36.6374 34.153C33.7655 34.153 31.433 36.5238 31.433 39.4362C31.433 42.3486 33.7684 44.7194 36.6374 44.7194C39.5063 44.7194 41.8417 42.3486 41.8417 39.4362C41.8417 36.5238 39.5063 34.153 36.6374 34.153Z" fill="#5798F7"/>
<path d="M34.544 38.7968C34.0163 38.7968 33.5906 38.3617 33.5906 37.8289C33.5906 37.2962 34.0192 36.8611 34.544 36.8611C35.0688 36.8611 35.4974 37.2962 35.4974 37.8289C35.4974 38.3617 35.0688 38.7968 34.544 38.7968ZM34.544 37.4086C34.3166 37.4086 34.1329 37.5951 34.1329 37.826C34.1329 38.0568 34.3166 38.2433 34.544 38.2433C34.7714 38.2433 34.9551 38.0568 34.9551 37.826C34.9551 37.5951 34.7714 37.4086 34.544 37.4086Z" fill="#5798F7"/>
<path d="M35.063 42.1739H34.025C33.5206 42.1739 33.0629 41.8897 32.8354 41.4339C32.608 40.9781 32.6489 40.4365 32.9462 40.0221L33.2786 39.5574C33.576 39.1431 34.0367 38.9033 34.544 38.9033C35.0513 38.9033 35.512 39.1401 35.8094 39.5574L36.1417 40.0221C36.4391 40.4365 36.4829 40.9781 36.2525 41.4339C36.0222 41.8897 35.5674 42.1739 35.063 42.1739ZM33.3836 40.3447C33.2057 40.5934 33.1795 40.9071 33.3165 41.1824C33.4536 41.4576 33.7189 41.6234 34.0221 41.6234H35.06C35.3633 41.6234 35.6286 41.4576 35.7656 41.1824C35.9027 40.9071 35.8793 40.5934 35.6986 40.3447L35.3662 39.88C35.1708 39.6077 34.8705 39.4538 34.5411 39.4538C34.2116 39.4538 33.9084 39.6077 33.716 39.88L33.3836 40.3447Z" fill="#5798F7"/>
<path d="M38.8212 38.7968C38.2934 38.7968 37.8678 38.3617 37.8678 37.8289C37.8678 37.2962 38.2964 36.8611 38.8212 36.8611C39.346 36.8611 39.7746 37.2962 39.7746 37.8289C39.7746 38.3617 39.346 38.7968 38.8212 38.7968ZM38.8212 37.4086C38.5937 37.4086 38.4101 37.5951 38.4101 37.826C38.4101 38.0568 38.5937 38.2433 38.8212 38.2433C39.0486 38.2433 39.2323 38.0568 39.2323 37.826C39.2323 37.5951 39.0486 37.4086 38.8212 37.4086Z" fill="#F9D346"/>
<path d="M36.6374 38.1012C36.1097 38.1012 35.684 37.6661 35.684 37.1334C35.684 36.6006 36.1126 36.1655 36.6374 36.1655C37.1622 36.1655 37.5908 36.6006 37.5908 37.1334C37.5908 37.6661 37.1622 38.1012 36.6374 38.1012ZM36.6374 36.7131C36.41 36.7131 36.2263 36.8996 36.2263 37.1304C36.2263 37.3613 36.41 37.5477 36.6374 37.5477C36.8648 37.5477 37.0485 37.3613 37.0485 37.1304C37.0485 36.8996 36.8648 36.7131 36.6374 36.7131Z" fill="#B6DAFF"/>
<path d="M37.3342 39.1046C37.2642 39.1046 37.1943 39.078 37.1418 39.0247C36.8619 38.7406 36.4071 38.7406 36.1272 39.0247C36.0222 39.1313 35.8502 39.1313 35.7423 39.0247C35.6373 38.9182 35.6373 38.7436 35.7423 38.634C36.235 38.1368 37.0339 38.1368 37.5237 38.634C37.6287 38.7406 37.6287 38.9152 37.5237 39.0247C37.4712 39.078 37.4013 39.1046 37.3313 39.1046H37.3342Z" fill="#B6DAFF"/>
<path d="M39.3431 42.1739H38.3051C37.8007 42.1739 37.343 41.8897 37.1155 41.4339C36.8852 40.9781 36.9289 40.4365 37.2263 40.0221L37.5587 39.5574C37.8561 39.1431 38.3168 38.9033 38.8241 38.9033C39.3314 38.9033 39.7921 39.1401 40.0895 39.5574L40.4218 40.0221C40.7192 40.4365 40.763 40.9781 40.5326 41.4339C40.3023 41.8897 39.8475 42.1739 39.3431 42.1739ZM38.8241 39.4538C38.4946 39.4538 38.1914 39.6077 37.999 39.88L37.6666 40.3447C37.4887 40.5934 37.4625 40.9071 37.5995 41.1824C37.7366 41.4576 38.0019 41.6234 38.3051 41.6234H39.3431C39.6463 41.6234 39.9116 41.4576 40.0486 41.1824C40.1857 40.9071 40.1623 40.5934 39.9816 40.3447L39.6492 39.88C39.4539 39.6077 39.1535 39.4538 38.8241 39.4538Z" fill="#F9D346"/>
<path d="M23.4239 68.0099C23.5289 68.1164 23.5289 68.294 23.4239 68.4005C23.3714 68.4538 23.3014 68.4805 23.2315 68.4805C23.1615 68.4805 23.0915 68.4538 23.039 68.4005L22.6396 67.9951L22.2402 68.4005C22.1877 68.4538 22.1177 68.4805 22.0477 68.4805C21.9778 68.4805 21.9078 68.4538 21.8553 68.4005C21.7503 68.294 21.7503 68.1194 21.8553 68.0099L22.2547 67.6044L21.8553 67.1989C21.7503 67.0923 21.7503 66.9177 21.8553 66.8082C21.9603 66.7016 22.1323 66.7016 22.2402 66.8082L22.6396 67.2137L23.039 66.8082C23.144 66.7016 23.316 66.7016 23.4239 66.8082C23.5289 66.9147 23.5289 67.0894 23.4239 67.1989L23.0245 67.6044L23.4239 68.0099Z" fill="#F9D346"/>
<path d="M50.5798 7.83456C50.6847 7.94112 50.6847 8.11574 50.5798 8.22525C50.5273 8.27853 50.4573 8.30517 50.3873 8.30517C50.3174 8.30517 50.2474 8.27853 50.1949 8.22525L49.7955 7.81976L49.396 8.22525C49.3435 8.27853 49.2736 8.30517 49.2036 8.30517C49.1336 8.30517 49.0637 8.27853 49.0112 8.22525C48.9062 8.1187 48.9062 7.94408 49.0112 7.83456L49.4106 7.42907L49.0112 7.02358C48.9062 6.91703 48.9062 6.7424 49.0112 6.63289C49.1161 6.52634 49.2881 6.52634 49.396 6.63289L49.7955 7.03838L50.1949 6.63289C50.2999 6.52634 50.4748 6.52634 50.5798 6.63289C50.6847 6.73944 50.6847 6.91407 50.5798 7.02358L50.1803 7.42907L50.5798 7.83456Z" fill="#F9D346"/>
<path d="M96.5325 29.8642L96.6054 30.1069C97.3109 32.4777 95.5528 34.8663 93.1125 34.8515L91.78 34.8426C91.0395 34.8367 90.3223 34.6413 89.9665 33.8274C89.6954 34.1974 88.9723 34.742 88.4971 34.5792L86.6282 33.9428C86.1821 33.7919 85.8322 33.4337 85.6835 32.9809L85.5319 32.5162C85.2724 31.72 85.6952 30.8587 86.4795 30.5923L86.1413 30.7078C85.5436 30.909 84.8992 30.5805 84.6981 29.9738L84.5581 29.5446C84.389 29.0237 84.6019 28.4672 85.045 28.192L81.4792 29.2782C81.3655 29.3137 81.2489 29.3315 81.1323 29.3315C80.6454 29.3315 80.1935 29.0296 80.0098 28.5471C79.7853 27.9463 80.0564 27.2715 80.6337 27.0051L88.2813 23.4711C88.9898 23.1426 89.812 23.2018 90.4709 23.625L93.1445 25.3417C94.7714 26.3865 95.9727 27.9937 96.5295 29.8642H96.5325Z" fill="#F3F4F6"/>
<path d="M93.1125 35.1266L91.7801 35.1177C90.9054 35.1089 90.2931 34.8395 89.9141 34.292C89.5263 34.6531 88.9169 35.0141 88.4125 34.8425L86.5436 34.2061C86.0188 34.0285 85.6019 33.6023 85.427 33.0696L85.2754 32.6049C85.0917 32.0484 85.1966 31.4654 85.4999 31.0155C85.0217 30.9149 84.6077 30.5656 84.4415 30.0624L84.3015 29.6303C84.1995 29.3195 84.2082 28.994 84.3074 28.7039L81.558 29.5415C81.418 29.583 81.2781 29.6037 81.1352 29.6037C80.5288 29.6037 79.9748 29.2159 79.759 28.6417C79.4821 27.9048 79.8203 27.076 80.5258 26.7504L88.1735 23.2165C88.9694 22.8495 89.882 22.9146 90.6196 23.3881C90.6255 23.3881 90.6284 23.3941 90.6313 23.397L95.6986 27.0849C95.8211 27.1737 95.8473 27.3454 95.7598 27.4697C95.6724 27.594 95.5033 27.6206 95.3808 27.5318L90.3193 23.8499C89.7391 23.4799 89.019 23.4296 88.395 23.7196L80.7474 27.2536C80.3014 27.4578 80.0885 27.9847 80.2634 28.4494C80.4005 28.8134 80.7474 29.0561 81.1323 29.0561C81.2227 29.0561 81.3131 29.0413 81.4005 29.0147L84.9663 27.9284C85.0975 27.887 85.2375 27.9521 85.2928 28.0794C85.3482 28.2067 85.3045 28.3546 85.1879 28.4257C84.8409 28.6417 84.6893 29.065 84.8176 29.4557L84.9576 29.8848C85.1092 30.3466 85.6019 30.5982 86.0567 30.4442L86.3949 30.3288C86.5378 30.2815 86.6894 30.3584 86.739 30.5034C86.7856 30.6485 86.7098 30.8024 86.567 30.8527C85.9255 31.0688 85.5757 31.7761 85.7914 32.4273L85.943 32.892C86.0655 33.262 86.3541 33.555 86.7186 33.6793L88.5875 34.3156C88.8907 34.4192 89.5088 33.993 89.7537 33.6586C89.812 33.5787 89.9053 33.5372 90.0015 33.5491C90.0978 33.5609 90.1794 33.6201 90.2202 33.7118C90.4739 34.292 90.9579 34.5554 91.7888 34.5613L93.1183 34.5702C93.267 34.5702 93.3895 34.6945 93.3895 34.8484C93.3895 34.9993 93.267 35.1237 93.1183 35.1237L93.1125 35.1266Z" fill="#5798F7"/>
<path d="M88.8528 34.9164C88.707 34.9164 88.5583 34.8927 88.4125 34.8424L86.5436 34.2061C86.0188 34.0285 85.6019 33.6023 85.427 33.0695L85.2754 32.6048C84.9663 31.6636 85.4707 30.6455 86.3979 30.3347L89.6837 29.2248C89.8266 29.1774 89.9782 29.2544 90.0278 29.3994C90.0744 29.5444 89.9986 29.7013 89.8558 29.7486L86.5699 30.8586C85.9285 31.0746 85.5786 31.782 85.7914 32.4332L85.943 32.8979C86.0655 33.2678 86.3541 33.5608 86.7186 33.6852L88.5875 34.3215C88.844 34.4073 89.1152 34.3659 89.3339 34.2061C89.5525 34.0462 89.6779 33.7976 89.6779 33.5253V33.0399C89.6779 32.889 89.8004 32.7647 89.9491 32.7647C90.0978 32.7647 90.2202 32.889 90.2202 33.0399V33.5253C90.2202 33.9782 90.0132 34.3896 89.6488 34.656C89.4097 34.8306 89.1327 34.9194 88.8528 34.9194V34.9164Z" fill="#5798F7"/>
<path d="M84.5989 28.6063C84.4881 28.6063 84.3832 28.5352 84.3424 28.4228C84.2928 28.2777 84.3657 28.1209 84.5085 28.0705L88.3571 26.6913C88.4971 26.641 88.6545 26.715 88.7041 26.86C88.7536 27.005 88.6808 27.1619 88.5379 27.2122L84.6893 28.5915C84.6602 28.6033 84.6281 28.6063 84.5989 28.6063Z" fill="#5798F7"/>
<path d="M88.6953 33.4484C88.57 33.4484 88.4592 33.3626 88.43 33.2353C88.398 33.0873 88.4883 32.9393 88.6341 32.9068L90.9491 32.3711C91.0949 32.3385 91.2407 32.4303 91.2727 32.5782C91.3048 32.7262 91.2144 32.8742 91.0686 32.9068L88.7537 33.4425C88.7333 33.4484 88.7128 33.4484 88.6924 33.4484H88.6953Z" fill="#5798F7"/>
<path d="M80.867 28.92C81.2518 28.92 81.5638 28.6033 81.5638 28.2126C81.5638 27.822 81.2518 27.5052 80.867 27.5052C80.4821 27.5052 80.1701 27.822 80.1701 28.2126C80.1701 28.6033 80.4821 28.92 80.867 28.92Z" fill="#B6DAFF"/>
<path d="M53.3292 36.5119C53.925 36.5119 54.4079 36.0216 54.4079 35.4168C54.4079 34.812 53.925 34.3217 53.3292 34.3217C52.7334 34.3217 52.2504 34.812 52.2504 35.4168C52.2504 36.0216 52.7334 36.5119 53.3292 36.5119Z" fill="white"/>
<path d="M60.3907 42.2656C60.8609 42.2656 61.2421 41.8787 61.2421 41.4014C61.2421 40.924 60.8609 40.5371 60.3907 40.5371C59.9205 40.5371 59.5394 40.924 59.5394 41.4014C59.5394 41.8787 59.9205 42.2656 60.3907 42.2656Z" fill="white"/>
</g>
<defs>
<clipPath id="clip0_3496_24640">
<rect width="118" height="70" fill="white"/>
</clipPath>
</defs>
</svg>
