<svg width="182" height="120" viewBox="0 0 182 120" fill="none" xmlns="http://www.w3.org/2000/svg">
<g clip-path="url(#clip0_1_1233)">
<path d="M33.8583 122.203L62.0438 62.2686L31.2382 62.7125L27.8917 64.9445L1.71892 122.203H33.8583Z" fill="white"/>
<path d="M113.21 73.5223L135.27 29.3666L123.036 29.1996L125.378 24.2753L155.58 7.05042H157.223L171.046 23.1308L173.364 26.2507L172.618 28.332L171.943 28.9796L160.344 28.6375L134.778 82.1857L123.059 106.082L118.955 99.7445L113.21 73.5223Z" fill="white"/>
<path d="M97.2319 107.605C97.1565 107.605 97.0811 107.589 97.0096 107.553C96.7675 107.426 96.6682 107.125 96.7913 106.872L134.596 29.6517H126.779C125.469 29.6517 124.405 28.8126 124.068 27.5174C123.73 26.2222 124.242 24.9473 125.378 24.2793L154.619 6.9934C155.766 6.3132 157.239 6.55758 158.12 7.57584L173.091 24.8618C173.833 25.7212 174.012 26.9065 173.551 27.9532C173.091 29 172.11 29.6517 170.991 29.6517H160.947L146.422 59.3197C146.298 59.5681 146.005 59.6699 145.759 59.5437C145.516 59.4174 145.417 59.116 145.54 58.8635L160.336 28.6375H170.987C171.713 28.6375 172.348 28.2139 172.646 27.5337C172.944 26.8535 172.829 26.0837 172.344 25.5257L157.374 8.23974C156.803 7.57991 155.85 7.42106 155.103 7.86095L125.862 25.1469C124.969 25.6764 124.846 26.6091 125.012 27.2486C125.179 27.8881 125.739 28.6334 126.771 28.6334H136.187L97.6646 107.32C97.5773 107.495 97.4026 107.597 97.224 107.597L97.2319 107.605Z" fill="#FFD14C"/>
<path d="M135.27 81.4851C135.195 81.4851 135.12 81.4688 135.048 81.4322C134.806 81.3059 134.707 81.0045 134.83 80.752L139.744 70.7119C139.867 70.4635 140.161 70.3617 140.407 70.4879C140.649 70.6142 140.749 70.9156 140.626 71.1681L135.711 81.2081C135.624 81.3833 135.449 81.4851 135.27 81.4851Z" fill="#FFD14C"/>
<path d="M137.482 67.7305H181.622C181.622 62.4722 177.362 60.7371 173.551 60.7371C172.312 60.7371 171.133 61.0507 170.074 61.6087C170.26 60.9 170.363 60.1506 170.363 59.3726C170.363 55.1122 167.326 52.5462 163.579 52.5462C160.256 52.5462 157.489 54.3791 156.91 57.9674C156.239 57.7678 155.532 57.6579 154.806 57.6579C151.154 57.6579 148.041 60.3664 146.878 64.1543C145.985 63.7226 145 63.4823 143.972 63.4823C141.221 63.4823 138.815 65.1848 137.482 67.7305Z" fill="#B6DAFF"/>
<path d="M49.3524 55.8779H7.52672C7.43939 55.4136 7.39572 54.9371 7.39572 54.4483C7.39572 50.1105 10.9328 46.5955 15.2956 46.5955C16.3158 46.5955 17.2924 46.7869 18.1856 47.1372C19.6465 42.8605 23.4932 39.8098 28.0148 39.8098C33.7869 39.8098 38.4672 44.7911 38.4672 50.9414C38.4672 51.5157 38.4275 52.0778 38.3481 52.6277C39.42 50.9007 41.262 49.7602 43.354 49.7602C46.5815 49.7602 49.2174 52.477 49.3484 55.8779H49.3524Z" fill="#B6DAFF"/>
<path d="M150.316 82.1164C150.51 82.316 150.51 82.6337 150.316 82.8333C150.221 82.931 150.094 82.984 149.967 82.984C149.84 82.984 149.712 82.9351 149.617 82.8333L148.839 82.035L148.057 82.8333C147.962 82.931 147.835 82.984 147.708 82.984C147.581 82.984 147.454 82.9351 147.358 82.8333C147.164 82.6378 147.164 82.316 147.358 82.1164L148.136 81.3181L147.358 80.5198C147.164 80.3202 147.164 80.0025 147.358 79.8029C147.549 79.6034 147.863 79.6034 148.053 79.8029L148.835 80.6013L149.613 79.8029C149.808 79.6034 150.117 79.6034 150.312 79.8029C150.506 80.0025 150.506 80.3202 150.312 80.5198L149.534 81.3181L150.312 82.1164H150.316Z" fill="#B6DAFF"/>
<path d="M87.5854 4.63511C87.7799 4.83062 87.7799 5.15239 87.5854 5.35197C87.4901 5.44972 87.3631 5.4986 87.236 5.4986C87.109 5.4986 86.982 5.44972 86.8867 5.35197L86.1086 4.55365L85.3305 5.35197C85.2353 5.44972 85.1082 5.4986 84.9812 5.4986C84.8542 5.4986 84.7271 5.44972 84.6319 5.35197C84.4373 5.15239 84.4373 4.83469 84.6319 4.63511L85.4099 3.8368L84.6319 3.03441C84.4373 2.83891 84.4373 2.51714 84.6319 2.31756C84.8224 2.12205 85.136 2.12205 85.3305 2.31756L86.1086 3.11587L86.8867 2.31756C87.0812 2.12205 87.3909 2.12205 87.5854 2.31756C87.7799 2.51714 87.7799 2.83483 87.5854 3.03441L86.8073 3.8368L87.5854 4.63511V4.63511Z" fill="#B6DAFF"/>
<path d="M59.8763 115.739C60.0668 115.935 60.0668 116.257 59.8763 116.456C59.781 116.554 59.654 116.603 59.5269 116.603C59.3999 116.603 59.2729 116.554 59.1776 116.456L58.3995 115.658L57.6175 116.456C57.5222 116.554 57.3951 116.603 57.2681 116.603C57.1411 116.603 57.0141 116.554 56.9188 116.456C56.7243 116.257 56.7243 115.939 56.9188 115.739L57.7008 114.941L56.9188 114.139C56.7243 113.943 56.7243 113.621 56.9188 113.422C57.1133 113.226 57.4229 113.226 57.6175 113.422L58.3995 114.224L59.1776 113.422C59.3681 113.226 59.6817 113.226 59.8763 113.422C60.0668 113.621 60.0668 113.939 59.8763 114.139L59.0982 114.941L59.8763 115.739Z" fill="#B6DAFF"/>
<path d="M42.707 37.533C42.9015 37.7285 42.9015 38.0503 42.707 38.2499C42.6117 38.3476 42.4846 38.3965 42.3576 38.3965C42.2306 38.3965 42.1035 38.3476 42.0083 38.2499L41.2302 37.4515L40.4521 38.2499C40.3568 38.3476 40.2298 38.3965 40.1028 38.3965C39.9757 38.3965 39.8487 38.3476 39.7534 38.2499C39.5589 38.0503 39.5589 37.7326 39.7534 37.533L40.5315 36.7347L39.7534 35.9323C39.5589 35.7368 39.5589 35.415 39.7534 35.2154C39.944 35.0199 40.2576 35.0199 40.4521 35.2154L41.2302 36.0138L42.0083 35.2154C42.2028 35.0199 42.5124 35.0199 42.707 35.2154C42.9015 35.415 42.9015 35.7327 42.707 35.9323L41.9289 36.7347L42.707 37.533V37.533Z" fill="#B6DAFF"/>
<path d="M130.094 90.2666L118.319 116.741L118.792 120.216H99.3875L96.3983 108.656L95.91 106.575H74.2707L88.8477 72.2271H119.229C128.26 72.2271 134.135 81.978 130.098 90.2666H130.094Z" fill="#83B7FF"/>
<path d="M118.792 120.704C118.558 120.704 118.355 120.529 118.323 120.285L113.329 83.1998C112.936 80.2958 111.535 77.6361 109.383 75.7095C107.228 73.783 104.469 72.724 101.611 72.724H90.1221C89.8601 72.724 89.6457 72.504 89.6457 72.2352C89.6457 71.9664 89.8601 71.7465 90.1221 71.7465H101.611C104.699 71.7465 107.68 72.891 110.007 74.9723C112.333 77.0536 113.849 79.9292 114.27 83.0654L119.264 120.15C119.3 120.415 119.117 120.664 118.859 120.7C118.836 120.7 118.816 120.704 118.796 120.704H118.792Z" fill="white"/>
<path d="M95.1319 103.809C94.9057 103.809 94.7072 103.642 94.6635 103.41L92.2975 89.9407C92.2499 89.676 92.4245 89.4234 92.6826 89.3746C92.9406 89.3257 93.1867 89.5049 93.2344 89.7696L95.6004 103.239C95.648 103.504 95.4733 103.756 95.2153 103.805C95.1875 103.809 95.1597 103.813 95.1319 103.813V103.809Z" fill="white"/>
<path d="M93.3376 93.5738C93.2582 93.5738 93.1788 93.5535 93.1073 93.5127L90.6818 92.1279C90.4515 91.9976 90.3721 91.7002 90.4992 91.464C90.6262 91.2278 90.916 91.1463 91.1462 91.2767L93.5718 92.6615C93.802 92.7918 93.8814 93.0892 93.7544 93.3254C93.6671 93.4842 93.5043 93.5738 93.3376 93.5738V93.5738Z" fill="white"/>
<path d="M119.919 125.58H100.463L99.324 119.784H119.165L119.919 125.58ZM101.154 124.712H118.955L118.427 120.647H100.36L101.158 124.712H101.154Z" fill="#5798F7"/>
<path d="M100.245 14.9969C103.361 14.9969 105.882 17.5996 105.866 20.7969V21.7296L104.842 21.8233C104.949 22.3487 105.005 22.8904 105.005 23.4403C105.005 28.108 101.071 31.8878 96.2196 31.8878C95.3701 31.8878 94.5484 31.7737 93.7742 31.5538L91.4837 37.7366L80.0626 48.7786C76.6526 52.0778 72.2342 53.7763 67.7841 53.7763C64.5487 53.7763 61.2974 52.8802 58.3955 51.0432C53.5365 47.9681 50.7894 42.8198 50.4599 37.4638C50.4321 38.5838 50.5115 39.7243 50.7021 40.8607C51.5596 46.0253 54.4535 50.5056 58.6456 53.1571C58.8679 53.2997 58.9394 53.6011 58.8004 53.8292C58.7131 53.9799 58.5543 54.0614 58.3955 54.0614C58.3122 54.0614 58.2248 54.0369 58.1454 53.9881C53.7231 51.1899 50.6664 46.4652 49.7652 41.0236C48.9395 36.0586 50.0947 31.0976 52.9291 27.3545L57.4706 21.3834L60.178 23.4566C66.1445 28.0265 73.7745 28.7638 80.2254 26.0267C78.9987 26.4258 77.7284 26.6987 76.4263 26.8331C75.7991 26.8983 75.1718 26.9309 74.5486 26.9309C70.1858 26.9309 65.9659 25.3546 62.4963 22.3976C62.3018 22.2306 62.274 21.9333 62.4368 21.7337C62.5995 21.5341 62.8893 21.5056 63.0838 21.6726C66.8591 24.8903 71.5633 26.3932 76.335 25.8963C81.1781 25.3954 85.7116 22.7968 88.8954 18.7645C90.396 16.5935 92.9128 15.1232 95.7909 14.9928L100.245 14.9847V14.9969Z" fill="#FFD14C"/>
<path d="M95.8584 25.766C96.3864 25.656 96.8429 25.3628 97.1645 24.9595C97.49 24.5563 97.6805 24.039 97.6805 23.4851L97.7957 22.4791L104.584 21.8477L104.604 21.9292C104.937 23.2815 105.453 23.8191 106.235 24.4097L106.259 24.4301C106.521 24.6296 106.438 25.0532 106.124 25.1306L105.179 25.3668L105.557 28.9145C105.557 28.9145 104.747 30.7351 102.016 30.2545V40.2538L90.0903 36.1889C89.4115 35.9608 89.3837 34.9833 90.0466 34.7145C92.0355 33.9039 93.6353 32.2218 94.338 30.0427L95.0327 27.8799L94.8779 28.0958C94.6238 28.4461 94.3022 28.7271 93.9331 28.9185C93.5083 29.1385 93.0279 29.2403 92.5357 29.2077C91.1304 29.1059 90.0585 27.8677 90.0585 26.4258V26.2222C90.0585 24.707 91.2534 23.4851 92.7262 23.4851H93.0915C94.1435 23.4851 95.1002 24.1205 95.5289 25.1062L95.8624 25.7701L95.8584 25.766Z" fill="white"/>
<path d="M102.436 38.1806H101.591V30.2545C101.591 30.1282 101.646 30.006 101.742 29.9246C101.837 29.8431 101.964 29.8065 102.087 29.8309C104.12 30.1893 104.921 29.1589 105.124 28.833L104.763 25.4239C104.739 25.208 104.878 25.0084 105.084 24.9555L105.95 24.7396C105.088 24.0839 104.282 23.2815 104.167 21.8926L105.009 21.8192C105.092 22.8212 105.66 23.4444 106.49 24.0716L106.517 24.092C106.771 24.2834 106.89 24.6011 106.827 24.9188C106.763 25.2365 106.533 25.485 106.227 25.5624L105.644 25.709L105.981 28.8778C105.989 28.9552 105.977 29.0326 105.946 29.1059C105.91 29.1874 105.068 30.9999 102.44 30.7596V38.1928L102.436 38.1806Z" fill="#5798F7"/>
<path d="M89.6973 35.3051L89.4393 34.4782C91.5591 33.7858 93.2384 32.0792 93.9331 29.9124L94.1276 29.3055H94.1196C93.6195 29.5702 93.0597 29.6843 92.5 29.6435C90.8922 29.5254 89.6298 28.1121 89.6298 26.4258V26.2181C89.6298 24.4667 91.0153 23.0452 92.7223 23.0452H93.0875C94.3062 23.0452 95.4138 23.7824 95.91 24.9229C95.91 24.931 95.918 24.9392 95.918 24.9473L96.18 25.6642L95.39 25.9697L95.1319 25.265C94.7667 24.4423 93.9648 23.9128 93.0835 23.9128H92.7183C91.4797 23.9128 90.4714 24.9473 90.4714 26.2181V26.4258C90.4714 27.66 91.3884 28.6905 92.5555 28.776C92.9644 28.8045 93.3694 28.723 93.7346 28.5357C94.0482 28.3728 94.3221 28.1324 94.5285 27.8433L94.6834 27.6274C94.8064 27.4563 95.0327 27.3993 95.2193 27.4971C95.4059 27.5948 95.4932 27.8147 95.4257 28.0184L94.731 30.1812C93.9529 32.6128 92.0673 34.5271 89.6894 35.3051H89.6973Z" fill="#5798F7"/>
<path d="M101.845 30.6903C101.825 30.6903 101.801 30.6903 101.781 30.6862C99.5741 30.336 98.5539 28.7841 98.5102 28.719C98.3832 28.5194 98.4348 28.2506 98.6293 28.1202C98.8238 27.9899 99.0858 28.0428 99.2129 28.2424C99.2486 28.2994 100.086 29.5458 101.904 29.8309C102.135 29.8676 102.293 30.0875 102.258 30.3237C102.226 30.5396 102.047 30.6903 101.841 30.6903H101.845Z" fill="#5798F7"/>
<path d="M105.179 25.3709C105.179 25.3709 104.79 25.5216 103.068 25.6886C102.432 25.7497 102.154 26.4951 102.682 26.8616C103.087 27.1427 103.592 27.3463 104.191 27.3463C105.005 27.3463 105.33 26.8087 105.33 26.8087L105.179 25.3709V25.3709Z" fill="white"/>
<path d="M104.195 27.7781C103.576 27.7781 102.992 27.5907 102.452 27.2201C102.079 26.9635 101.912 26.5358 102.016 26.1081C102.131 25.6479 102.536 25.3017 103.032 25.2569C104.616 25.1021 105.025 24.9677 105.041 24.9595C105.164 24.9107 105.295 24.927 105.406 24.9962C105.517 25.0654 105.588 25.1876 105.6 25.322L105.751 26.7598C105.763 26.8576 105.739 26.9513 105.692 27.0368C105.525 27.3138 105.021 27.7822 104.195 27.7822V27.7781ZM104.814 25.9004C104.481 25.9615 103.945 26.0389 103.111 26.1204C102.952 26.1366 102.857 26.2344 102.837 26.324C102.825 26.3688 102.825 26.434 102.925 26.5032C103.322 26.7761 103.75 26.9146 104.199 26.9146C104.568 26.9146 104.786 26.768 104.898 26.6702L104.818 25.9045L104.814 25.9004Z" fill="#5798F7"/>
<path d="M102.726 24.2712C102.492 24.2712 102.305 24.0757 102.305 23.8395C102.305 23.6928 102.19 23.5706 102.043 23.5706C101.896 23.5706 101.781 23.6888 101.781 23.8395C101.781 24.0798 101.591 24.2712 101.361 24.2712C101.13 24.2712 100.94 24.0757 100.94 23.8395C100.94 23.2122 101.436 22.7072 102.043 22.7072C102.651 22.7072 103.147 23.2163 103.147 23.8395C103.147 24.0798 102.956 24.2712 102.726 24.2712V24.2712Z" fill="#5798F7"/>
<path d="M92.7699 27.2404C92.5754 27.2404 92.4007 27.102 92.357 26.8983C92.3094 26.6661 92.4523 26.434 92.6826 26.381L92.9604 26.3199L92.4722 25.819C92.3054 25.6479 92.3054 25.375 92.4722 25.2039C92.6389 25.0329 92.9049 25.0329 93.0716 25.2039L94.1077 26.267C94.2189 26.381 94.2586 26.544 94.2149 26.6947C94.1712 26.8454 94.0482 26.9635 93.8973 26.9961L92.8612 27.2282C92.8294 27.2364 92.8016 27.2364 92.7699 27.2364V27.2404Z" fill="#5798F7"/>
<path d="M99.6654 27.3708C100.444 27.3708 101.075 26.7234 101.075 25.9248C101.075 25.1263 100.444 24.4789 99.6654 24.4789C98.8871 24.4789 98.2561 25.1263 98.2561 25.9248C98.2561 26.7234 98.8871 27.3708 99.6654 27.3708Z" fill="#B6DAFF"/>
<path d="M99.5027 23.1307C99.3042 23.1307 99.1454 22.9678 99.1454 22.7642V20.1696C99.1454 19.966 99.3042 19.8031 99.5027 19.8031C99.7012 19.8031 99.8599 19.966 99.8599 20.1696V22.7642C99.8599 22.9678 99.7012 23.1307 99.5027 23.1307Z" fill="white"/>
<path d="M104.417 65.9302L102.043 60.7004L88.6016 76.5486L87.6251 106.579H64.2867C53.207 106.579 46.2678 95.199 51.115 84.9797L69.6022 46.9172C72.9845 39.7813 79.5942 36.1726 87.3313 36.1726L88.9391 36.3151L89.1931 35.3906C89.1931 34.1076 90.1975 33.0608 91.44 33.0323C92.6826 33.0038 93.7743 34.1157 93.7901 35.4272C93.7901 35.6187 93.806 35.8182 93.8219 36.0137C94.2427 35.4557 94.8977 35.0973 95.6361 35.0973C96.7913 35.0973 97.748 35.973 97.9108 37.1094L98.0259 37.1175C98.3236 36.1685 99.189 35.4802 100.217 35.4802C101.388 35.4802 102.353 36.3762 102.496 37.5371C106.271 38.1847 109.066 41.8545 109.248 45.4632L110.952 38.3476L120.372 38.9993V62.3052C120.372 67.0177 116.668 70.8504 112.075 70.8911C108.796 70.9196 105.803 68.9809 104.417 65.9302V65.9302Z" fill="#B6DAFF"/>
<path d="M87.7045 100.148C87.7045 100.148 87.6886 100.148 87.6806 100.148C87.4067 100.136 87.1963 99.8993 87.2122 99.6183L89.5703 45.9275C89.6695 43.6751 88.9351 41.492 87.498 39.7813C87.3194 39.5695 87.3432 39.2518 87.5496 39.0685C87.7561 38.8852 88.0657 38.9097 88.2443 39.1215C89.8442 41.0277 90.662 43.4633 90.5508 45.9723L88.1927 99.6631C88.1808 99.936 87.9625 100.148 87.7005 100.148H87.7045Z" fill="#FFD14C"/>
<path d="M97.9346 37.7285C97.6607 37.7285 97.4423 37.5004 97.4423 37.2235C97.4423 36.193 96.827 35.4965 95.7989 35.3662C94.5603 35.2073 93.9886 36.3315 93.7544 37.0157C93.6631 37.2805 93.3852 37.419 93.1272 37.3253C92.8691 37.2316 92.7342 36.9465 92.8255 36.6818C93.3773 35.0525 94.5365 34.185 95.9219 34.3642C97.4463 34.5597 98.4268 35.6798 98.4268 37.2235C98.4268 37.5045 98.2045 37.7285 97.9346 37.7285Z" fill="#FFD14C"/>
<path d="M102.512 39.5451C102.238 39.5451 102.019 39.317 102.019 39.04V37.6063C102.019 36.584 101.21 35.7531 100.213 35.7531C99.2168 35.7531 98.407 36.584 98.407 37.6063C98.407 37.8874 98.1847 38.1114 97.9147 38.1114C97.6448 38.1114 97.4225 37.8833 97.4225 37.6063C97.4225 36.026 98.673 34.743 100.213 34.743C101.754 34.743 103.004 36.026 103.004 37.6063V39.04C103.004 39.3211 102.782 39.5451 102.512 39.5451V39.5451Z" fill="#FFD14C"/>
<path d="M93.2899 37.3538C93.2344 37.3538 93.1828 37.3457 93.1272 37.3253C92.8691 37.2316 92.7342 36.9465 92.8255 36.6817L93.2939 35.3051C93.2542 34.3194 92.4603 33.5333 91.4916 33.5333C90.7652 33.5333 90.1101 33.9773 89.8283 34.6656L89.1098 36.4659C89.0065 36.7225 88.7207 36.8487 88.4667 36.7428C88.2166 36.6369 88.0935 36.3437 88.1967 36.083L88.9152 34.2746C89.3559 33.2074 90.3642 32.5191 91.4877 32.5191C93.0279 32.5191 94.2784 33.8021 94.2784 35.3824V35.468L93.7544 37.0117C93.683 37.2194 93.4924 37.3497 93.2899 37.3497V37.3538Z" fill="#FFD14C"/>
<path d="M74.89 58.6232C74.6161 58.6232 74.3977 58.3951 74.3977 58.1181C74.3977 56.6885 73.2624 55.5277 71.873 55.5277C71.599 55.5277 71.3807 55.2996 71.3807 55.0226C71.3807 54.7456 71.603 54.5175 71.873 54.5175C73.8102 54.5175 75.3862 56.1345 75.3862 58.1222C75.3862 58.4032 75.1639 58.6272 74.894 58.6272L74.89 58.6232Z" fill="white"/>
<path d="M101.984 62.2685C101.916 62.2685 101.845 62.2522 101.781 62.2237C101.535 62.1097 101.424 61.8083 101.535 61.5558C102.706 58.9083 102.992 55.8942 102.341 53.0635C102.278 52.7906 102.444 52.5177 102.706 52.4566C102.972 52.3914 103.238 52.5625 103.298 52.8313C104 55.8779 103.691 59.1241 102.428 61.9753C102.345 62.1626 102.166 62.2726 101.98 62.2726L101.984 62.2685Z" fill="white"/>
<path d="M106.533 56.6274C106.489 56.6274 106.446 56.6233 106.406 56.6111C106.144 56.5378 105.989 56.2608 106.057 55.992L109.217 43.9521C109.288 43.6833 109.558 43.5244 109.82 43.5937C110.082 43.667 110.237 43.9439 110.169 44.2128L107.009 56.2526C106.95 56.4767 106.751 56.6274 106.533 56.6274V56.6274Z" fill="#FFD14C"/>
<path d="M83.3178 106.245C83.3178 106.245 83.2861 106.245 83.2702 106.245C78.2127 105.744 74.3977 101.435 74.3977 96.2213V53.2101C74.3977 52.9291 74.62 52.705 74.89 52.705C75.1599 52.705 75.3822 52.9331 75.3822 53.2101V96.2213C75.3822 100.909 78.8121 104.787 83.3615 105.235C83.6315 105.263 83.8299 105.508 83.8061 105.789C83.7823 106.05 83.5679 106.245 83.3178 106.245V106.245Z" fill="#FFD14C"/>
<path d="M98.3157 108.502C99.2327 105.483 97.613 102.274 94.6833 101.3L83.5283 97.7243C82.2222 97.3048 80.8367 98.0542 80.4318 99.3942C79.3322 103.036 81.8808 106.758 85.5886 106.942L87.8633 107.052L86.2595 112.725C85.9935 113.666 86.5215 114.652 87.4385 114.921C88.2245 115.157 89.0463 114.79 89.4274 114.086L89.6814 114.118C89.8124 114.733 90.257 115.259 90.8922 115.446C91.7179 115.69 92.5754 115.279 92.9327 114.509C93.1312 114.974 93.945 115.397 94.4571 115.552C95.1637 115.76 95.8981 115.487 96.3149 114.921L98.3157 108.506V108.502Z" fill="white"/>
<path d="M95.1518 116.053C94.9533 116.053 94.7548 116.024 94.5603 115.967C94.1673 115.849 93.5956 115.589 93.1867 115.226C92.6468 115.837 91.8052 116.102 90.9954 115.862C90.4237 115.69 89.9513 115.287 89.6854 114.758C89.1415 115.332 88.3277 115.568 87.5417 115.336C86.4024 114.998 85.7434 113.772 86.0729 112.603L87.6767 106.929C87.7402 106.701 87.9744 106.567 88.2007 106.632C88.423 106.697 88.554 106.937 88.4905 107.17L86.8867 112.843C86.6882 113.552 87.0852 114.297 87.7799 114.505C88.3674 114.68 88.9867 114.42 89.2844 113.874L89.4234 113.621L90.257 113.723L90.3205 114.025C90.4237 114.509 90.7731 114.892 91.2336 115.031C91.8489 115.214 92.4999 114.917 92.7739 114.322L93.1708 113.471L93.54 114.334C93.6472 114.587 94.2586 114.974 94.7945 115.132C95.2907 115.279 95.8266 115.108 96.1561 114.709L98.1331 108.367C98.9747 105.593 97.4701 102.608 94.7746 101.708L83.4766 97.9483C83.2543 97.875 83.1313 97.6306 83.2067 97.4025C83.2781 97.1744 83.5163 97.0522 83.7386 97.1256L95.0366 100.885C98.1688 101.928 99.9234 105.402 98.9429 108.628L96.9183 115.116L96.8746 115.173C96.4618 115.731 95.8147 116.049 95.1518 116.049V116.053Z" fill="#5798F7"/>
<path d="M89.7291 114.489C89.6894 114.489 89.6497 114.485 89.61 114.473C89.3877 114.407 89.2567 114.167 89.3202 113.935L90.9279 108.253C91.1304 107.54 91.055 106.783 90.7096 106.127L90.3364 105.41C90.2253 105.198 90.3047 104.938 90.5111 104.824C90.7175 104.71 90.9716 104.791 91.0828 105.003L91.4559 105.72C91.9005 106.575 92.0037 107.561 91.7378 108.493L90.13 114.175C90.0744 114.367 89.9077 114.489 89.7251 114.489H89.7291Z" fill="#5798F7"/>
<path d="M93.155 114.941C93.1153 114.941 93.0716 114.937 93.0319 114.921C92.8096 114.851 92.6826 114.607 92.75 114.379L94.5881 108.184C94.7905 107.504 94.7349 106.775 94.4372 106.135L94.0918 105.394C93.9926 105.178 94.0799 104.917 94.2903 104.815C94.5007 104.714 94.7548 104.803 94.854 105.019L95.1994 105.76C95.5884 106.599 95.6599 107.548 95.3939 108.436L93.5559 114.631C93.5003 114.819 93.3336 114.937 93.151 114.937L93.155 114.941Z" fill="#5798F7"/>
<path d="M95.2629 115.194C95.8088 115.194 96.2514 114.739 96.2514 114.179C96.2514 113.619 95.8088 113.165 95.2629 113.165C94.717 113.165 94.2744 113.619 94.2744 114.179C94.2744 114.739 94.717 115.194 95.2629 115.194Z" fill="#FFD14C"/>
<path d="M91.6663 115.071C92.2122 115.071 92.6548 114.617 92.6548 114.057C92.6548 113.497 92.2122 113.043 91.6663 113.043C91.1204 113.043 90.6778 113.497 90.6778 114.057C90.6778 114.617 91.1204 115.071 91.6663 115.071Z" fill="#FFD14C"/>
<path d="M88.2245 114.505C88.7704 114.505 89.213 114.051 89.213 113.491C89.213 112.931 88.7704 112.477 88.2245 112.477C87.6786 112.477 87.236 112.931 87.236 113.491C87.236 114.051 87.6786 114.505 88.2245 114.505Z" fill="#FFD14C"/>
<path d="M128.978 29.6639C128.978 30.4337 128.371 31.0569 127.621 31.0569H123.992C123.429 31.0569 122.932 31.4397 122.781 31.9978L121.733 36.3274C121.142 38.4942 119.217 39.9931 117.025 40.0013L111.333 38.4169L112.758 31.2728C113.179 29.5621 114.409 28.1854 116.033 27.607L124.294 24.6581C124.346 24.6378 124.401 24.6296 124.453 24.6296C124.639 24.6296 124.818 24.7396 124.897 24.9229C125.318 25.8597 125.112 26.939 124.437 27.6478H127.446C128.28 27.6478 128.958 28.3402 128.958 29.1955L128.982 29.6598L128.978 29.6639Z" fill="white"/>
<path d="M117.025 40.4371V39.5695C119.018 39.5654 120.789 38.1847 121.325 36.2133L122.369 31.8959C122.575 31.1424 123.238 30.6251 123.992 30.6251H127.621C128.133 30.6251 128.55 30.2015 128.557 29.6761L128.534 29.224C128.534 29.224 128.534 29.2077 128.534 29.2036C128.534 28.5886 128.045 28.0876 127.446 28.0876H124.437C124.266 28.0876 124.111 27.9817 124.048 27.8229C123.98 27.664 124.016 27.4767 124.135 27.3504C124.699 26.7598 124.85 25.8597 124.512 25.1102C124.496 25.0695 124.453 25.0614 124.433 25.0695L116.172 28.0184C114.679 28.552 113.56 29.8024 113.171 31.3746L111.749 38.5065L110.92 38.3313L112.345 31.1872C112.345 31.1872 112.345 31.175 112.349 31.1668C112.805 29.3095 114.131 27.827 115.894 27.1956L124.155 24.2468C124.25 24.2142 124.35 24.1938 124.453 24.1938C124.81 24.1938 125.136 24.4097 125.282 24.7437C125.64 25.5379 125.612 26.4503 125.247 27.216H127.446C128.51 27.216 129.375 28.0999 129.379 29.1874L129.403 29.6395C129.403 29.6395 129.403 29.6558 129.403 29.6598C129.403 30.6659 128.605 31.4845 127.621 31.4845H123.992C123.619 31.4845 123.29 31.7411 123.186 32.1118L122.142 36.4292C121.499 38.7834 119.395 40.4249 117.025 40.433V40.4371Z" fill="#5798F7"/>
<path d="M118.669 33.8387H117.664V32.9712H118.669C119.983 32.9712 121.051 31.8022 121.051 30.3685C121.051 29.2484 121.94 28.332 123.036 28.332H123.127V29.1996H123.036C122.408 29.1996 121.896 29.725 121.896 30.3685C121.896 32.2828 120.447 33.8387 118.669 33.8387Z" fill="#5798F7"/>
<path d="M120.535 26.6458H124.842V38.3924C124.842 39.4188 124.028 40.2538 123.028 40.2538H122.349C121.348 40.2538 120.535 39.4188 120.535 38.3924V26.6458V26.6458Z" fill="white"/>
<path d="M122.686 40.7588C121.225 40.7588 120.038 39.541 120.038 38.0421V26.6458C120.038 26.3647 120.261 26.1407 120.531 26.1407H124.838C125.112 26.1407 125.33 26.3688 125.33 26.6458V38.0421C125.33 39.541 124.143 40.7588 122.682 40.7588H122.686ZM121.027 27.1508V38.0421C121.027 38.983 121.773 39.7446 122.686 39.7446C123.599 39.7446 124.346 38.9789 124.346 38.0421V27.1508H121.027V27.1508Z" fill="#5798F7"/>
<path d="M124.778 27.5092L120.535 30.0427V26.8087H124.778V27.5092Z" fill="#5798F7"/>
<path d="M139.979 26.1081L114.25 25.8638C113.266 25.8556 112.325 25.4768 111.603 24.7885C110.88 24.1042 110.435 23.1715 110.352 22.1654C110.225 20.634 110.94 19.184 112.214 18.3816L135.973 1.23005C136.426 0.940866 137.204 0.452102 137.68 0.696484L139.979 26.1081Z" fill="white"/>
<path d="M139.979 26.6132H139.975L114.246 26.3688C113.139 26.3607 112.083 25.933 111.269 25.1591C110.455 24.3893 109.959 23.3385 109.864 22.2062C109.721 20.4914 110.519 18.8622 111.948 17.958L135.691 0.818672C135.691 0.818672 135.707 0.810526 135.715 0.80238C136.223 0.476537 137.168 -0.134418 137.902 0.244374C138.053 0.321762 138.156 0.476537 138.172 0.651677L140.471 26.0633C140.483 26.2059 140.439 26.3484 140.344 26.4543C140.249 26.5602 140.118 26.6173 139.983 26.6173L139.979 26.6132ZM136.247 1.65364L112.504 18.797C112.504 18.797 112.488 18.8093 112.476 18.8133C111.36 19.5139 110.737 20.7847 110.844 22.1206C110.916 23.0004 111.305 23.815 111.936 24.4178C112.567 25.0166 113.389 25.3506 114.25 25.3587L139.431 25.599L137.22 1.15673C137.037 1.20154 136.739 1.33595 136.243 1.65772L136.247 1.65364Z" fill="#5798F7"/>
<path d="M137.851 26.5114C133.492 26.5114 130.407 21.9211 129.796 14.5326C129.407 9.79971 130.332 5.60449 132.269 3.30322L133.016 3.96713C131.273 6.03216 130.415 10.0482 130.777 14.447C131.336 21.2653 134.048 25.4972 137.847 25.4972V26.5073L137.851 26.5114Z" fill="#5798F7"/>
<path d="M145.969 12.663C146.549 19.7012 143.917 25.9045 140.09 26.2344C136.263 26.5643 132.694 20.8987 132.114 13.8605C131.535 6.82231 134.167 0.84717 137.994 0.517254C141.821 0.187338 145.389 5.62076 145.969 12.659V12.663Z" fill="white"/>
<path d="M139.768 26.7557C137.863 26.7557 135.997 25.4687 134.476 23.09C132.928 20.6706 131.916 17.4081 131.626 13.9053C131.34 10.4188 131.813 7.0667 132.956 4.4681C134.143 1.77176 135.917 0.191419 137.954 0.0162785C139.99 -0.162935 141.999 1.09156 143.607 3.5476C145.159 5.90996 146.171 9.1358 146.461 12.6223C146.751 16.1211 146.279 19.5098 145.135 22.1695C143.944 24.9432 142.166 26.5643 140.137 26.7395C140.014 26.7517 139.895 26.7557 139.772 26.7557H139.768ZM138.327 1.0101C138.228 1.0101 138.133 1.01417 138.037 1.02232C136.374 1.16487 134.889 2.53749 133.853 4.88355C132.777 7.32737 132.337 10.5003 132.607 13.8198C132.881 17.1556 133.837 20.2511 135.298 22.5361C136.707 24.7396 138.395 25.876 140.05 25.7334C141.705 25.5909 143.19 24.1775 144.23 21.7622C145.31 19.2573 145.751 16.0396 145.477 12.7079C145.203 9.38833 144.25 6.33763 142.789 4.11375C141.467 2.10574 139.895 1.01417 138.327 1.01417V1.0101Z" fill="#5798F7"/>
<path d="M139.959 24.3468C142.978 24.085 145.016 18.9049 144.512 12.7767C144.007 6.64845 141.15 1.89274 138.131 2.15449C135.112 2.41625 133.073 7.59636 133.578 13.7246C134.083 19.8528 136.939 24.6085 139.959 24.3468Z" fill="#B6DAFF"/>
<path d="M137.406 17.7177L137.323 16.7116C139.066 16.5609 140.364 14.9806 140.217 13.1925C140.145 12.325 139.748 11.5389 139.101 10.9768C138.454 10.4147 137.632 10.1459 136.787 10.2192L136.703 9.21318C137.811 9.11543 138.887 9.46978 139.736 10.2029C140.586 10.9401 141.106 11.9706 141.197 13.107C141.392 15.4531 139.689 17.5222 137.402 17.7177H137.406Z" fill="#5798F7"/>
<path d="M138.784 13.5021C138.7 12.5124 137.855 11.7792 136.89 11.8607L136.819 10.9972C138.248 10.8709 139.506 11.9625 139.625 13.4288L138.784 13.5021Z" fill="white"/>
<path d="M125.616 27.6518H127.684C128.391 27.6518 128.966 28.2424 128.966 28.9674V29.9042C128.966 30.6292 128.391 31.2198 127.684 31.2198H125.616C124.806 31.2198 124.151 30.5478 124.151 29.7169V29.1548C124.151 28.3239 124.806 27.6518 125.616 27.6518V27.6518Z" fill="white"/>
<path d="M127.442 31.6475H125.886C124.695 31.6475 123.726 30.6536 123.726 29.4317C123.726 28.2098 124.695 27.216 125.886 27.216H127.442C128.514 27.216 129.387 28.1121 129.387 29.2118V29.6557C129.387 30.7555 128.514 31.6515 127.442 31.6515V31.6475ZM125.886 28.0836C125.159 28.0836 124.572 28.6904 124.572 29.4317C124.572 30.173 125.163 30.7799 125.886 30.7799H127.442C128.049 30.7799 128.542 30.2749 128.542 29.6517V29.2077C128.542 28.5845 128.049 28.0795 127.442 28.0795H125.886V28.0836Z" fill="#5798F7"/>
<path d="M125.529 30.3726C126.035 30.3726 126.446 29.9513 126.446 29.4317C126.446 28.9121 126.035 28.4908 125.529 28.4908C125.022 28.4908 124.612 28.9121 124.612 29.4317C124.612 29.9513 125.022 30.3726 125.529 30.3726Z" fill="#FFD14C"/>
<path d="M123.643 31.2157H126.207C126.914 31.2157 127.49 31.8063 127.49 32.5313V33.4681C127.49 34.1931 126.914 34.7837 126.207 34.7837H123.643C122.833 34.7837 122.178 34.1117 122.178 33.2808V32.7187C122.178 31.8878 122.833 31.2157 123.643 31.2157V31.2157Z" fill="white"/>
<path d="M125.969 35.2154H123.917C122.726 35.2154 121.757 34.2216 121.757 32.9997C121.757 31.7778 122.726 30.784 123.917 30.784H125.969C127.041 30.784 127.914 31.68 127.914 32.7798V33.2237C127.914 34.3234 127.041 35.2195 125.969 35.2195V35.2154ZM123.917 31.6515C123.19 31.6515 122.603 32.2584 122.603 32.9997C122.603 33.741 123.194 34.3479 123.917 34.3479H125.969C126.577 34.3479 127.069 33.8428 127.069 33.2196V32.7757C127.069 32.1525 126.577 31.6474 125.969 31.6474H123.917V31.6515Z" fill="#5798F7"/>
<path d="M123.583 33.9406C124.09 33.9406 124.5 33.5193 124.5 32.9997C124.5 32.4801 124.09 32.0588 123.583 32.0588C123.077 32.0588 122.666 32.4801 122.666 32.9997C122.666 33.5193 123.077 33.9406 123.583 33.9406Z" fill="#FFD14C"/>
<path d="M123.643 34.7796H126.152C126.858 34.7796 127.434 35.3702 127.434 36.0952V37.032C127.434 37.757 126.858 38.3476 126.152 38.3476H123.643C122.833 38.3476 122.178 37.6756 122.178 36.8447V36.2826C122.178 35.4517 122.833 34.7796 123.643 34.7796V34.7796Z" fill="white"/>
<path d="M125.914 38.7794H123.921C122.73 38.7794 121.761 37.7855 121.761 36.5636C121.761 35.3417 122.73 34.3479 123.921 34.3479H125.914C126.985 34.3479 127.855 35.244 127.855 36.3437V36.7876C127.855 37.8874 126.981 38.7794 125.914 38.7794V38.7794ZM123.921 35.2155C123.194 35.2155 122.607 35.8223 122.607 36.5636C122.607 37.3049 123.198 37.9118 123.921 37.9118H125.914C126.521 37.9118 127.013 37.4067 127.013 36.7836V36.3396C127.013 35.7164 126.521 35.2114 125.914 35.2114H123.921V35.2155Z" fill="#5798F7"/>
<path d="M123.583 37.5045C124.09 37.5045 124.5 37.0832 124.5 36.5636C124.5 36.044 124.09 35.6227 123.583 35.6227C123.077 35.6227 122.666 36.044 122.666 36.5636C122.666 37.0832 123.077 37.5045 123.583 37.5045Z" fill="#FFD14C"/>
<path d="M60.7178 63.5515C61.1505 62.6432 62.0636 62.0567 63.0481 62.0567H63.0878C64.0763 62.0567 64.9893 62.6473 65.422 63.5597L84.6914 104.49C85.2948 105.769 86.4976 106.616 87.8831 106.616L87.4821 107.626L64.6479 107.605C61.1783 107.605 57.7921 106.603 54.8505 104.714C51.9089 102.82 49.5588 100.127 48.0502 96.9219L46.4742 93.5698L60.7178 63.5515V63.5515Z" fill="#FFD14C"/>
<path d="M33.8583 122.203C33.7868 122.203 33.7114 122.187 33.6439 122.154C33.3978 122.032 33.2946 121.731 33.4137 121.478L60.7139 63.5515C60.7972 63.3764 60.8965 63.2135 61.0116 63.0668H32.3775C30.8531 63.0668 29.4439 63.9751 28.7809 65.3844L12.5485 99.8626C12.4294 100.115 12.1356 100.221 11.8895 100.099C11.6434 99.9767 11.5401 99.6753 11.6592 99.4227L27.8917 64.9445C28.7174 63.189 30.48 62.0567 32.3775 62.0567H63.7309V63.0668H63.0481C62.4368 63.0668 61.873 63.4293 61.6031 63.9955L34.3029 121.918C34.2195 122.097 34.0409 122.203 33.8583 122.203V122.203Z" fill="#FFD14C"/>
<path d="M8.06659 108.721C7.99514 108.721 7.91971 108.705 7.85222 108.673C7.6061 108.55 7.50288 108.249 7.62198 107.996L9.92445 103.105C10.0435 102.852 10.3373 102.746 10.5834 102.869C10.8296 102.991 10.9328 103.292 10.8137 103.545L8.51121 108.436C8.42784 108.616 8.2492 108.721 8.06659 108.721V108.721Z" fill="#FFD14C"/>
<path d="M31.4963 83.7823H0.492253C0.218338 83.7823 0 83.5542 0 83.2772C0 83.0003 0.222308 82.7722 0.492253 82.7722H31.4963C31.7702 82.7722 31.9885 83.0003 31.9885 83.2772C31.9885 83.5542 31.7662 83.7823 31.4963 83.7823Z" fill="#83B7FF"/>
<path d="M7.96339 87.4643H6.55015C6.27623 87.4643 6.05789 87.2362 6.05789 86.9593C6.05789 86.6823 6.2802 86.4542 6.55015 86.4542H7.96339C8.2373 86.4542 8.45564 86.6823 8.45564 86.9593C8.45564 87.2362 8.23333 87.4643 7.96339 87.4643Z" fill="#83B7FF"/>
<path d="M25.8592 87.4643H11.2067C10.9328 87.4643 10.7144 87.2362 10.7144 86.9593C10.7144 86.6823 10.9368 86.4542 11.2067 86.4542H25.8592C26.1331 86.4542 26.3514 86.6823 26.3514 86.9593C26.3514 87.2362 26.1291 87.4643 25.8592 87.4643Z" fill="#83B7FF"/>
</g>
<defs>
<clipPath id="clip0_1_1233">
<rect width="181.622" height="120" fill="white"/>
</clipPath>
</defs>
</svg>
